M48
; DRILL file {KiCad (5.1.0)-1} date 08/04/2024 09:54:28
; FORMAT={-:-/ absolute / inch / decimal}
; #@! TF.CreationDate,2024-04-08T09:54:28+02:00
; #@! TF.GenerationSoftware,Kicad,Pcbnew,(5.1.0)-1
; #@! TF.FileFunction,Plated,1,2,PTH
FMAT,2
INCH
T1C0.0157
T2C0.0362
T3C0.0394
T4C0.0433
T5C0.0472
%
G90
G05
T1
X4.9803Y-3.6713
X5.4035Y-3.7456
X5.4035Y-3.8135
X5.4528Y-3.7992
X5.4635Y-3.8574
X5.5118Y-3.9334
X5.5923Y-3.7616
X5.6201Y-3.7205
X5.6336Y-3.8287
X5.6464Y-3.866
X5.6791Y-3.8878
X5.8417Y-3.7295
X5.8417Y-3.8295
X5.9205Y-3.7295
X5.9205Y-3.8295
T2
X4.5177Y-3.6417
X4.5177Y-3.7402
X4.5177Y-3.8189
X4.5177Y-3.9173
T4
X4.435Y-3.6909
X4.435Y-3.8681
T5
X5.8661Y-3.9665
X5.8661Y-3.5925
T3
G00X4.4646Y-3.5492
M15
G01X4.4055Y-3.5492
M16
G05
G00X4.4646Y-4.0098
M15
G01X4.4055Y-4.0098
M16
G05
T0
M30
