%TF.GenerationSoftware,KiCad,Pcbnew,(5.1.0)-1*%
%TF.CreationDate,2024-04-08T09:54:17+02:00*%
%TF.ProjectId,USB-UART_RS422,5553422d-5541-4525-945f-52533432322e,rev?*%
%TF.SameCoordinates,Original*%
%TF.FileFunction,Copper,L1,Top*%
%TF.FilePolarity,Positive*%
%FSLAX46Y46*%
G04 Gerber Fmt 4.6, Leading zero omitted, Abs format (unit mm)*
G04 Created by KiCad (PCBNEW (5.1.0)-1) date 2024-04-08 09:54:17*
%MOMM*%
%LPD*%
G04 APERTURE LIST*
%TA.AperFunction,SMDPad,CuDef*%
%ADD10R,2.900000X1.350000*%
%TD*%
%TA.AperFunction,SMDPad,CuDef*%
%ADD11R,1.450000X1.100000*%
%TD*%
%TA.AperFunction,Conductor*%
%ADD12C,0.100000*%
%TD*%
%TA.AperFunction,SMDPad,CuDef*%
%ADD13C,0.950000*%
%TD*%
%TA.AperFunction,SMDPad,CuDef*%
%ADD14C,1.175000*%
%TD*%
%TA.AperFunction,SMDPad,CuDef*%
%ADD15C,1.150000*%
%TD*%
%TA.AperFunction,SMDPad,CuDef*%
%ADD16R,1.526000X0.435000*%
%TD*%
%TA.AperFunction,SMDPad,CuDef*%
%ADD17C,1.200000*%
%TD*%
%TA.AperFunction,ComponentPad*%
%ADD18C,2.500000*%
%TD*%
%TA.AperFunction,ComponentPad*%
%ADD19C,1.524000*%
%TD*%
%TA.AperFunction,ComponentPad*%
%ADD20O,4.200000X1.524000*%
%TD*%
%TA.AperFunction,ViaPad*%
%ADD21C,0.800000*%
%TD*%
%TA.AperFunction,Conductor*%
%ADD22C,0.250000*%
%TD*%
%TA.AperFunction,Conductor*%
%ADD23C,0.254000*%
%TD*%
G04 APERTURE END LIST*
D10*
%TO.P,J0,MP2*%
%TO.N,Net-(J0-PadMP2)*%
X158475000Y-90105000D03*
%TO.P,J0,MP1*%
%TO.N,Net-(J0-PadMP1)*%
X158475000Y-101895000D03*
D11*
%TO.P,J0,4*%
%TO.N,Net-(IC1-Pad5)*%
X152500000Y-93000000D03*
%TO.P,J0,3*%
%TO.N,Net-(IC1-Pad6)*%
X152500000Y-95000000D03*
%TO.P,J0,2*%
%TO.N,Net-(IC1-Pad7)*%
X152500000Y-97000000D03*
%TO.P,J0,1*%
%TO.N,Net-(IC1-Pad8)*%
X152500000Y-99000000D03*
%TD*%
D12*
%TO.N,/3.3V*%
%TO.C,C1*%
G36*
X137510779Y-96326144D02*
G01*
X137533834Y-96329563D01*
X137556443Y-96335227D01*
X137578387Y-96343079D01*
X137599457Y-96353044D01*
X137619448Y-96365026D01*
X137638168Y-96378910D01*
X137655438Y-96394562D01*
X137671090Y-96411832D01*
X137684974Y-96430552D01*
X137696956Y-96450543D01*
X137706921Y-96471613D01*
X137714773Y-96493557D01*
X137720437Y-96516166D01*
X137723856Y-96539221D01*
X137725000Y-96562500D01*
X137725000Y-97162500D01*
X137723856Y-97185779D01*
X137720437Y-97208834D01*
X137714773Y-97231443D01*
X137706921Y-97253387D01*
X137696956Y-97274457D01*
X137684974Y-97294448D01*
X137671090Y-97313168D01*
X137655438Y-97330438D01*
X137638168Y-97346090D01*
X137619448Y-97359974D01*
X137599457Y-97371956D01*
X137578387Y-97381921D01*
X137556443Y-97389773D01*
X137533834Y-97395437D01*
X137510779Y-97398856D01*
X137487500Y-97400000D01*
X137012500Y-97400000D01*
X136989221Y-97398856D01*
X136966166Y-97395437D01*
X136943557Y-97389773D01*
X136921613Y-97381921D01*
X136900543Y-97371956D01*
X136880552Y-97359974D01*
X136861832Y-97346090D01*
X136844562Y-97330438D01*
X136828910Y-97313168D01*
X136815026Y-97294448D01*
X136803044Y-97274457D01*
X136793079Y-97253387D01*
X136785227Y-97231443D01*
X136779563Y-97208834D01*
X136776144Y-97185779D01*
X136775000Y-97162500D01*
X136775000Y-96562500D01*
X136776144Y-96539221D01*
X136779563Y-96516166D01*
X136785227Y-96493557D01*
X136793079Y-96471613D01*
X136803044Y-96450543D01*
X136815026Y-96430552D01*
X136828910Y-96411832D01*
X136844562Y-96394562D01*
X136861832Y-96378910D01*
X136880552Y-96365026D01*
X136900543Y-96353044D01*
X136921613Y-96343079D01*
X136943557Y-96335227D01*
X136966166Y-96329563D01*
X136989221Y-96326144D01*
X137012500Y-96325000D01*
X137487500Y-96325000D01*
X137510779Y-96326144D01*
X137510779Y-96326144D01*
G37*
D13*
%TD*%
%TO.P,C1,1*%
%TO.N,/3.3V*%
X137250000Y-96862500D03*
D12*
%TO.N,GND*%
%TO.C,C1*%
G36*
X137510779Y-94601144D02*
G01*
X137533834Y-94604563D01*
X137556443Y-94610227D01*
X137578387Y-94618079D01*
X137599457Y-94628044D01*
X137619448Y-94640026D01*
X137638168Y-94653910D01*
X137655438Y-94669562D01*
X137671090Y-94686832D01*
X137684974Y-94705552D01*
X137696956Y-94725543D01*
X137706921Y-94746613D01*
X137714773Y-94768557D01*
X137720437Y-94791166D01*
X137723856Y-94814221D01*
X137725000Y-94837500D01*
X137725000Y-95437500D01*
X137723856Y-95460779D01*
X137720437Y-95483834D01*
X137714773Y-95506443D01*
X137706921Y-95528387D01*
X137696956Y-95549457D01*
X137684974Y-95569448D01*
X137671090Y-95588168D01*
X137655438Y-95605438D01*
X137638168Y-95621090D01*
X137619448Y-95634974D01*
X137599457Y-95646956D01*
X137578387Y-95656921D01*
X137556443Y-95664773D01*
X137533834Y-95670437D01*
X137510779Y-95673856D01*
X137487500Y-95675000D01*
X137012500Y-95675000D01*
X136989221Y-95673856D01*
X136966166Y-95670437D01*
X136943557Y-95664773D01*
X136921613Y-95656921D01*
X136900543Y-95646956D01*
X136880552Y-95634974D01*
X136861832Y-95621090D01*
X136844562Y-95605438D01*
X136828910Y-95588168D01*
X136815026Y-95569448D01*
X136803044Y-95549457D01*
X136793079Y-95528387D01*
X136785227Y-95506443D01*
X136779563Y-95483834D01*
X136776144Y-95460779D01*
X136775000Y-95437500D01*
X136775000Y-94837500D01*
X136776144Y-94814221D01*
X136779563Y-94791166D01*
X136785227Y-94768557D01*
X136793079Y-94746613D01*
X136803044Y-94725543D01*
X136815026Y-94705552D01*
X136828910Y-94686832D01*
X136844562Y-94669562D01*
X136861832Y-94653910D01*
X136880552Y-94640026D01*
X136900543Y-94628044D01*
X136921613Y-94618079D01*
X136943557Y-94610227D01*
X136966166Y-94604563D01*
X136989221Y-94601144D01*
X137012500Y-94600000D01*
X137487500Y-94600000D01*
X137510779Y-94601144D01*
X137510779Y-94601144D01*
G37*
D13*
%TD*%
%TO.P,C1,2*%
%TO.N,GND*%
X137250000Y-95137500D03*
D12*
%TO.N,GND*%
%TO.C,C2.0*%
G36*
X129800779Y-94601144D02*
G01*
X129823834Y-94604563D01*
X129846443Y-94610227D01*
X129868387Y-94618079D01*
X129889457Y-94628044D01*
X129909448Y-94640026D01*
X129928168Y-94653910D01*
X129945438Y-94669562D01*
X129961090Y-94686832D01*
X129974974Y-94705552D01*
X129986956Y-94725543D01*
X129996921Y-94746613D01*
X130004773Y-94768557D01*
X130010437Y-94791166D01*
X130013856Y-94814221D01*
X130015000Y-94837500D01*
X130015000Y-95437500D01*
X130013856Y-95460779D01*
X130010437Y-95483834D01*
X130004773Y-95506443D01*
X129996921Y-95528387D01*
X129986956Y-95549457D01*
X129974974Y-95569448D01*
X129961090Y-95588168D01*
X129945438Y-95605438D01*
X129928168Y-95621090D01*
X129909448Y-95634974D01*
X129889457Y-95646956D01*
X129868387Y-95656921D01*
X129846443Y-95664773D01*
X129823834Y-95670437D01*
X129800779Y-95673856D01*
X129777500Y-95675000D01*
X129302500Y-95675000D01*
X129279221Y-95673856D01*
X129256166Y-95670437D01*
X129233557Y-95664773D01*
X129211613Y-95656921D01*
X129190543Y-95646956D01*
X129170552Y-95634974D01*
X129151832Y-95621090D01*
X129134562Y-95605438D01*
X129118910Y-95588168D01*
X129105026Y-95569448D01*
X129093044Y-95549457D01*
X129083079Y-95528387D01*
X129075227Y-95506443D01*
X129069563Y-95483834D01*
X129066144Y-95460779D01*
X129065000Y-95437500D01*
X129065000Y-94837500D01*
X129066144Y-94814221D01*
X129069563Y-94791166D01*
X129075227Y-94768557D01*
X129083079Y-94746613D01*
X129093044Y-94725543D01*
X129105026Y-94705552D01*
X129118910Y-94686832D01*
X129134562Y-94669562D01*
X129151832Y-94653910D01*
X129170552Y-94640026D01*
X129190543Y-94628044D01*
X129211613Y-94618079D01*
X129233557Y-94610227D01*
X129256166Y-94604563D01*
X129279221Y-94601144D01*
X129302500Y-94600000D01*
X129777500Y-94600000D01*
X129800779Y-94601144D01*
X129800779Y-94601144D01*
G37*
D13*
%TD*%
%TO.P,C2.0,2*%
%TO.N,GND*%
X129540000Y-95137500D03*
D12*
%TO.N,/5V*%
%TO.C,C2.0*%
G36*
X129800779Y-96326144D02*
G01*
X129823834Y-96329563D01*
X129846443Y-96335227D01*
X129868387Y-96343079D01*
X129889457Y-96353044D01*
X129909448Y-96365026D01*
X129928168Y-96378910D01*
X129945438Y-96394562D01*
X129961090Y-96411832D01*
X129974974Y-96430552D01*
X129986956Y-96450543D01*
X129996921Y-96471613D01*
X130004773Y-96493557D01*
X130010437Y-96516166D01*
X130013856Y-96539221D01*
X130015000Y-96562500D01*
X130015000Y-97162500D01*
X130013856Y-97185779D01*
X130010437Y-97208834D01*
X130004773Y-97231443D01*
X129996921Y-97253387D01*
X129986956Y-97274457D01*
X129974974Y-97294448D01*
X129961090Y-97313168D01*
X129945438Y-97330438D01*
X129928168Y-97346090D01*
X129909448Y-97359974D01*
X129889457Y-97371956D01*
X129868387Y-97381921D01*
X129846443Y-97389773D01*
X129823834Y-97395437D01*
X129800779Y-97398856D01*
X129777500Y-97400000D01*
X129302500Y-97400000D01*
X129279221Y-97398856D01*
X129256166Y-97395437D01*
X129233557Y-97389773D01*
X129211613Y-97381921D01*
X129190543Y-97371956D01*
X129170552Y-97359974D01*
X129151832Y-97346090D01*
X129134562Y-97330438D01*
X129118910Y-97313168D01*
X129105026Y-97294448D01*
X129093044Y-97274457D01*
X129083079Y-97253387D01*
X129075227Y-97231443D01*
X129069563Y-97208834D01*
X129066144Y-97185779D01*
X129065000Y-97162500D01*
X129065000Y-96562500D01*
X129066144Y-96539221D01*
X129069563Y-96516166D01*
X129075227Y-96493557D01*
X129083079Y-96471613D01*
X129093044Y-96450543D01*
X129105026Y-96430552D01*
X129118910Y-96411832D01*
X129134562Y-96394562D01*
X129151832Y-96378910D01*
X129170552Y-96365026D01*
X129190543Y-96353044D01*
X129211613Y-96343079D01*
X129233557Y-96335227D01*
X129256166Y-96329563D01*
X129279221Y-96326144D01*
X129302500Y-96325000D01*
X129777500Y-96325000D01*
X129800779Y-96326144D01*
X129800779Y-96326144D01*
G37*
D13*
%TD*%
%TO.P,C2.0,1*%
%TO.N,/5V*%
X129540000Y-96862500D03*
D12*
%TO.N,/5V*%
%TO.C,C2.1*%
G36*
X132010779Y-96326144D02*
G01*
X132033834Y-96329563D01*
X132056443Y-96335227D01*
X132078387Y-96343079D01*
X132099457Y-96353044D01*
X132119448Y-96365026D01*
X132138168Y-96378910D01*
X132155438Y-96394562D01*
X132171090Y-96411832D01*
X132184974Y-96430552D01*
X132196956Y-96450543D01*
X132206921Y-96471613D01*
X132214773Y-96493557D01*
X132220437Y-96516166D01*
X132223856Y-96539221D01*
X132225000Y-96562500D01*
X132225000Y-97162500D01*
X132223856Y-97185779D01*
X132220437Y-97208834D01*
X132214773Y-97231443D01*
X132206921Y-97253387D01*
X132196956Y-97274457D01*
X132184974Y-97294448D01*
X132171090Y-97313168D01*
X132155438Y-97330438D01*
X132138168Y-97346090D01*
X132119448Y-97359974D01*
X132099457Y-97371956D01*
X132078387Y-97381921D01*
X132056443Y-97389773D01*
X132033834Y-97395437D01*
X132010779Y-97398856D01*
X131987500Y-97400000D01*
X131512500Y-97400000D01*
X131489221Y-97398856D01*
X131466166Y-97395437D01*
X131443557Y-97389773D01*
X131421613Y-97381921D01*
X131400543Y-97371956D01*
X131380552Y-97359974D01*
X131361832Y-97346090D01*
X131344562Y-97330438D01*
X131328910Y-97313168D01*
X131315026Y-97294448D01*
X131303044Y-97274457D01*
X131293079Y-97253387D01*
X131285227Y-97231443D01*
X131279563Y-97208834D01*
X131276144Y-97185779D01*
X131275000Y-97162500D01*
X131275000Y-96562500D01*
X131276144Y-96539221D01*
X131279563Y-96516166D01*
X131285227Y-96493557D01*
X131293079Y-96471613D01*
X131303044Y-96450543D01*
X131315026Y-96430552D01*
X131328910Y-96411832D01*
X131344562Y-96394562D01*
X131361832Y-96378910D01*
X131380552Y-96365026D01*
X131400543Y-96353044D01*
X131421613Y-96343079D01*
X131443557Y-96335227D01*
X131466166Y-96329563D01*
X131489221Y-96326144D01*
X131512500Y-96325000D01*
X131987500Y-96325000D01*
X132010779Y-96326144D01*
X132010779Y-96326144D01*
G37*
D13*
%TD*%
%TO.P,C2.1,1*%
%TO.N,/5V*%
X131750000Y-96862500D03*
D12*
%TO.N,GND*%
%TO.C,C2.1*%
G36*
X132010779Y-94601144D02*
G01*
X132033834Y-94604563D01*
X132056443Y-94610227D01*
X132078387Y-94618079D01*
X132099457Y-94628044D01*
X132119448Y-94640026D01*
X132138168Y-94653910D01*
X132155438Y-94669562D01*
X132171090Y-94686832D01*
X132184974Y-94705552D01*
X132196956Y-94725543D01*
X132206921Y-94746613D01*
X132214773Y-94768557D01*
X132220437Y-94791166D01*
X132223856Y-94814221D01*
X132225000Y-94837500D01*
X132225000Y-95437500D01*
X132223856Y-95460779D01*
X132220437Y-95483834D01*
X132214773Y-95506443D01*
X132206921Y-95528387D01*
X132196956Y-95549457D01*
X132184974Y-95569448D01*
X132171090Y-95588168D01*
X132155438Y-95605438D01*
X132138168Y-95621090D01*
X132119448Y-95634974D01*
X132099457Y-95646956D01*
X132078387Y-95656921D01*
X132056443Y-95664773D01*
X132033834Y-95670437D01*
X132010779Y-95673856D01*
X131987500Y-95675000D01*
X131512500Y-95675000D01*
X131489221Y-95673856D01*
X131466166Y-95670437D01*
X131443557Y-95664773D01*
X131421613Y-95656921D01*
X131400543Y-95646956D01*
X131380552Y-95634974D01*
X131361832Y-95621090D01*
X131344562Y-95605438D01*
X131328910Y-95588168D01*
X131315026Y-95569448D01*
X131303044Y-95549457D01*
X131293079Y-95528387D01*
X131285227Y-95506443D01*
X131279563Y-95483834D01*
X131276144Y-95460779D01*
X131275000Y-95437500D01*
X131275000Y-94837500D01*
X131276144Y-94814221D01*
X131279563Y-94791166D01*
X131285227Y-94768557D01*
X131293079Y-94746613D01*
X131303044Y-94725543D01*
X131315026Y-94705552D01*
X131328910Y-94686832D01*
X131344562Y-94669562D01*
X131361832Y-94653910D01*
X131380552Y-94640026D01*
X131400543Y-94628044D01*
X131421613Y-94618079D01*
X131443557Y-94610227D01*
X131466166Y-94604563D01*
X131489221Y-94601144D01*
X131512500Y-94600000D01*
X131987500Y-94600000D01*
X132010779Y-94601144D01*
X132010779Y-94601144D01*
G37*
D13*
%TD*%
%TO.P,C2.1,2*%
%TO.N,GND*%
X131750000Y-95137500D03*
D12*
%TO.N,/D+*%
%TO.C,C3*%
G36*
X122747004Y-94026204D02*
G01*
X122771273Y-94029804D01*
X122795071Y-94035765D01*
X122818171Y-94044030D01*
X122840349Y-94054520D01*
X122861393Y-94067133D01*
X122881098Y-94081747D01*
X122899277Y-94098223D01*
X122915753Y-94116402D01*
X122930367Y-94136107D01*
X122942980Y-94157151D01*
X122953470Y-94179329D01*
X122961735Y-94202429D01*
X122967696Y-94226227D01*
X122971296Y-94250496D01*
X122972500Y-94275000D01*
X122972500Y-95225000D01*
X122971296Y-95249504D01*
X122967696Y-95273773D01*
X122961735Y-95297571D01*
X122953470Y-95320671D01*
X122942980Y-95342849D01*
X122930367Y-95363893D01*
X122915753Y-95383598D01*
X122899277Y-95401777D01*
X122881098Y-95418253D01*
X122861393Y-95432867D01*
X122840349Y-95445480D01*
X122818171Y-95455970D01*
X122795071Y-95464235D01*
X122771273Y-95470196D01*
X122747004Y-95473796D01*
X122722500Y-95475000D01*
X122047500Y-95475000D01*
X122022996Y-95473796D01*
X121998727Y-95470196D01*
X121974929Y-95464235D01*
X121951829Y-95455970D01*
X121929651Y-95445480D01*
X121908607Y-95432867D01*
X121888902Y-95418253D01*
X121870723Y-95401777D01*
X121854247Y-95383598D01*
X121839633Y-95363893D01*
X121827020Y-95342849D01*
X121816530Y-95320671D01*
X121808265Y-95297571D01*
X121802304Y-95273773D01*
X121798704Y-95249504D01*
X121797500Y-95225000D01*
X121797500Y-94275000D01*
X121798704Y-94250496D01*
X121802304Y-94226227D01*
X121808265Y-94202429D01*
X121816530Y-94179329D01*
X121827020Y-94157151D01*
X121839633Y-94136107D01*
X121854247Y-94116402D01*
X121870723Y-94098223D01*
X121888902Y-94081747D01*
X121908607Y-94067133D01*
X121929651Y-94054520D01*
X121951829Y-94044030D01*
X121974929Y-94035765D01*
X121998727Y-94029804D01*
X122022996Y-94026204D01*
X122047500Y-94025000D01*
X122722500Y-94025000D01*
X122747004Y-94026204D01*
X122747004Y-94026204D01*
G37*
D14*
%TD*%
%TO.P,C3,2*%
%TO.N,/D+*%
X122385000Y-94750000D03*
D12*
%TO.N,GND*%
%TO.C,C3*%
G36*
X124822004Y-94026204D02*
G01*
X124846273Y-94029804D01*
X124870071Y-94035765D01*
X124893171Y-94044030D01*
X124915349Y-94054520D01*
X124936393Y-94067133D01*
X124956098Y-94081747D01*
X124974277Y-94098223D01*
X124990753Y-94116402D01*
X125005367Y-94136107D01*
X125017980Y-94157151D01*
X125028470Y-94179329D01*
X125036735Y-94202429D01*
X125042696Y-94226227D01*
X125046296Y-94250496D01*
X125047500Y-94275000D01*
X125047500Y-95225000D01*
X125046296Y-95249504D01*
X125042696Y-95273773D01*
X125036735Y-95297571D01*
X125028470Y-95320671D01*
X125017980Y-95342849D01*
X125005367Y-95363893D01*
X124990753Y-95383598D01*
X124974277Y-95401777D01*
X124956098Y-95418253D01*
X124936393Y-95432867D01*
X124915349Y-95445480D01*
X124893171Y-95455970D01*
X124870071Y-95464235D01*
X124846273Y-95470196D01*
X124822004Y-95473796D01*
X124797500Y-95475000D01*
X124122500Y-95475000D01*
X124097996Y-95473796D01*
X124073727Y-95470196D01*
X124049929Y-95464235D01*
X124026829Y-95455970D01*
X124004651Y-95445480D01*
X123983607Y-95432867D01*
X123963902Y-95418253D01*
X123945723Y-95401777D01*
X123929247Y-95383598D01*
X123914633Y-95363893D01*
X123902020Y-95342849D01*
X123891530Y-95320671D01*
X123883265Y-95297571D01*
X123877304Y-95273773D01*
X123873704Y-95249504D01*
X123872500Y-95225000D01*
X123872500Y-94275000D01*
X123873704Y-94250496D01*
X123877304Y-94226227D01*
X123883265Y-94202429D01*
X123891530Y-94179329D01*
X123902020Y-94157151D01*
X123914633Y-94136107D01*
X123929247Y-94116402D01*
X123945723Y-94098223D01*
X123963902Y-94081747D01*
X123983607Y-94067133D01*
X124004651Y-94054520D01*
X124026829Y-94044030D01*
X124049929Y-94035765D01*
X124073727Y-94029804D01*
X124097996Y-94026204D01*
X124122500Y-94025000D01*
X124797500Y-94025000D01*
X124822004Y-94026204D01*
X124822004Y-94026204D01*
G37*
D14*
%TD*%
%TO.P,C3,1*%
%TO.N,GND*%
X124460000Y-94750000D03*
D12*
%TO.N,/D-*%
%TO.C,C4*%
G36*
X122747004Y-96566204D02*
G01*
X122771273Y-96569804D01*
X122795071Y-96575765D01*
X122818171Y-96584030D01*
X122840349Y-96594520D01*
X122861393Y-96607133D01*
X122881098Y-96621747D01*
X122899277Y-96638223D01*
X122915753Y-96656402D01*
X122930367Y-96676107D01*
X122942980Y-96697151D01*
X122953470Y-96719329D01*
X122961735Y-96742429D01*
X122967696Y-96766227D01*
X122971296Y-96790496D01*
X122972500Y-96815000D01*
X122972500Y-97765000D01*
X122971296Y-97789504D01*
X122967696Y-97813773D01*
X122961735Y-97837571D01*
X122953470Y-97860671D01*
X122942980Y-97882849D01*
X122930367Y-97903893D01*
X122915753Y-97923598D01*
X122899277Y-97941777D01*
X122881098Y-97958253D01*
X122861393Y-97972867D01*
X122840349Y-97985480D01*
X122818171Y-97995970D01*
X122795071Y-98004235D01*
X122771273Y-98010196D01*
X122747004Y-98013796D01*
X122722500Y-98015000D01*
X122047500Y-98015000D01*
X122022996Y-98013796D01*
X121998727Y-98010196D01*
X121974929Y-98004235D01*
X121951829Y-97995970D01*
X121929651Y-97985480D01*
X121908607Y-97972867D01*
X121888902Y-97958253D01*
X121870723Y-97941777D01*
X121854247Y-97923598D01*
X121839633Y-97903893D01*
X121827020Y-97882849D01*
X121816530Y-97860671D01*
X121808265Y-97837571D01*
X121802304Y-97813773D01*
X121798704Y-97789504D01*
X121797500Y-97765000D01*
X121797500Y-96815000D01*
X121798704Y-96790496D01*
X121802304Y-96766227D01*
X121808265Y-96742429D01*
X121816530Y-96719329D01*
X121827020Y-96697151D01*
X121839633Y-96676107D01*
X121854247Y-96656402D01*
X121870723Y-96638223D01*
X121888902Y-96621747D01*
X121908607Y-96607133D01*
X121929651Y-96594520D01*
X121951829Y-96584030D01*
X121974929Y-96575765D01*
X121998727Y-96569804D01*
X122022996Y-96566204D01*
X122047500Y-96565000D01*
X122722500Y-96565000D01*
X122747004Y-96566204D01*
X122747004Y-96566204D01*
G37*
D14*
%TD*%
%TO.P,C4,1*%
%TO.N,/D-*%
X122385000Y-97290000D03*
D12*
%TO.N,GND*%
%TO.C,C4*%
G36*
X124822004Y-96566204D02*
G01*
X124846273Y-96569804D01*
X124870071Y-96575765D01*
X124893171Y-96584030D01*
X124915349Y-96594520D01*
X124936393Y-96607133D01*
X124956098Y-96621747D01*
X124974277Y-96638223D01*
X124990753Y-96656402D01*
X125005367Y-96676107D01*
X125017980Y-96697151D01*
X125028470Y-96719329D01*
X125036735Y-96742429D01*
X125042696Y-96766227D01*
X125046296Y-96790496D01*
X125047500Y-96815000D01*
X125047500Y-97765000D01*
X125046296Y-97789504D01*
X125042696Y-97813773D01*
X125036735Y-97837571D01*
X125028470Y-97860671D01*
X125017980Y-97882849D01*
X125005367Y-97903893D01*
X124990753Y-97923598D01*
X124974277Y-97941777D01*
X124956098Y-97958253D01*
X124936393Y-97972867D01*
X124915349Y-97985480D01*
X124893171Y-97995970D01*
X124870071Y-98004235D01*
X124846273Y-98010196D01*
X124822004Y-98013796D01*
X124797500Y-98015000D01*
X124122500Y-98015000D01*
X124097996Y-98013796D01*
X124073727Y-98010196D01*
X124049929Y-98004235D01*
X124026829Y-97995970D01*
X124004651Y-97985480D01*
X123983607Y-97972867D01*
X123963902Y-97958253D01*
X123945723Y-97941777D01*
X123929247Y-97923598D01*
X123914633Y-97903893D01*
X123902020Y-97882849D01*
X123891530Y-97860671D01*
X123883265Y-97837571D01*
X123877304Y-97813773D01*
X123873704Y-97789504D01*
X123872500Y-97765000D01*
X123872500Y-96815000D01*
X123873704Y-96790496D01*
X123877304Y-96766227D01*
X123883265Y-96742429D01*
X123891530Y-96719329D01*
X123902020Y-96697151D01*
X123914633Y-96676107D01*
X123929247Y-96656402D01*
X123945723Y-96638223D01*
X123963902Y-96621747D01*
X123983607Y-96607133D01*
X124004651Y-96594520D01*
X124026829Y-96584030D01*
X124049929Y-96575765D01*
X124073727Y-96569804D01*
X124097996Y-96566204D01*
X124122500Y-96565000D01*
X124797500Y-96565000D01*
X124822004Y-96566204D01*
X124822004Y-96566204D01*
G37*
D14*
%TD*%
%TO.P,C4,2*%
%TO.N,GND*%
X124460000Y-97290000D03*
D12*
%TO.N,/5V*%
%TO.C,FB0*%
G36*
X124809505Y-99131204D02*
G01*
X124833773Y-99134804D01*
X124857572Y-99140765D01*
X124880671Y-99149030D01*
X124902850Y-99159520D01*
X124923893Y-99172132D01*
X124943599Y-99186747D01*
X124961777Y-99203223D01*
X124978253Y-99221401D01*
X124992868Y-99241107D01*
X125005480Y-99262150D01*
X125015970Y-99284329D01*
X125024235Y-99307428D01*
X125030196Y-99331227D01*
X125033796Y-99355495D01*
X125035000Y-99379999D01*
X125035000Y-100280001D01*
X125033796Y-100304505D01*
X125030196Y-100328773D01*
X125024235Y-100352572D01*
X125015970Y-100375671D01*
X125005480Y-100397850D01*
X124992868Y-100418893D01*
X124978253Y-100438599D01*
X124961777Y-100456777D01*
X124943599Y-100473253D01*
X124923893Y-100487868D01*
X124902850Y-100500480D01*
X124880671Y-100510970D01*
X124857572Y-100519235D01*
X124833773Y-100525196D01*
X124809505Y-100528796D01*
X124785001Y-100530000D01*
X124134999Y-100530000D01*
X124110495Y-100528796D01*
X124086227Y-100525196D01*
X124062428Y-100519235D01*
X124039329Y-100510970D01*
X124017150Y-100500480D01*
X123996107Y-100487868D01*
X123976401Y-100473253D01*
X123958223Y-100456777D01*
X123941747Y-100438599D01*
X123927132Y-100418893D01*
X123914520Y-100397850D01*
X123904030Y-100375671D01*
X123895765Y-100352572D01*
X123889804Y-100328773D01*
X123886204Y-100304505D01*
X123885000Y-100280001D01*
X123885000Y-99379999D01*
X123886204Y-99355495D01*
X123889804Y-99331227D01*
X123895765Y-99307428D01*
X123904030Y-99284329D01*
X123914520Y-99262150D01*
X123927132Y-99241107D01*
X123941747Y-99221401D01*
X123958223Y-99203223D01*
X123976401Y-99186747D01*
X123996107Y-99172132D01*
X124017150Y-99159520D01*
X124039329Y-99149030D01*
X124062428Y-99140765D01*
X124086227Y-99134804D01*
X124110495Y-99131204D01*
X124134999Y-99130000D01*
X124785001Y-99130000D01*
X124809505Y-99131204D01*
X124809505Y-99131204D01*
G37*
D15*
%TD*%
%TO.P,FB0,1*%
%TO.N,/5V*%
X124460000Y-99830000D03*
D12*
%TO.N,Net-(C0-Pad1)*%
%TO.C,FB0*%
G36*
X122759505Y-99131204D02*
G01*
X122783773Y-99134804D01*
X122807572Y-99140765D01*
X122830671Y-99149030D01*
X122852850Y-99159520D01*
X122873893Y-99172132D01*
X122893599Y-99186747D01*
X122911777Y-99203223D01*
X122928253Y-99221401D01*
X122942868Y-99241107D01*
X122955480Y-99262150D01*
X122965970Y-99284329D01*
X122974235Y-99307428D01*
X122980196Y-99331227D01*
X122983796Y-99355495D01*
X122985000Y-99379999D01*
X122985000Y-100280001D01*
X122983796Y-100304505D01*
X122980196Y-100328773D01*
X122974235Y-100352572D01*
X122965970Y-100375671D01*
X122955480Y-100397850D01*
X122942868Y-100418893D01*
X122928253Y-100438599D01*
X122911777Y-100456777D01*
X122893599Y-100473253D01*
X122873893Y-100487868D01*
X122852850Y-100500480D01*
X122830671Y-100510970D01*
X122807572Y-100519235D01*
X122783773Y-100525196D01*
X122759505Y-100528796D01*
X122735001Y-100530000D01*
X122084999Y-100530000D01*
X122060495Y-100528796D01*
X122036227Y-100525196D01*
X122012428Y-100519235D01*
X121989329Y-100510970D01*
X121967150Y-100500480D01*
X121946107Y-100487868D01*
X121926401Y-100473253D01*
X121908223Y-100456777D01*
X121891747Y-100438599D01*
X121877132Y-100418893D01*
X121864520Y-100397850D01*
X121854030Y-100375671D01*
X121845765Y-100352572D01*
X121839804Y-100328773D01*
X121836204Y-100304505D01*
X121835000Y-100280001D01*
X121835000Y-99379999D01*
X121836204Y-99355495D01*
X121839804Y-99331227D01*
X121845765Y-99307428D01*
X121854030Y-99284329D01*
X121864520Y-99262150D01*
X121877132Y-99241107D01*
X121891747Y-99221401D01*
X121908223Y-99203223D01*
X121926401Y-99186747D01*
X121946107Y-99172132D01*
X121967150Y-99159520D01*
X121989329Y-99149030D01*
X122012428Y-99140765D01*
X122036227Y-99134804D01*
X122060495Y-99131204D01*
X122084999Y-99130000D01*
X122735001Y-99130000D01*
X122759505Y-99131204D01*
X122759505Y-99131204D01*
G37*
D15*
%TD*%
%TO.P,FB0,2*%
%TO.N,Net-(C0-Pad1)*%
X122410000Y-99830000D03*
D16*
%TO.P,IC0,1*%
%TO.N,Net-(IC0-Pad1)*%
X140288000Y-93142000D03*
%TO.P,IC0,2*%
%TO.N,Net-(IC0-Pad2)*%
X140288000Y-93778000D03*
%TO.P,IC0,3*%
%TO.N,/3.3V*%
X140288000Y-94412000D03*
%TO.P,IC0,4*%
%TO.N,Net-(IC0-Pad4)*%
X140288000Y-95048000D03*
%TO.P,IC0,5*%
%TO.N,Net-(IC0-Pad5)*%
X140288000Y-95682000D03*
%TO.P,IC0,6*%
%TO.N,GND*%
X140288000Y-96318000D03*
%TO.P,IC0,7*%
%TO.N,Net-(IC0-Pad7)*%
X140288000Y-96952000D03*
%TO.P,IC0,8*%
%TO.N,Net-(IC0-Pad8)*%
X140288000Y-97588000D03*
%TO.P,IC0,9*%
%TO.N,Net-(IC0-Pad9)*%
X140288000Y-98222000D03*
%TO.P,IC0,10*%
%TO.N,Net-(IC0-Pad10)*%
X140288000Y-98858000D03*
%TO.P,IC0,11*%
%TO.N,Net-(IC0-Pad11)*%
X145712000Y-98858000D03*
%TO.P,IC0,12*%
%TO.N,Net-(IC0-Pad12)*%
X145712000Y-98222000D03*
%TO.P,IC0,13*%
%TO.N,/3.3V*%
X145712000Y-97588000D03*
%TO.P,IC0,14*%
X145712000Y-96952000D03*
%TO.P,IC0,15*%
%TO.N,/5V*%
X145712000Y-96318000D03*
%TO.P,IC0,16*%
%TO.N,GND*%
X145712000Y-95682000D03*
%TO.P,IC0,17*%
%TO.N,Net-(IC0-Pad17)*%
X145712000Y-95048000D03*
%TO.P,IC0,18*%
%TO.N,Net-(IC0-Pad18)*%
X145712000Y-94412000D03*
%TO.P,IC0,19*%
%TO.N,Net-(IC0-Pad19)*%
X145712000Y-93778000D03*
%TO.P,IC0,20*%
%TO.N,Net-(IC0-Pad20)*%
X145712000Y-93142000D03*
%TD*%
D12*
%TO.N,Net-(LED0-Pad1)*%
%TO.C,LED0*%
G36*
X135364505Y-94401204D02*
G01*
X135388773Y-94404804D01*
X135412572Y-94410765D01*
X135435671Y-94419030D01*
X135457850Y-94429520D01*
X135478893Y-94442132D01*
X135498599Y-94456747D01*
X135516777Y-94473223D01*
X135533253Y-94491401D01*
X135547868Y-94511107D01*
X135560480Y-94532150D01*
X135570970Y-94554329D01*
X135579235Y-94577428D01*
X135585196Y-94601227D01*
X135588796Y-94625495D01*
X135590000Y-94649999D01*
X135590000Y-95300001D01*
X135588796Y-95324505D01*
X135585196Y-95348773D01*
X135579235Y-95372572D01*
X135570970Y-95395671D01*
X135560480Y-95417850D01*
X135547868Y-95438893D01*
X135533253Y-95458599D01*
X135516777Y-95476777D01*
X135498599Y-95493253D01*
X135478893Y-95507868D01*
X135457850Y-95520480D01*
X135435671Y-95530970D01*
X135412572Y-95539235D01*
X135388773Y-95545196D01*
X135364505Y-95548796D01*
X135340001Y-95550000D01*
X134439999Y-95550000D01*
X134415495Y-95548796D01*
X134391227Y-95545196D01*
X134367428Y-95539235D01*
X134344329Y-95530970D01*
X134322150Y-95520480D01*
X134301107Y-95507868D01*
X134281401Y-95493253D01*
X134263223Y-95476777D01*
X134246747Y-95458599D01*
X134232132Y-95438893D01*
X134219520Y-95417850D01*
X134209030Y-95395671D01*
X134200765Y-95372572D01*
X134194804Y-95348773D01*
X134191204Y-95324505D01*
X134190000Y-95300001D01*
X134190000Y-94649999D01*
X134191204Y-94625495D01*
X134194804Y-94601227D01*
X134200765Y-94577428D01*
X134209030Y-94554329D01*
X134219520Y-94532150D01*
X134232132Y-94511107D01*
X134246747Y-94491401D01*
X134263223Y-94473223D01*
X134281401Y-94456747D01*
X134301107Y-94442132D01*
X134322150Y-94429520D01*
X134344329Y-94419030D01*
X134367428Y-94410765D01*
X134391227Y-94404804D01*
X134415495Y-94401204D01*
X134439999Y-94400000D01*
X135340001Y-94400000D01*
X135364505Y-94401204D01*
X135364505Y-94401204D01*
G37*
D15*
%TD*%
%TO.P,LED0,1*%
%TO.N,Net-(LED0-Pad1)*%
X134890000Y-94975000D03*
D12*
%TO.N,/5V*%
%TO.C,LED0*%
G36*
X135364505Y-96451204D02*
G01*
X135388773Y-96454804D01*
X135412572Y-96460765D01*
X135435671Y-96469030D01*
X135457850Y-96479520D01*
X135478893Y-96492132D01*
X135498599Y-96506747D01*
X135516777Y-96523223D01*
X135533253Y-96541401D01*
X135547868Y-96561107D01*
X135560480Y-96582150D01*
X135570970Y-96604329D01*
X135579235Y-96627428D01*
X135585196Y-96651227D01*
X135588796Y-96675495D01*
X135590000Y-96699999D01*
X135590000Y-97350001D01*
X135588796Y-97374505D01*
X135585196Y-97398773D01*
X135579235Y-97422572D01*
X135570970Y-97445671D01*
X135560480Y-97467850D01*
X135547868Y-97488893D01*
X135533253Y-97508599D01*
X135516777Y-97526777D01*
X135498599Y-97543253D01*
X135478893Y-97557868D01*
X135457850Y-97570480D01*
X135435671Y-97580970D01*
X135412572Y-97589235D01*
X135388773Y-97595196D01*
X135364505Y-97598796D01*
X135340001Y-97600000D01*
X134439999Y-97600000D01*
X134415495Y-97598796D01*
X134391227Y-97595196D01*
X134367428Y-97589235D01*
X134344329Y-97580970D01*
X134322150Y-97570480D01*
X134301107Y-97557868D01*
X134281401Y-97543253D01*
X134263223Y-97526777D01*
X134246747Y-97508599D01*
X134232132Y-97488893D01*
X134219520Y-97467850D01*
X134209030Y-97445671D01*
X134200765Y-97422572D01*
X134194804Y-97398773D01*
X134191204Y-97374505D01*
X134190000Y-97350001D01*
X134190000Y-96699999D01*
X134191204Y-96675495D01*
X134194804Y-96651227D01*
X134200765Y-96627428D01*
X134209030Y-96604329D01*
X134219520Y-96582150D01*
X134232132Y-96561107D01*
X134246747Y-96541401D01*
X134263223Y-96523223D01*
X134281401Y-96506747D01*
X134301107Y-96492132D01*
X134322150Y-96479520D01*
X134344329Y-96469030D01*
X134367428Y-96460765D01*
X134391227Y-96454804D01*
X134415495Y-96451204D01*
X134439999Y-96450000D01*
X135340001Y-96450000D01*
X135364505Y-96451204D01*
X135364505Y-96451204D01*
G37*
D15*
%TD*%
%TO.P,LED0,2*%
%TO.N,/5V*%
X134890000Y-97025000D03*
D12*
%TO.N,GND*%
%TO.C,R0*%
G36*
X122834505Y-91511204D02*
G01*
X122858773Y-91514804D01*
X122882572Y-91520765D01*
X122905671Y-91529030D01*
X122927850Y-91539520D01*
X122948893Y-91552132D01*
X122968599Y-91566747D01*
X122986777Y-91583223D01*
X123003253Y-91601401D01*
X123017868Y-91621107D01*
X123030480Y-91642150D01*
X123040970Y-91664329D01*
X123049235Y-91687428D01*
X123055196Y-91711227D01*
X123058796Y-91735495D01*
X123060000Y-91759999D01*
X123060000Y-92660001D01*
X123058796Y-92684505D01*
X123055196Y-92708773D01*
X123049235Y-92732572D01*
X123040970Y-92755671D01*
X123030480Y-92777850D01*
X123017868Y-92798893D01*
X123003253Y-92818599D01*
X122986777Y-92836777D01*
X122968599Y-92853253D01*
X122948893Y-92867868D01*
X122927850Y-92880480D01*
X122905671Y-92890970D01*
X122882572Y-92899235D01*
X122858773Y-92905196D01*
X122834505Y-92908796D01*
X122810001Y-92910000D01*
X122109999Y-92910000D01*
X122085495Y-92908796D01*
X122061227Y-92905196D01*
X122037428Y-92899235D01*
X122014329Y-92890970D01*
X121992150Y-92880480D01*
X121971107Y-92867868D01*
X121951401Y-92853253D01*
X121933223Y-92836777D01*
X121916747Y-92818599D01*
X121902132Y-92798893D01*
X121889520Y-92777850D01*
X121879030Y-92755671D01*
X121870765Y-92732572D01*
X121864804Y-92708773D01*
X121861204Y-92684505D01*
X121860000Y-92660001D01*
X121860000Y-91759999D01*
X121861204Y-91735495D01*
X121864804Y-91711227D01*
X121870765Y-91687428D01*
X121879030Y-91664329D01*
X121889520Y-91642150D01*
X121902132Y-91621107D01*
X121916747Y-91601401D01*
X121933223Y-91583223D01*
X121951401Y-91566747D01*
X121971107Y-91552132D01*
X121992150Y-91539520D01*
X122014329Y-91529030D01*
X122037428Y-91520765D01*
X122061227Y-91514804D01*
X122085495Y-91511204D01*
X122109999Y-91510000D01*
X122810001Y-91510000D01*
X122834505Y-91511204D01*
X122834505Y-91511204D01*
G37*
D17*
%TD*%
%TO.P,R0,1*%
%TO.N,GND*%
X122460000Y-92210000D03*
D12*
%TO.N,Net-(LED0-Pad1)*%
%TO.C,R0*%
G36*
X124834505Y-91511204D02*
G01*
X124858773Y-91514804D01*
X124882572Y-91520765D01*
X124905671Y-91529030D01*
X124927850Y-91539520D01*
X124948893Y-91552132D01*
X124968599Y-91566747D01*
X124986777Y-91583223D01*
X125003253Y-91601401D01*
X125017868Y-91621107D01*
X125030480Y-91642150D01*
X125040970Y-91664329D01*
X125049235Y-91687428D01*
X125055196Y-91711227D01*
X125058796Y-91735495D01*
X125060000Y-91759999D01*
X125060000Y-92660001D01*
X125058796Y-92684505D01*
X125055196Y-92708773D01*
X125049235Y-92732572D01*
X125040970Y-92755671D01*
X125030480Y-92777850D01*
X125017868Y-92798893D01*
X125003253Y-92818599D01*
X124986777Y-92836777D01*
X124968599Y-92853253D01*
X124948893Y-92867868D01*
X124927850Y-92880480D01*
X124905671Y-92890970D01*
X124882572Y-92899235D01*
X124858773Y-92905196D01*
X124834505Y-92908796D01*
X124810001Y-92910000D01*
X124109999Y-92910000D01*
X124085495Y-92908796D01*
X124061227Y-92905196D01*
X124037428Y-92899235D01*
X124014329Y-92890970D01*
X123992150Y-92880480D01*
X123971107Y-92867868D01*
X123951401Y-92853253D01*
X123933223Y-92836777D01*
X123916747Y-92818599D01*
X123902132Y-92798893D01*
X123889520Y-92777850D01*
X123879030Y-92755671D01*
X123870765Y-92732572D01*
X123864804Y-92708773D01*
X123861204Y-92684505D01*
X123860000Y-92660001D01*
X123860000Y-91759999D01*
X123861204Y-91735495D01*
X123864804Y-91711227D01*
X123870765Y-91687428D01*
X123879030Y-91664329D01*
X123889520Y-91642150D01*
X123902132Y-91621107D01*
X123916747Y-91601401D01*
X123933223Y-91583223D01*
X123951401Y-91566747D01*
X123971107Y-91552132D01*
X123992150Y-91539520D01*
X124014329Y-91529030D01*
X124037428Y-91520765D01*
X124061227Y-91514804D01*
X124085495Y-91511204D01*
X124109999Y-91510000D01*
X124810001Y-91510000D01*
X124834505Y-91511204D01*
X124834505Y-91511204D01*
G37*
D17*
%TD*%
%TO.P,R0,2*%
%TO.N,Net-(LED0-Pad1)*%
X124460000Y-92210000D03*
D18*
%TO.P,RX0,1*%
%TO.N,Net-(IC0-Pad4)*%
X149000000Y-100750000D03*
%TD*%
%TO.P,TX0,1*%
%TO.N,Net-(IC0-Pad20)*%
X149000000Y-91250000D03*
%TD*%
D19*
%TO.P,U0,3*%
%TO.N,/D+*%
X114750000Y-95000000D03*
%TO.P,U0,2*%
%TO.N,/D-*%
X114750000Y-97000000D03*
%TO.P,U0,4*%
%TO.N,GND*%
X114750000Y-92500000D03*
%TO.P,U0,1*%
%TO.N,Net-(C0-Pad1)*%
X114750000Y-99500000D03*
%TO.P,U0,5*%
%TO.N,/SHIELD*%
X112650000Y-93750000D03*
X112650000Y-98250000D03*
D20*
X112650000Y-101850000D03*
X112650000Y-90150000D03*
%TD*%
D21*
%TO.N,GND*%
X137250000Y-95137500D03*
X138500000Y-96500000D03*
%TO.N,/3.3V*%
X137250000Y-96862500D03*
X143093123Y-97249524D03*
%TO.N,Net-(IC0-Pad4)*%
X142044142Y-95544142D03*
X140000000Y-99908190D03*
X138772669Y-97977331D03*
%TO.N,Net-(IC0-Pad11)*%
X144250000Y-98750000D03*
%TO.N,Net-(IC0-Pad12)*%
X143417948Y-98195299D03*
%TO.N,Net-(IC0-Pad20)*%
X142750000Y-94500000D03*
%TO.N,Net-(IC1-Pad5)*%
X150380000Y-94730000D03*
%TO.N,Net-(IC1-Pad6)*%
X148380000Y-94730000D03*
%TO.N,/SHIELD*%
X126500000Y-93250000D03*
%TO.N,Net-(IC1-Pad7)*%
X150380000Y-97270000D03*
%TO.N,Net-(IC1-Pad8)*%
X148380000Y-97270000D03*
%TD*%
D22*
%TO.N,Net-(C0-Pad1)*%
X122410000Y-99830000D02*
X121580000Y-99830000D01*
X121580000Y-99830000D02*
X119250000Y-97500000D01*
X116750000Y-97500000D02*
X114750000Y-99500000D01*
X119250000Y-97500000D02*
X116750000Y-97500000D01*
%TO.N,GND*%
X124460000Y-94750000D02*
X124460000Y-97290000D01*
X129152500Y-94750000D02*
X129540000Y-95137500D01*
X124460000Y-94750000D02*
X129152500Y-94750000D01*
X129540000Y-95137500D02*
X131750000Y-95137500D01*
X124460000Y-94210000D02*
X122460000Y-92210000D01*
X124460000Y-94750000D02*
X124460000Y-94210000D01*
X122460000Y-92210000D02*
X121540000Y-92210000D01*
X121540000Y-92210000D02*
X119250000Y-94500000D01*
X116750000Y-94500000D02*
X114750000Y-92500000D01*
X119250000Y-94500000D02*
X116750000Y-94500000D01*
X132487510Y-95875010D02*
X131750000Y-95137500D01*
X136512490Y-95875010D02*
X132487510Y-95875010D01*
X137250000Y-95137500D02*
X136512490Y-95875010D01*
X142931590Y-95682000D02*
X145712000Y-95682000D01*
X142295590Y-96318000D02*
X142931590Y-95682000D01*
X140288000Y-96318000D02*
X142295590Y-96318000D01*
X138682000Y-96318000D02*
X138500000Y-96500000D01*
X140288000Y-96318000D02*
X138682000Y-96318000D01*
%TO.N,/3.3V*%
X139358498Y-94412000D02*
X140288000Y-94412000D01*
X137250000Y-96520498D02*
X139358498Y-94412000D01*
X137250000Y-96862500D02*
X137250000Y-96520498D01*
X143093123Y-97249524D02*
X143924535Y-97249524D01*
X145698989Y-97574989D02*
X145712000Y-97588000D01*
X144250000Y-97574989D02*
X145698989Y-97574989D01*
X143924535Y-97249524D02*
X144250000Y-97574989D01*
X145712000Y-97588000D02*
X145712000Y-96952000D01*
%TO.N,/5V*%
X126572500Y-99830000D02*
X129540000Y-96862500D01*
X124460000Y-99830000D02*
X126572500Y-99830000D01*
X129540000Y-96862500D02*
X131750000Y-96862500D01*
X134727500Y-96862500D02*
X134890000Y-97025000D01*
X131750000Y-96862500D02*
X134727500Y-96862500D01*
X142932000Y-96318000D02*
X145712000Y-96318000D01*
X142368123Y-96881877D02*
X142932000Y-96318000D01*
X142368123Y-98868123D02*
X142368123Y-96881877D01*
X140603058Y-100633190D02*
X142368123Y-98868123D01*
X139500000Y-100633190D02*
X140603058Y-100633190D01*
X135891811Y-97025000D02*
X139500000Y-100633190D01*
X134890000Y-97025000D02*
X135891811Y-97025000D01*
%TO.N,/D+*%
X122385000Y-94750000D02*
X122135000Y-95000000D01*
X122135000Y-95000000D02*
X114750000Y-95000000D01*
%TO.N,/D-*%
X122095000Y-97000000D02*
X114750000Y-97000000D01*
X122385000Y-97290000D02*
X122095000Y-97000000D01*
%TO.N,Net-(IC0-Pad4)*%
X141548000Y-95048000D02*
X140288000Y-95048000D01*
X142044142Y-95544142D02*
X141548000Y-95048000D01*
X139772688Y-99908190D02*
X140000000Y-99908190D01*
X138772669Y-99246544D02*
X138772669Y-97977331D01*
X139434315Y-99908190D02*
X138772669Y-99246544D01*
X140000000Y-99908190D02*
X139434315Y-99908190D01*
%TO.N,Net-(IC0-Pad11)*%
X144358000Y-98858000D02*
X145712000Y-98858000D01*
X144250000Y-98750000D02*
X144358000Y-98858000D01*
%TO.N,Net-(IC0-Pad12)*%
X144795002Y-98222000D02*
X145712000Y-98222000D01*
X144598001Y-98024999D02*
X144795002Y-98222000D01*
X143901999Y-98024999D02*
X144598001Y-98024999D01*
X143676998Y-98250000D02*
X143901999Y-98024999D01*
X143472649Y-98250000D02*
X143676998Y-98250000D01*
X143417948Y-98195299D02*
X143472649Y-98250000D01*
%TO.N,Net-(IC0-Pad20)*%
X144108000Y-93142000D02*
X145712000Y-93142000D01*
X142750000Y-94500000D02*
X144108000Y-93142000D01*
X147108000Y-93142000D02*
X149000000Y-91250000D01*
X145712000Y-93142000D02*
X147108000Y-93142000D01*
%TO.N,Net-(IC1-Pad5)*%
X152110000Y-93000000D02*
X152500000Y-93000000D01*
X150380000Y-94730000D02*
X152110000Y-93000000D01*
%TO.N,Net-(IC1-Pad6)*%
X152325000Y-95000000D02*
X152500000Y-95000000D01*
X151525000Y-95800000D02*
X152325000Y-95000000D01*
X149450000Y-95800000D02*
X151525000Y-95800000D01*
X148380000Y-94730000D02*
X149450000Y-95800000D01*
%TO.N,Net-(LED0-Pad1)*%
X132125000Y-92210000D02*
X124460000Y-92210000D01*
X134890000Y-94975000D02*
X132125000Y-92210000D01*
%TO.N,Net-(IC1-Pad7)*%
X152230000Y-97270000D02*
X152500000Y-97000000D01*
X150380000Y-97270000D02*
X152230000Y-97270000D01*
%TO.N,Net-(IC1-Pad8)*%
X150110000Y-99000000D02*
X152500000Y-99000000D01*
X148380000Y-97270000D02*
X150110000Y-99000000D01*
%TD*%
D23*
%TO.N,/SHIELD*%
G36*
X118228928Y-89485085D02*
G01*
X117900806Y-89668467D01*
X117614552Y-89912088D01*
X117381069Y-90206670D01*
X117209250Y-90540992D01*
X117105641Y-90902320D01*
X117074188Y-91276891D01*
X117116088Y-91650438D01*
X117229745Y-92008732D01*
X117410831Y-92338126D01*
X117652448Y-92626074D01*
X117945393Y-92861608D01*
X118278508Y-93035756D01*
X118639104Y-93141885D01*
X119013446Y-93175953D01*
X119387276Y-93136662D01*
X119746355Y-93025508D01*
X120077006Y-92846726D01*
X120366633Y-92607125D01*
X120604206Y-92315832D01*
X120780676Y-91983942D01*
X120889320Y-91624095D01*
X120926000Y-91250000D01*
X120925249Y-91196223D01*
X120878138Y-90823298D01*
X120759489Y-90466625D01*
X120573821Y-90139791D01*
X120328207Y-89855245D01*
X120032002Y-89623824D01*
X119696489Y-89454344D01*
X119523340Y-89406000D01*
X156644521Y-89406000D01*
X156642157Y-89430000D01*
X156642157Y-90780000D01*
X156649513Y-90854689D01*
X156671299Y-90926508D01*
X156706678Y-90992696D01*
X156754289Y-91050711D01*
X156812304Y-91098322D01*
X156878492Y-91133701D01*
X156950311Y-91155487D01*
X157025000Y-91162843D01*
X159844001Y-91162843D01*
X159844000Y-100837157D01*
X157025000Y-100837157D01*
X156950311Y-100844513D01*
X156878492Y-100866299D01*
X156812304Y-100901678D01*
X156754289Y-100949289D01*
X156706678Y-101007304D01*
X156671299Y-101073492D01*
X156649513Y-101145311D01*
X156642157Y-101220000D01*
X156642157Y-102570000D01*
X156644521Y-102594000D01*
X137525094Y-102594000D01*
X137746355Y-102525508D01*
X138077006Y-102346726D01*
X138366633Y-102107125D01*
X138604206Y-101815832D01*
X138780676Y-101483942D01*
X138889320Y-101124095D01*
X138923787Y-100772569D01*
X139124628Y-100973410D01*
X139140473Y-100992717D01*
X139217521Y-101055949D01*
X139305425Y-101102935D01*
X139400807Y-101131868D01*
X139500000Y-101141638D01*
X139524854Y-101139190D01*
X140578212Y-101139190D01*
X140603058Y-101141637D01*
X140627904Y-101139190D01*
X140627912Y-101139190D01*
X140702251Y-101131868D01*
X140797633Y-101102935D01*
X140885537Y-101055949D01*
X140962585Y-100992717D01*
X140978434Y-100973405D01*
X141362478Y-100589360D01*
X147369000Y-100589360D01*
X147369000Y-100910640D01*
X147431678Y-101225745D01*
X147554626Y-101522568D01*
X147733119Y-101789702D01*
X147960298Y-102016881D01*
X148227432Y-102195374D01*
X148524255Y-102318322D01*
X148839360Y-102381000D01*
X149160640Y-102381000D01*
X149475745Y-102318322D01*
X149772568Y-102195374D01*
X150039702Y-102016881D01*
X150266881Y-101789702D01*
X150445374Y-101522568D01*
X150568322Y-101225745D01*
X150631000Y-100910640D01*
X150631000Y-100589360D01*
X150568322Y-100274255D01*
X150445374Y-99977432D01*
X150266881Y-99710298D01*
X150060118Y-99503535D01*
X150085146Y-99506000D01*
X150085153Y-99506000D01*
X150109999Y-99508447D01*
X150134845Y-99506000D01*
X151392157Y-99506000D01*
X151392157Y-99550000D01*
X151399513Y-99624689D01*
X151421299Y-99696508D01*
X151456678Y-99762696D01*
X151504289Y-99820711D01*
X151562304Y-99868322D01*
X151628492Y-99903701D01*
X151700311Y-99925487D01*
X151775000Y-99932843D01*
X153225000Y-99932843D01*
X153299689Y-99925487D01*
X153371508Y-99903701D01*
X153437696Y-99868322D01*
X153495711Y-99820711D01*
X153543322Y-99762696D01*
X153578701Y-99696508D01*
X153600487Y-99624689D01*
X153607843Y-99550000D01*
X153607843Y-98450000D01*
X153600487Y-98375311D01*
X153578701Y-98303492D01*
X153543322Y-98237304D01*
X153495711Y-98179289D01*
X153437696Y-98131678D01*
X153371508Y-98096299D01*
X153299689Y-98074513D01*
X153225000Y-98067157D01*
X151775000Y-98067157D01*
X151700311Y-98074513D01*
X151628492Y-98096299D01*
X151562304Y-98131678D01*
X151504289Y-98179289D01*
X151456678Y-98237304D01*
X151421299Y-98303492D01*
X151399513Y-98375311D01*
X151392157Y-98450000D01*
X151392157Y-98494000D01*
X150319592Y-98494000D01*
X149161000Y-97335409D01*
X149161000Y-97193078D01*
X149130987Y-97042191D01*
X149072113Y-96900058D01*
X148986642Y-96772141D01*
X148877859Y-96663358D01*
X148749942Y-96577887D01*
X148607809Y-96519013D01*
X148456922Y-96489000D01*
X148303078Y-96489000D01*
X148152191Y-96519013D01*
X148010058Y-96577887D01*
X147882141Y-96663358D01*
X147773358Y-96772141D01*
X147687887Y-96900058D01*
X147629013Y-97042191D01*
X147599000Y-97193078D01*
X147599000Y-97346922D01*
X147629013Y-97497809D01*
X147687887Y-97639942D01*
X147773358Y-97767859D01*
X147882141Y-97876642D01*
X148010058Y-97962113D01*
X148152191Y-98020987D01*
X148303078Y-98051000D01*
X148445409Y-98051000D01*
X149647038Y-99252630D01*
X149475745Y-99181678D01*
X149160640Y-99119000D01*
X148839360Y-99119000D01*
X148524255Y-99181678D01*
X148227432Y-99304626D01*
X147960298Y-99483119D01*
X147733119Y-99710298D01*
X147554626Y-99977432D01*
X147431678Y-100274255D01*
X147369000Y-100589360D01*
X141362478Y-100589360D01*
X142708343Y-99243495D01*
X142727650Y-99227650D01*
X142790882Y-99150602D01*
X142837868Y-99062698D01*
X142866801Y-98967316D01*
X142874123Y-98892977D01*
X142874123Y-98892969D01*
X142876570Y-98868123D01*
X142874123Y-98843277D01*
X142874123Y-98755975D01*
X142920089Y-98801941D01*
X143048006Y-98887412D01*
X143190139Y-98946286D01*
X143341026Y-98976299D01*
X143494870Y-98976299D01*
X143498566Y-98975564D01*
X143499013Y-98977809D01*
X143557887Y-99119942D01*
X143643358Y-99247859D01*
X143752141Y-99356642D01*
X143880058Y-99442113D01*
X144022191Y-99500987D01*
X144173078Y-99531000D01*
X144326922Y-99531000D01*
X144477809Y-99500987D01*
X144619942Y-99442113D01*
X144716517Y-99377584D01*
X144736304Y-99393822D01*
X144802492Y-99429201D01*
X144874311Y-99450987D01*
X144949000Y-99458343D01*
X146475000Y-99458343D01*
X146549689Y-99450987D01*
X146621508Y-99429201D01*
X146687696Y-99393822D01*
X146745711Y-99346211D01*
X146793322Y-99288196D01*
X146828701Y-99222008D01*
X146850487Y-99150189D01*
X146857843Y-99075500D01*
X146857843Y-98640500D01*
X146850487Y-98565811D01*
X146842657Y-98540000D01*
X146850487Y-98514189D01*
X146857843Y-98439500D01*
X146857843Y-98004500D01*
X146850487Y-97929811D01*
X146842961Y-97905000D01*
X146850487Y-97880189D01*
X146857843Y-97805500D01*
X146857843Y-97370500D01*
X146850487Y-97295811D01*
X146842657Y-97270000D01*
X146850487Y-97244189D01*
X146857843Y-97169500D01*
X146857843Y-96734500D01*
X146850487Y-96659811D01*
X146842961Y-96635000D01*
X146850487Y-96610189D01*
X146857843Y-96535500D01*
X146857843Y-96100500D01*
X146850487Y-96025811D01*
X146842657Y-96000000D01*
X146850487Y-95974189D01*
X146857843Y-95899500D01*
X146857843Y-95464500D01*
X146850487Y-95389811D01*
X146842961Y-95365000D01*
X146850487Y-95340189D01*
X146857843Y-95265500D01*
X146857843Y-94830500D01*
X146850487Y-94755811D01*
X146842657Y-94730000D01*
X146850487Y-94704189D01*
X146855520Y-94653078D01*
X147599000Y-94653078D01*
X147599000Y-94806922D01*
X147629013Y-94957809D01*
X147687887Y-95099942D01*
X147773358Y-95227859D01*
X147882141Y-95336642D01*
X148010058Y-95422113D01*
X148152191Y-95480987D01*
X148303078Y-95511000D01*
X148445409Y-95511000D01*
X149074628Y-96140220D01*
X149090473Y-96159527D01*
X149167521Y-96222759D01*
X149255425Y-96269745D01*
X149350807Y-96298678D01*
X149450000Y-96308448D01*
X149474854Y-96306000D01*
X151420538Y-96306000D01*
X151399513Y-96375311D01*
X151392157Y-96450000D01*
X151392157Y-96764000D01*
X150978501Y-96764000D01*
X150877859Y-96663358D01*
X150749942Y-96577887D01*
X150607809Y-96519013D01*
X150456922Y-96489000D01*
X150303078Y-96489000D01*
X150152191Y-96519013D01*
X150010058Y-96577887D01*
X149882141Y-96663358D01*
X149773358Y-96772141D01*
X149687887Y-96900058D01*
X149629013Y-97042191D01*
X149599000Y-97193078D01*
X149599000Y-97346922D01*
X149629013Y-97497809D01*
X149687887Y-97639942D01*
X149773358Y-97767859D01*
X149882141Y-97876642D01*
X150010058Y-97962113D01*
X150152191Y-98020987D01*
X150303078Y-98051000D01*
X150456922Y-98051000D01*
X150607809Y-98020987D01*
X150749942Y-97962113D01*
X150877859Y-97876642D01*
X150978501Y-97776000D01*
X151467596Y-97776000D01*
X151504289Y-97820711D01*
X151562304Y-97868322D01*
X151628492Y-97903701D01*
X151700311Y-97925487D01*
X151775000Y-97932843D01*
X153225000Y-97932843D01*
X153299689Y-97925487D01*
X153371508Y-97903701D01*
X153437696Y-97868322D01*
X153495711Y-97820711D01*
X153543322Y-97762696D01*
X153578701Y-97696508D01*
X153600487Y-97624689D01*
X153607843Y-97550000D01*
X153607843Y-96450000D01*
X153600487Y-96375311D01*
X153578701Y-96303492D01*
X153543322Y-96237304D01*
X153495711Y-96179289D01*
X153437696Y-96131678D01*
X153371508Y-96096299D01*
X153299689Y-96074513D01*
X153225000Y-96067157D01*
X151973434Y-96067157D01*
X152107748Y-95932843D01*
X153225000Y-95932843D01*
X153299689Y-95925487D01*
X153371508Y-95903701D01*
X153437696Y-95868322D01*
X153495711Y-95820711D01*
X153543322Y-95762696D01*
X153578701Y-95696508D01*
X153600487Y-95624689D01*
X153607843Y-95550000D01*
X153607843Y-94450000D01*
X153600487Y-94375311D01*
X153578701Y-94303492D01*
X153543322Y-94237304D01*
X153495711Y-94179289D01*
X153437696Y-94131678D01*
X153371508Y-94096299D01*
X153299689Y-94074513D01*
X153225000Y-94067157D01*
X151775000Y-94067157D01*
X151756625Y-94068967D01*
X151892749Y-93932843D01*
X153225000Y-93932843D01*
X153299689Y-93925487D01*
X153371508Y-93903701D01*
X153437696Y-93868322D01*
X153495711Y-93820711D01*
X153543322Y-93762696D01*
X153578701Y-93696508D01*
X153600487Y-93624689D01*
X153607843Y-93550000D01*
X153607843Y-92450000D01*
X153600487Y-92375311D01*
X153578701Y-92303492D01*
X153543322Y-92237304D01*
X153495711Y-92179289D01*
X153437696Y-92131678D01*
X153371508Y-92096299D01*
X153299689Y-92074513D01*
X153225000Y-92067157D01*
X151775000Y-92067157D01*
X151700311Y-92074513D01*
X151628492Y-92096299D01*
X151562304Y-92131678D01*
X151504289Y-92179289D01*
X151456678Y-92237304D01*
X151421299Y-92303492D01*
X151399513Y-92375311D01*
X151392157Y-92450000D01*
X151392157Y-93002251D01*
X150445409Y-93949000D01*
X150303078Y-93949000D01*
X150152191Y-93979013D01*
X150010058Y-94037887D01*
X149882141Y-94123358D01*
X149773358Y-94232141D01*
X149687887Y-94360058D01*
X149629013Y-94502191D01*
X149599000Y-94653078D01*
X149599000Y-94806922D01*
X149629013Y-94957809D01*
X149687887Y-95099942D01*
X149773358Y-95227859D01*
X149839499Y-95294000D01*
X149659592Y-95294000D01*
X149161000Y-94795409D01*
X149161000Y-94653078D01*
X149130987Y-94502191D01*
X149072113Y-94360058D01*
X148986642Y-94232141D01*
X148877859Y-94123358D01*
X148749942Y-94037887D01*
X148607809Y-93979013D01*
X148456922Y-93949000D01*
X148303078Y-93949000D01*
X148152191Y-93979013D01*
X148010058Y-94037887D01*
X147882141Y-94123358D01*
X147773358Y-94232141D01*
X147687887Y-94360058D01*
X147629013Y-94502191D01*
X147599000Y-94653078D01*
X146855520Y-94653078D01*
X146857843Y-94629500D01*
X146857843Y-94194500D01*
X146850487Y-94119811D01*
X146842961Y-94095000D01*
X146850487Y-94070189D01*
X146857843Y-93995500D01*
X146857843Y-93648000D01*
X147083154Y-93648000D01*
X147108000Y-93650447D01*
X147132846Y-93648000D01*
X147132854Y-93648000D01*
X147207193Y-93640678D01*
X147302575Y-93611745D01*
X147390479Y-93564759D01*
X147467527Y-93501527D01*
X147483376Y-93482215D01*
X148257686Y-92707906D01*
X148524255Y-92818322D01*
X148839360Y-92881000D01*
X149160640Y-92881000D01*
X149475745Y-92818322D01*
X149772568Y-92695374D01*
X150039702Y-92516881D01*
X150266881Y-92289702D01*
X150445374Y-92022568D01*
X150568322Y-91725745D01*
X150631000Y-91410640D01*
X150631000Y-91089360D01*
X150568322Y-90774255D01*
X150445374Y-90477432D01*
X150266881Y-90210298D01*
X150039702Y-89983119D01*
X149772568Y-89804626D01*
X149475745Y-89681678D01*
X149160640Y-89619000D01*
X148839360Y-89619000D01*
X148524255Y-89681678D01*
X148227432Y-89804626D01*
X147960298Y-89983119D01*
X147733119Y-90210298D01*
X147554626Y-90477432D01*
X147431678Y-90774255D01*
X147369000Y-91089360D01*
X147369000Y-91410640D01*
X147431678Y-91725745D01*
X147542094Y-91992314D01*
X146898409Y-92636000D01*
X146724035Y-92636000D01*
X146687696Y-92606178D01*
X146621508Y-92570799D01*
X146549689Y-92549013D01*
X146475000Y-92541657D01*
X144949000Y-92541657D01*
X144874311Y-92549013D01*
X144802492Y-92570799D01*
X144736304Y-92606178D01*
X144699965Y-92636000D01*
X144132845Y-92636000D01*
X144107999Y-92633553D01*
X144083153Y-92636000D01*
X144083146Y-92636000D01*
X144008807Y-92643322D01*
X143913425Y-92672255D01*
X143825521Y-92719241D01*
X143748473Y-92782473D01*
X143732629Y-92801779D01*
X142815409Y-93719000D01*
X142673078Y-93719000D01*
X142522191Y-93749013D01*
X142380058Y-93807887D01*
X142252141Y-93893358D01*
X142143358Y-94002141D01*
X142057887Y-94130058D01*
X141999013Y-94272191D01*
X141969000Y-94423078D01*
X141969000Y-94576922D01*
X141999013Y-94727809D01*
X142013649Y-94763142D01*
X141978733Y-94763142D01*
X141923376Y-94707785D01*
X141907527Y-94688473D01*
X141830479Y-94625241D01*
X141742575Y-94578255D01*
X141647193Y-94549322D01*
X141572854Y-94542000D01*
X141572846Y-94542000D01*
X141548000Y-94539553D01*
X141523154Y-94542000D01*
X141433843Y-94542000D01*
X141433843Y-94194500D01*
X141426487Y-94119811D01*
X141418961Y-94095000D01*
X141426487Y-94070189D01*
X141433843Y-93995500D01*
X141433843Y-93560500D01*
X141426487Y-93485811D01*
X141418657Y-93460000D01*
X141426487Y-93434189D01*
X141433843Y-93359500D01*
X141433843Y-92924500D01*
X141426487Y-92849811D01*
X141404701Y-92777992D01*
X141369322Y-92711804D01*
X141321711Y-92653789D01*
X141263696Y-92606178D01*
X141197508Y-92570799D01*
X141125689Y-92549013D01*
X141051000Y-92541657D01*
X139525000Y-92541657D01*
X139450311Y-92549013D01*
X139378492Y-92570799D01*
X139312304Y-92606178D01*
X139254289Y-92653789D01*
X139206678Y-92711804D01*
X139171299Y-92777992D01*
X139149513Y-92849811D01*
X139142157Y-92924500D01*
X139142157Y-93359500D01*
X139149513Y-93434189D01*
X139157343Y-93460000D01*
X139149513Y-93485811D01*
X139142157Y-93560500D01*
X139142157Y-93953889D01*
X139076019Y-93989241D01*
X138998971Y-94052473D01*
X138983126Y-94071780D01*
X138107843Y-94947063D01*
X138107843Y-94837500D01*
X138095923Y-94716477D01*
X138060622Y-94600105D01*
X138003296Y-94492856D01*
X137926149Y-94398851D01*
X137832144Y-94321704D01*
X137724895Y-94264378D01*
X137608523Y-94229077D01*
X137487500Y-94217157D01*
X137012500Y-94217157D01*
X136891477Y-94229077D01*
X136775105Y-94264378D01*
X136667856Y-94321704D01*
X136573851Y-94398851D01*
X136496704Y-94492856D01*
X136439378Y-94600105D01*
X136404077Y-94716477D01*
X136392157Y-94837500D01*
X136392157Y-95279752D01*
X136302899Y-95369010D01*
X135966046Y-95369010D01*
X135972843Y-95300001D01*
X135972843Y-94649999D01*
X135960683Y-94526538D01*
X135924671Y-94407821D01*
X135866190Y-94298411D01*
X135787488Y-94202512D01*
X135691589Y-94123810D01*
X135582179Y-94065329D01*
X135463462Y-94029317D01*
X135340001Y-94017157D01*
X134647749Y-94017157D01*
X132500376Y-91869785D01*
X132484527Y-91850473D01*
X132407479Y-91787241D01*
X132319575Y-91740255D01*
X132224193Y-91711322D01*
X132149854Y-91704000D01*
X132149846Y-91704000D01*
X132125000Y-91701553D01*
X132100154Y-91704000D01*
X125437328Y-91704000D01*
X125430683Y-91636538D01*
X125394671Y-91517821D01*
X125336190Y-91408411D01*
X125257488Y-91312512D01*
X125161589Y-91233810D01*
X125052179Y-91175329D01*
X124933462Y-91139317D01*
X124810001Y-91127157D01*
X124109999Y-91127157D01*
X123986538Y-91139317D01*
X123867821Y-91175329D01*
X123758411Y-91233810D01*
X123662512Y-91312512D01*
X123583810Y-91408411D01*
X123525329Y-91517821D01*
X123489317Y-91636538D01*
X123477157Y-91759999D01*
X123477157Y-92511566D01*
X123442843Y-92477252D01*
X123442843Y-91759999D01*
X123430683Y-91636538D01*
X123394671Y-91517821D01*
X123336190Y-91408411D01*
X123257488Y-91312512D01*
X123161589Y-91233810D01*
X123052179Y-91175329D01*
X122933462Y-91139317D01*
X122810001Y-91127157D01*
X122109999Y-91127157D01*
X121986538Y-91139317D01*
X121867821Y-91175329D01*
X121758411Y-91233810D01*
X121662512Y-91312512D01*
X121583810Y-91408411D01*
X121525329Y-91517821D01*
X121489317Y-91636538D01*
X121482354Y-91707230D01*
X121440807Y-91711322D01*
X121345425Y-91740255D01*
X121257521Y-91787241D01*
X121180473Y-91850473D01*
X121164628Y-91869780D01*
X119040409Y-93994000D01*
X116959592Y-93994000D01*
X115834406Y-92868815D01*
X115849075Y-92833401D01*
X115893000Y-92612576D01*
X115893000Y-92387424D01*
X115849075Y-92166599D01*
X115762913Y-91958587D01*
X115637826Y-91771380D01*
X115478620Y-91612174D01*
X115291413Y-91487087D01*
X115083401Y-91400925D01*
X114862576Y-91357000D01*
X114693275Y-91357000D01*
X114869729Y-91241006D01*
X115065632Y-91048026D01*
X115220122Y-90820535D01*
X115327262Y-90567276D01*
X115342220Y-90493070D01*
X115219720Y-90277000D01*
X112777000Y-90277000D01*
X112777000Y-91547000D01*
X114115000Y-91547000D01*
X114120491Y-91545951D01*
X114021380Y-91612174D01*
X113862174Y-91771380D01*
X113737087Y-91958587D01*
X113650925Y-92166599D01*
X113607000Y-92387424D01*
X113607000Y-92612576D01*
X113634333Y-92749987D01*
X113552369Y-92668023D01*
X113435959Y-92784433D01*
X113368980Y-92544344D01*
X113119952Y-92427244D01*
X112852865Y-92360977D01*
X112577983Y-92348090D01*
X112305867Y-92389078D01*
X112046977Y-92482364D01*
X111931020Y-92544344D01*
X111864040Y-92784435D01*
X112650000Y-93570395D01*
X112664143Y-93556253D01*
X112843748Y-93735858D01*
X112829605Y-93750000D01*
X112843748Y-93764143D01*
X112664143Y-93943748D01*
X112650000Y-93929605D01*
X111864040Y-94715565D01*
X111931020Y-94955656D01*
X112180048Y-95072756D01*
X112447135Y-95139023D01*
X112722017Y-95151910D01*
X112994133Y-95110922D01*
X113253023Y-95017636D01*
X113368980Y-94955656D01*
X113435959Y-94715567D01*
X113552369Y-94831977D01*
X113634333Y-94750013D01*
X113607000Y-94887424D01*
X113607000Y-95112576D01*
X113650925Y-95333401D01*
X113737087Y-95541413D01*
X113862174Y-95728620D01*
X114021380Y-95887826D01*
X114189261Y-96000000D01*
X114021380Y-96112174D01*
X113862174Y-96271380D01*
X113737087Y-96458587D01*
X113650925Y-96666599D01*
X113607000Y-96887424D01*
X113607000Y-97112576D01*
X113634333Y-97249987D01*
X113552369Y-97168023D01*
X113435959Y-97284433D01*
X113368980Y-97044344D01*
X113119952Y-96927244D01*
X112852865Y-96860977D01*
X112577983Y-96848090D01*
X112305867Y-96889078D01*
X112046977Y-96982364D01*
X111931020Y-97044344D01*
X111864040Y-97284435D01*
X112650000Y-98070395D01*
X112664143Y-98056253D01*
X112843748Y-98235858D01*
X112829605Y-98250000D01*
X112843748Y-98264143D01*
X112664143Y-98443748D01*
X112650000Y-98429605D01*
X111864040Y-99215565D01*
X111931020Y-99455656D01*
X112180048Y-99572756D01*
X112447135Y-99639023D01*
X112722017Y-99651910D01*
X112994133Y-99610922D01*
X113253023Y-99517636D01*
X113368980Y-99455656D01*
X113435959Y-99215567D01*
X113552369Y-99331977D01*
X113634333Y-99250013D01*
X113607000Y-99387424D01*
X113607000Y-99612576D01*
X113650925Y-99833401D01*
X113737087Y-100041413D01*
X113862174Y-100228620D01*
X114021380Y-100387826D01*
X114120491Y-100454049D01*
X114115000Y-100453000D01*
X112777000Y-100453000D01*
X112777000Y-101723000D01*
X115219720Y-101723000D01*
X115342220Y-101506930D01*
X115327262Y-101432724D01*
X115220122Y-101179465D01*
X115065632Y-100951974D01*
X114869729Y-100758994D01*
X114693275Y-100643000D01*
X114862576Y-100643000D01*
X115083401Y-100599075D01*
X115291413Y-100512913D01*
X115478620Y-100387826D01*
X115637826Y-100228620D01*
X115762913Y-100041413D01*
X115849075Y-99833401D01*
X115893000Y-99612576D01*
X115893000Y-99387424D01*
X115849075Y-99166599D01*
X115834406Y-99131185D01*
X116959592Y-98006000D01*
X119040409Y-98006000D01*
X121204628Y-100170220D01*
X121220473Y-100189527D01*
X121297521Y-100252759D01*
X121372746Y-100292968D01*
X121385425Y-100299745D01*
X121456217Y-100321219D01*
X121464317Y-100403462D01*
X121500329Y-100522179D01*
X121558810Y-100631589D01*
X121637512Y-100727488D01*
X121733411Y-100806190D01*
X121842821Y-100864671D01*
X121961538Y-100900683D01*
X122084999Y-100912843D01*
X122735001Y-100912843D01*
X122858462Y-100900683D01*
X122977179Y-100864671D01*
X123086589Y-100806190D01*
X123182488Y-100727488D01*
X123261190Y-100631589D01*
X123319671Y-100522179D01*
X123355683Y-100403462D01*
X123367843Y-100280001D01*
X123367843Y-99379999D01*
X123355683Y-99256538D01*
X123319671Y-99137821D01*
X123261190Y-99028411D01*
X123182488Y-98932512D01*
X123086589Y-98853810D01*
X122977179Y-98795329D01*
X122858462Y-98759317D01*
X122735001Y-98747157D01*
X122084999Y-98747157D01*
X121961538Y-98759317D01*
X121842821Y-98795329D01*
X121733411Y-98853810D01*
X121637512Y-98932512D01*
X121558810Y-99028411D01*
X121536236Y-99070644D01*
X119971591Y-97506000D01*
X121414657Y-97506000D01*
X121414657Y-97765000D01*
X121426817Y-97888462D01*
X121462829Y-98007179D01*
X121521310Y-98116589D01*
X121600012Y-98212488D01*
X121695911Y-98291190D01*
X121805321Y-98349671D01*
X121924038Y-98385683D01*
X122047500Y-98397843D01*
X122722500Y-98397843D01*
X122845962Y-98385683D01*
X122964679Y-98349671D01*
X123074089Y-98291190D01*
X123169988Y-98212488D01*
X123248690Y-98116589D01*
X123307171Y-98007179D01*
X123343183Y-97888462D01*
X123355343Y-97765000D01*
X123355343Y-96815000D01*
X123343183Y-96691538D01*
X123307171Y-96572821D01*
X123248690Y-96463411D01*
X123169988Y-96367512D01*
X123074089Y-96288810D01*
X122964679Y-96230329D01*
X122845962Y-96194317D01*
X122722500Y-96182157D01*
X122047500Y-96182157D01*
X121924038Y-96194317D01*
X121805321Y-96230329D01*
X121695911Y-96288810D01*
X121600012Y-96367512D01*
X121521310Y-96463411D01*
X121504960Y-96494000D01*
X115777582Y-96494000D01*
X115762913Y-96458587D01*
X115637826Y-96271380D01*
X115478620Y-96112174D01*
X115310739Y-96000000D01*
X115478620Y-95887826D01*
X115637826Y-95728620D01*
X115762913Y-95541413D01*
X115777582Y-95506000D01*
X121483579Y-95506000D01*
X121521310Y-95576589D01*
X121600012Y-95672488D01*
X121695911Y-95751190D01*
X121805321Y-95809671D01*
X121924038Y-95845683D01*
X122047500Y-95857843D01*
X122722500Y-95857843D01*
X122845962Y-95845683D01*
X122964679Y-95809671D01*
X123074089Y-95751190D01*
X123169988Y-95672488D01*
X123248690Y-95576589D01*
X123307171Y-95467179D01*
X123343183Y-95348462D01*
X123355343Y-95225000D01*
X123355343Y-94275000D01*
X123343183Y-94151538D01*
X123307171Y-94032821D01*
X123248690Y-93923411D01*
X123169988Y-93827512D01*
X123074089Y-93748810D01*
X122964679Y-93690329D01*
X122845962Y-93654317D01*
X122722500Y-93642157D01*
X122047500Y-93642157D01*
X121924038Y-93654317D01*
X121805321Y-93690329D01*
X121695911Y-93748810D01*
X121600012Y-93827512D01*
X121521310Y-93923411D01*
X121462829Y-94032821D01*
X121426817Y-94151538D01*
X121414657Y-94275000D01*
X121414657Y-94494000D01*
X119971591Y-94494000D01*
X121538595Y-92926997D01*
X121583810Y-93011589D01*
X121662512Y-93107488D01*
X121758411Y-93186190D01*
X121867821Y-93244671D01*
X121986538Y-93280683D01*
X122109999Y-93292843D01*
X122810001Y-93292843D01*
X122825705Y-93291296D01*
X123548070Y-94013662D01*
X123537829Y-94032821D01*
X123501817Y-94151538D01*
X123489657Y-94275000D01*
X123489657Y-95225000D01*
X123501817Y-95348462D01*
X123537829Y-95467179D01*
X123596310Y-95576589D01*
X123675012Y-95672488D01*
X123770911Y-95751190D01*
X123880321Y-95809671D01*
X123954000Y-95832021D01*
X123954001Y-96207979D01*
X123880321Y-96230329D01*
X123770911Y-96288810D01*
X123675012Y-96367512D01*
X123596310Y-96463411D01*
X123537829Y-96572821D01*
X123501817Y-96691538D01*
X123489657Y-96815000D01*
X123489657Y-97765000D01*
X123501817Y-97888462D01*
X123537829Y-98007179D01*
X123596310Y-98116589D01*
X123675012Y-98212488D01*
X123770911Y-98291190D01*
X123880321Y-98349671D01*
X123999038Y-98385683D01*
X124122500Y-98397843D01*
X124797500Y-98397843D01*
X124920962Y-98385683D01*
X125039679Y-98349671D01*
X125149089Y-98291190D01*
X125244988Y-98212488D01*
X125323690Y-98116589D01*
X125382171Y-98007179D01*
X125418183Y-97888462D01*
X125430343Y-97765000D01*
X125430343Y-96815000D01*
X125418183Y-96691538D01*
X125382171Y-96572821D01*
X125323690Y-96463411D01*
X125244988Y-96367512D01*
X125149089Y-96288810D01*
X125039679Y-96230329D01*
X124966000Y-96207979D01*
X124966000Y-95832021D01*
X125039679Y-95809671D01*
X125149089Y-95751190D01*
X125244988Y-95672488D01*
X125323690Y-95576589D01*
X125382171Y-95467179D01*
X125418183Y-95348462D01*
X125427290Y-95256000D01*
X128682157Y-95256000D01*
X128682157Y-95437500D01*
X128694077Y-95558523D01*
X128729378Y-95674895D01*
X128786704Y-95782144D01*
X128863851Y-95876149D01*
X128957856Y-95953296D01*
X129045233Y-96000000D01*
X128957856Y-96046704D01*
X128863851Y-96123851D01*
X128786704Y-96217856D01*
X128729378Y-96325105D01*
X128694077Y-96441477D01*
X128682157Y-96562500D01*
X128682157Y-97004751D01*
X126362909Y-99324000D01*
X125412328Y-99324000D01*
X125405683Y-99256538D01*
X125369671Y-99137821D01*
X125311190Y-99028411D01*
X125232488Y-98932512D01*
X125136589Y-98853810D01*
X125027179Y-98795329D01*
X124908462Y-98759317D01*
X124785001Y-98747157D01*
X124134999Y-98747157D01*
X124011538Y-98759317D01*
X123892821Y-98795329D01*
X123783411Y-98853810D01*
X123687512Y-98932512D01*
X123608810Y-99028411D01*
X123550329Y-99137821D01*
X123514317Y-99256538D01*
X123502157Y-99379999D01*
X123502157Y-100280001D01*
X123514317Y-100403462D01*
X123550329Y-100522179D01*
X123608810Y-100631589D01*
X123687512Y-100727488D01*
X123783411Y-100806190D01*
X123892821Y-100864671D01*
X124011538Y-100900683D01*
X124134999Y-100912843D01*
X124785001Y-100912843D01*
X124908462Y-100900683D01*
X125027179Y-100864671D01*
X125136589Y-100806190D01*
X125232488Y-100727488D01*
X125311190Y-100631589D01*
X125369671Y-100522179D01*
X125405683Y-100403462D01*
X125412328Y-100336000D01*
X126547654Y-100336000D01*
X126572500Y-100338447D01*
X126597346Y-100336000D01*
X126597354Y-100336000D01*
X126671693Y-100328678D01*
X126767075Y-100299745D01*
X126854979Y-100252759D01*
X126932027Y-100189527D01*
X126947876Y-100170215D01*
X129335249Y-97782843D01*
X129777500Y-97782843D01*
X129898523Y-97770923D01*
X130014895Y-97735622D01*
X130122144Y-97678296D01*
X130216149Y-97601149D01*
X130293296Y-97507144D01*
X130350622Y-97399895D01*
X130360146Y-97368500D01*
X130929854Y-97368500D01*
X130939378Y-97399895D01*
X130996704Y-97507144D01*
X131073851Y-97601149D01*
X131167856Y-97678296D01*
X131275105Y-97735622D01*
X131391477Y-97770923D01*
X131512500Y-97782843D01*
X131987500Y-97782843D01*
X132108523Y-97770923D01*
X132224895Y-97735622D01*
X132332144Y-97678296D01*
X132426149Y-97601149D01*
X132503296Y-97507144D01*
X132560622Y-97399895D01*
X132570146Y-97368500D01*
X133808979Y-97368500D01*
X133819317Y-97473462D01*
X133855329Y-97592179D01*
X133913810Y-97701589D01*
X133992512Y-97797488D01*
X134088411Y-97876190D01*
X134197821Y-97934671D01*
X134316538Y-97970683D01*
X134439999Y-97982843D01*
X135340001Y-97982843D01*
X135463462Y-97970683D01*
X135582179Y-97934671D01*
X135691589Y-97876190D01*
X135787488Y-97797488D01*
X135860158Y-97708939D01*
X136976973Y-98825754D01*
X136959665Y-98824422D01*
X136586420Y-98868929D01*
X136228928Y-98985085D01*
X135900806Y-99168467D01*
X135614552Y-99412088D01*
X135381069Y-99706670D01*
X135209250Y-100040992D01*
X135105641Y-100402320D01*
X135074188Y-100776891D01*
X135116088Y-101150438D01*
X135229745Y-101508732D01*
X135410831Y-101838126D01*
X135652448Y-102126074D01*
X135945393Y-102361608D01*
X136278508Y-102535756D01*
X136476404Y-102594000D01*
X119525094Y-102594000D01*
X119746355Y-102525508D01*
X120077006Y-102346726D01*
X120366633Y-102107125D01*
X120604206Y-101815832D01*
X120780676Y-101483942D01*
X120889320Y-101124095D01*
X120926000Y-100750000D01*
X120925249Y-100696223D01*
X120878138Y-100323298D01*
X120759489Y-99966625D01*
X120573821Y-99639791D01*
X120328207Y-99355245D01*
X120032002Y-99123824D01*
X119696489Y-98954344D01*
X119334446Y-98853260D01*
X118959665Y-98824422D01*
X118586420Y-98868929D01*
X118228928Y-98985085D01*
X117900806Y-99168467D01*
X117614552Y-99412088D01*
X117381069Y-99706670D01*
X117209250Y-100040992D01*
X117105641Y-100402320D01*
X117074188Y-100776891D01*
X117116088Y-101150438D01*
X117229745Y-101508732D01*
X117410831Y-101838126D01*
X117652448Y-102126074D01*
X117945393Y-102361608D01*
X118278508Y-102535756D01*
X118476404Y-102594000D01*
X115170232Y-102594000D01*
X115220122Y-102520535D01*
X115327262Y-102267276D01*
X115342220Y-102193070D01*
X115219720Y-101977000D01*
X112777000Y-101977000D01*
X112777000Y-101997000D01*
X112523000Y-101997000D01*
X112523000Y-101977000D01*
X112503000Y-101977000D01*
X112503000Y-101723000D01*
X112523000Y-101723000D01*
X112523000Y-100453000D01*
X111185000Y-100453000D01*
X110914899Y-100504619D01*
X110660058Y-100607941D01*
X110430271Y-100758994D01*
X110234368Y-100951974D01*
X110156000Y-101067373D01*
X110156000Y-98322017D01*
X111248090Y-98322017D01*
X111289078Y-98594133D01*
X111382364Y-98853023D01*
X111444344Y-98968980D01*
X111684435Y-99035960D01*
X112470395Y-98250000D01*
X111684435Y-97464040D01*
X111444344Y-97531020D01*
X111327244Y-97780048D01*
X111260977Y-98047135D01*
X111248090Y-98322017D01*
X110156000Y-98322017D01*
X110156000Y-93822017D01*
X111248090Y-93822017D01*
X111289078Y-94094133D01*
X111382364Y-94353023D01*
X111444344Y-94468980D01*
X111684435Y-94535960D01*
X112470395Y-93750000D01*
X111684435Y-92964040D01*
X111444344Y-93031020D01*
X111327244Y-93280048D01*
X111260977Y-93547135D01*
X111248090Y-93822017D01*
X110156000Y-93822017D01*
X110156000Y-90932627D01*
X110234368Y-91048026D01*
X110430271Y-91241006D01*
X110660058Y-91392059D01*
X110914899Y-91495381D01*
X111185000Y-91547000D01*
X112523000Y-91547000D01*
X112523000Y-90277000D01*
X112503000Y-90277000D01*
X112503000Y-90023000D01*
X112523000Y-90023000D01*
X112523000Y-90003000D01*
X112777000Y-90003000D01*
X112777000Y-90023000D01*
X115219720Y-90023000D01*
X115342220Y-89806930D01*
X115327262Y-89732724D01*
X115220122Y-89479465D01*
X115170232Y-89406000D01*
X118472327Y-89406000D01*
X118228928Y-89485085D01*
X118228928Y-89485085D01*
G37*
X118228928Y-89485085D02*
X117900806Y-89668467D01*
X117614552Y-89912088D01*
X117381069Y-90206670D01*
X117209250Y-90540992D01*
X117105641Y-90902320D01*
X117074188Y-91276891D01*
X117116088Y-91650438D01*
X117229745Y-92008732D01*
X117410831Y-92338126D01*
X117652448Y-92626074D01*
X117945393Y-92861608D01*
X118278508Y-93035756D01*
X118639104Y-93141885D01*
X119013446Y-93175953D01*
X119387276Y-93136662D01*
X119746355Y-93025508D01*
X120077006Y-92846726D01*
X120366633Y-92607125D01*
X120604206Y-92315832D01*
X120780676Y-91983942D01*
X120889320Y-91624095D01*
X120926000Y-91250000D01*
X120925249Y-91196223D01*
X120878138Y-90823298D01*
X120759489Y-90466625D01*
X120573821Y-90139791D01*
X120328207Y-89855245D01*
X120032002Y-89623824D01*
X119696489Y-89454344D01*
X119523340Y-89406000D01*
X156644521Y-89406000D01*
X156642157Y-89430000D01*
X156642157Y-90780000D01*
X156649513Y-90854689D01*
X156671299Y-90926508D01*
X156706678Y-90992696D01*
X156754289Y-91050711D01*
X156812304Y-91098322D01*
X156878492Y-91133701D01*
X156950311Y-91155487D01*
X157025000Y-91162843D01*
X159844001Y-91162843D01*
X159844000Y-100837157D01*
X157025000Y-100837157D01*
X156950311Y-100844513D01*
X156878492Y-100866299D01*
X156812304Y-100901678D01*
X156754289Y-100949289D01*
X156706678Y-101007304D01*
X156671299Y-101073492D01*
X156649513Y-101145311D01*
X156642157Y-101220000D01*
X156642157Y-102570000D01*
X156644521Y-102594000D01*
X137525094Y-102594000D01*
X137746355Y-102525508D01*
X138077006Y-102346726D01*
X138366633Y-102107125D01*
X138604206Y-101815832D01*
X138780676Y-101483942D01*
X138889320Y-101124095D01*
X138923787Y-100772569D01*
X139124628Y-100973410D01*
X139140473Y-100992717D01*
X139217521Y-101055949D01*
X139305425Y-101102935D01*
X139400807Y-101131868D01*
X139500000Y-101141638D01*
X139524854Y-101139190D01*
X140578212Y-101139190D01*
X140603058Y-101141637D01*
X140627904Y-101139190D01*
X140627912Y-101139190D01*
X140702251Y-101131868D01*
X140797633Y-101102935D01*
X140885537Y-101055949D01*
X140962585Y-100992717D01*
X140978434Y-100973405D01*
X141362478Y-100589360D01*
X147369000Y-100589360D01*
X147369000Y-100910640D01*
X147431678Y-101225745D01*
X147554626Y-101522568D01*
X147733119Y-101789702D01*
X147960298Y-102016881D01*
X148227432Y-102195374D01*
X148524255Y-102318322D01*
X148839360Y-102381000D01*
X149160640Y-102381000D01*
X149475745Y-102318322D01*
X149772568Y-102195374D01*
X150039702Y-102016881D01*
X150266881Y-101789702D01*
X150445374Y-101522568D01*
X150568322Y-101225745D01*
X150631000Y-100910640D01*
X150631000Y-100589360D01*
X150568322Y-100274255D01*
X150445374Y-99977432D01*
X150266881Y-99710298D01*
X150060118Y-99503535D01*
X150085146Y-99506000D01*
X150085153Y-99506000D01*
X150109999Y-99508447D01*
X150134845Y-99506000D01*
X151392157Y-99506000D01*
X151392157Y-99550000D01*
X151399513Y-99624689D01*
X151421299Y-99696508D01*
X151456678Y-99762696D01*
X151504289Y-99820711D01*
X151562304Y-99868322D01*
X151628492Y-99903701D01*
X151700311Y-99925487D01*
X151775000Y-99932843D01*
X153225000Y-99932843D01*
X153299689Y-99925487D01*
X153371508Y-99903701D01*
X153437696Y-99868322D01*
X153495711Y-99820711D01*
X153543322Y-99762696D01*
X153578701Y-99696508D01*
X153600487Y-99624689D01*
X153607843Y-99550000D01*
X153607843Y-98450000D01*
X153600487Y-98375311D01*
X153578701Y-98303492D01*
X153543322Y-98237304D01*
X153495711Y-98179289D01*
X153437696Y-98131678D01*
X153371508Y-98096299D01*
X153299689Y-98074513D01*
X153225000Y-98067157D01*
X151775000Y-98067157D01*
X151700311Y-98074513D01*
X151628492Y-98096299D01*
X151562304Y-98131678D01*
X151504289Y-98179289D01*
X151456678Y-98237304D01*
X151421299Y-98303492D01*
X151399513Y-98375311D01*
X151392157Y-98450000D01*
X151392157Y-98494000D01*
X150319592Y-98494000D01*
X149161000Y-97335409D01*
X149161000Y-97193078D01*
X149130987Y-97042191D01*
X149072113Y-96900058D01*
X148986642Y-96772141D01*
X148877859Y-96663358D01*
X148749942Y-96577887D01*
X148607809Y-96519013D01*
X148456922Y-96489000D01*
X148303078Y-96489000D01*
X148152191Y-96519013D01*
X148010058Y-96577887D01*
X147882141Y-96663358D01*
X147773358Y-96772141D01*
X147687887Y-96900058D01*
X147629013Y-97042191D01*
X147599000Y-97193078D01*
X147599000Y-97346922D01*
X147629013Y-97497809D01*
X147687887Y-97639942D01*
X147773358Y-97767859D01*
X147882141Y-97876642D01*
X148010058Y-97962113D01*
X148152191Y-98020987D01*
X148303078Y-98051000D01*
X148445409Y-98051000D01*
X149647038Y-99252630D01*
X149475745Y-99181678D01*
X149160640Y-99119000D01*
X148839360Y-99119000D01*
X148524255Y-99181678D01*
X148227432Y-99304626D01*
X147960298Y-99483119D01*
X147733119Y-99710298D01*
X147554626Y-99977432D01*
X147431678Y-100274255D01*
X147369000Y-100589360D01*
X141362478Y-100589360D01*
X142708343Y-99243495D01*
X142727650Y-99227650D01*
X142790882Y-99150602D01*
X142837868Y-99062698D01*
X142866801Y-98967316D01*
X142874123Y-98892977D01*
X142874123Y-98892969D01*
X142876570Y-98868123D01*
X142874123Y-98843277D01*
X142874123Y-98755975D01*
X142920089Y-98801941D01*
X143048006Y-98887412D01*
X143190139Y-98946286D01*
X143341026Y-98976299D01*
X143494870Y-98976299D01*
X143498566Y-98975564D01*
X143499013Y-98977809D01*
X143557887Y-99119942D01*
X143643358Y-99247859D01*
X143752141Y-99356642D01*
X143880058Y-99442113D01*
X144022191Y-99500987D01*
X144173078Y-99531000D01*
X144326922Y-99531000D01*
X144477809Y-99500987D01*
X144619942Y-99442113D01*
X144716517Y-99377584D01*
X144736304Y-99393822D01*
X144802492Y-99429201D01*
X144874311Y-99450987D01*
X144949000Y-99458343D01*
X146475000Y-99458343D01*
X146549689Y-99450987D01*
X146621508Y-99429201D01*
X146687696Y-99393822D01*
X146745711Y-99346211D01*
X146793322Y-99288196D01*
X146828701Y-99222008D01*
X146850487Y-99150189D01*
X146857843Y-99075500D01*
X146857843Y-98640500D01*
X146850487Y-98565811D01*
X146842657Y-98540000D01*
X146850487Y-98514189D01*
X146857843Y-98439500D01*
X146857843Y-98004500D01*
X146850487Y-97929811D01*
X146842961Y-97905000D01*
X146850487Y-97880189D01*
X146857843Y-97805500D01*
X146857843Y-97370500D01*
X146850487Y-97295811D01*
X146842657Y-97270000D01*
X146850487Y-97244189D01*
X146857843Y-97169500D01*
X146857843Y-96734500D01*
X146850487Y-96659811D01*
X146842961Y-96635000D01*
X146850487Y-96610189D01*
X146857843Y-96535500D01*
X146857843Y-96100500D01*
X146850487Y-96025811D01*
X146842657Y-96000000D01*
X146850487Y-95974189D01*
X146857843Y-95899500D01*
X146857843Y-95464500D01*
X146850487Y-95389811D01*
X146842961Y-95365000D01*
X146850487Y-95340189D01*
X146857843Y-95265500D01*
X146857843Y-94830500D01*
X146850487Y-94755811D01*
X146842657Y-94730000D01*
X146850487Y-94704189D01*
X146855520Y-94653078D01*
X147599000Y-94653078D01*
X147599000Y-94806922D01*
X147629013Y-94957809D01*
X147687887Y-95099942D01*
X147773358Y-95227859D01*
X147882141Y-95336642D01*
X148010058Y-95422113D01*
X148152191Y-95480987D01*
X148303078Y-95511000D01*
X148445409Y-95511000D01*
X149074628Y-96140220D01*
X149090473Y-96159527D01*
X149167521Y-96222759D01*
X149255425Y-96269745D01*
X149350807Y-96298678D01*
X149450000Y-96308448D01*
X149474854Y-96306000D01*
X151420538Y-96306000D01*
X151399513Y-96375311D01*
X151392157Y-96450000D01*
X151392157Y-96764000D01*
X150978501Y-96764000D01*
X150877859Y-96663358D01*
X150749942Y-96577887D01*
X150607809Y-96519013D01*
X150456922Y-96489000D01*
X150303078Y-96489000D01*
X150152191Y-96519013D01*
X150010058Y-96577887D01*
X149882141Y-96663358D01*
X149773358Y-96772141D01*
X149687887Y-96900058D01*
X149629013Y-97042191D01*
X149599000Y-97193078D01*
X149599000Y-97346922D01*
X149629013Y-97497809D01*
X149687887Y-97639942D01*
X149773358Y-97767859D01*
X149882141Y-97876642D01*
X150010058Y-97962113D01*
X150152191Y-98020987D01*
X150303078Y-98051000D01*
X150456922Y-98051000D01*
X150607809Y-98020987D01*
X150749942Y-97962113D01*
X150877859Y-97876642D01*
X150978501Y-97776000D01*
X151467596Y-97776000D01*
X151504289Y-97820711D01*
X151562304Y-97868322D01*
X151628492Y-97903701D01*
X151700311Y-97925487D01*
X151775000Y-97932843D01*
X153225000Y-97932843D01*
X153299689Y-97925487D01*
X153371508Y-97903701D01*
X153437696Y-97868322D01*
X153495711Y-97820711D01*
X153543322Y-97762696D01*
X153578701Y-97696508D01*
X153600487Y-97624689D01*
X153607843Y-97550000D01*
X153607843Y-96450000D01*
X153600487Y-96375311D01*
X153578701Y-96303492D01*
X153543322Y-96237304D01*
X153495711Y-96179289D01*
X153437696Y-96131678D01*
X153371508Y-96096299D01*
X153299689Y-96074513D01*
X153225000Y-96067157D01*
X151973434Y-96067157D01*
X152107748Y-95932843D01*
X153225000Y-95932843D01*
X153299689Y-95925487D01*
X153371508Y-95903701D01*
X153437696Y-95868322D01*
X153495711Y-95820711D01*
X153543322Y-95762696D01*
X153578701Y-95696508D01*
X153600487Y-95624689D01*
X153607843Y-95550000D01*
X153607843Y-94450000D01*
X153600487Y-94375311D01*
X153578701Y-94303492D01*
X153543322Y-94237304D01*
X153495711Y-94179289D01*
X153437696Y-94131678D01*
X153371508Y-94096299D01*
X153299689Y-94074513D01*
X153225000Y-94067157D01*
X151775000Y-94067157D01*
X151756625Y-94068967D01*
X151892749Y-93932843D01*
X153225000Y-93932843D01*
X153299689Y-93925487D01*
X153371508Y-93903701D01*
X153437696Y-93868322D01*
X153495711Y-93820711D01*
X153543322Y-93762696D01*
X153578701Y-93696508D01*
X153600487Y-93624689D01*
X153607843Y-93550000D01*
X153607843Y-92450000D01*
X153600487Y-92375311D01*
X153578701Y-92303492D01*
X153543322Y-92237304D01*
X153495711Y-92179289D01*
X153437696Y-92131678D01*
X153371508Y-92096299D01*
X153299689Y-92074513D01*
X153225000Y-92067157D01*
X151775000Y-92067157D01*
X151700311Y-92074513D01*
X151628492Y-92096299D01*
X151562304Y-92131678D01*
X151504289Y-92179289D01*
X151456678Y-92237304D01*
X151421299Y-92303492D01*
X151399513Y-92375311D01*
X151392157Y-92450000D01*
X151392157Y-93002251D01*
X150445409Y-93949000D01*
X150303078Y-93949000D01*
X150152191Y-93979013D01*
X150010058Y-94037887D01*
X149882141Y-94123358D01*
X149773358Y-94232141D01*
X149687887Y-94360058D01*
X149629013Y-94502191D01*
X149599000Y-94653078D01*
X149599000Y-94806922D01*
X149629013Y-94957809D01*
X149687887Y-95099942D01*
X149773358Y-95227859D01*
X149839499Y-95294000D01*
X149659592Y-95294000D01*
X149161000Y-94795409D01*
X149161000Y-94653078D01*
X149130987Y-94502191D01*
X149072113Y-94360058D01*
X148986642Y-94232141D01*
X148877859Y-94123358D01*
X148749942Y-94037887D01*
X148607809Y-93979013D01*
X148456922Y-93949000D01*
X148303078Y-93949000D01*
X148152191Y-93979013D01*
X148010058Y-94037887D01*
X147882141Y-94123358D01*
X147773358Y-94232141D01*
X147687887Y-94360058D01*
X147629013Y-94502191D01*
X147599000Y-94653078D01*
X146855520Y-94653078D01*
X146857843Y-94629500D01*
X146857843Y-94194500D01*
X146850487Y-94119811D01*
X146842961Y-94095000D01*
X146850487Y-94070189D01*
X146857843Y-93995500D01*
X146857843Y-93648000D01*
X147083154Y-93648000D01*
X147108000Y-93650447D01*
X147132846Y-93648000D01*
X147132854Y-93648000D01*
X147207193Y-93640678D01*
X147302575Y-93611745D01*
X147390479Y-93564759D01*
X147467527Y-93501527D01*
X147483376Y-93482215D01*
X148257686Y-92707906D01*
X148524255Y-92818322D01*
X148839360Y-92881000D01*
X149160640Y-92881000D01*
X149475745Y-92818322D01*
X149772568Y-92695374D01*
X150039702Y-92516881D01*
X150266881Y-92289702D01*
X150445374Y-92022568D01*
X150568322Y-91725745D01*
X150631000Y-91410640D01*
X150631000Y-91089360D01*
X150568322Y-90774255D01*
X150445374Y-90477432D01*
X150266881Y-90210298D01*
X150039702Y-89983119D01*
X149772568Y-89804626D01*
X149475745Y-89681678D01*
X149160640Y-89619000D01*
X148839360Y-89619000D01*
X148524255Y-89681678D01*
X148227432Y-89804626D01*
X147960298Y-89983119D01*
X147733119Y-90210298D01*
X147554626Y-90477432D01*
X147431678Y-90774255D01*
X147369000Y-91089360D01*
X147369000Y-91410640D01*
X147431678Y-91725745D01*
X147542094Y-91992314D01*
X146898409Y-92636000D01*
X146724035Y-92636000D01*
X146687696Y-92606178D01*
X146621508Y-92570799D01*
X146549689Y-92549013D01*
X146475000Y-92541657D01*
X144949000Y-92541657D01*
X144874311Y-92549013D01*
X144802492Y-92570799D01*
X144736304Y-92606178D01*
X144699965Y-92636000D01*
X144132845Y-92636000D01*
X144107999Y-92633553D01*
X144083153Y-92636000D01*
X144083146Y-92636000D01*
X144008807Y-92643322D01*
X143913425Y-92672255D01*
X143825521Y-92719241D01*
X143748473Y-92782473D01*
X143732629Y-92801779D01*
X142815409Y-93719000D01*
X142673078Y-93719000D01*
X142522191Y-93749013D01*
X142380058Y-93807887D01*
X142252141Y-93893358D01*
X142143358Y-94002141D01*
X142057887Y-94130058D01*
X141999013Y-94272191D01*
X141969000Y-94423078D01*
X141969000Y-94576922D01*
X141999013Y-94727809D01*
X142013649Y-94763142D01*
X141978733Y-94763142D01*
X141923376Y-94707785D01*
X141907527Y-94688473D01*
X141830479Y-94625241D01*
X141742575Y-94578255D01*
X141647193Y-94549322D01*
X141572854Y-94542000D01*
X141572846Y-94542000D01*
X141548000Y-94539553D01*
X141523154Y-94542000D01*
X141433843Y-94542000D01*
X141433843Y-94194500D01*
X141426487Y-94119811D01*
X141418961Y-94095000D01*
X141426487Y-94070189D01*
X141433843Y-93995500D01*
X141433843Y-93560500D01*
X141426487Y-93485811D01*
X141418657Y-93460000D01*
X141426487Y-93434189D01*
X141433843Y-93359500D01*
X141433843Y-92924500D01*
X141426487Y-92849811D01*
X141404701Y-92777992D01*
X141369322Y-92711804D01*
X141321711Y-92653789D01*
X141263696Y-92606178D01*
X141197508Y-92570799D01*
X141125689Y-92549013D01*
X141051000Y-92541657D01*
X139525000Y-92541657D01*
X139450311Y-92549013D01*
X139378492Y-92570799D01*
X139312304Y-92606178D01*
X139254289Y-92653789D01*
X139206678Y-92711804D01*
X139171299Y-92777992D01*
X139149513Y-92849811D01*
X139142157Y-92924500D01*
X139142157Y-93359500D01*
X139149513Y-93434189D01*
X139157343Y-93460000D01*
X139149513Y-93485811D01*
X139142157Y-93560500D01*
X139142157Y-93953889D01*
X139076019Y-93989241D01*
X138998971Y-94052473D01*
X138983126Y-94071780D01*
X138107843Y-94947063D01*
X138107843Y-94837500D01*
X138095923Y-94716477D01*
X138060622Y-94600105D01*
X138003296Y-94492856D01*
X137926149Y-94398851D01*
X137832144Y-94321704D01*
X137724895Y-94264378D01*
X137608523Y-94229077D01*
X137487500Y-94217157D01*
X137012500Y-94217157D01*
X136891477Y-94229077D01*
X136775105Y-94264378D01*
X136667856Y-94321704D01*
X136573851Y-94398851D01*
X136496704Y-94492856D01*
X136439378Y-94600105D01*
X136404077Y-94716477D01*
X136392157Y-94837500D01*
X136392157Y-95279752D01*
X136302899Y-95369010D01*
X135966046Y-95369010D01*
X135972843Y-95300001D01*
X135972843Y-94649999D01*
X135960683Y-94526538D01*
X135924671Y-94407821D01*
X135866190Y-94298411D01*
X135787488Y-94202512D01*
X135691589Y-94123810D01*
X135582179Y-94065329D01*
X135463462Y-94029317D01*
X135340001Y-94017157D01*
X134647749Y-94017157D01*
X132500376Y-91869785D01*
X132484527Y-91850473D01*
X132407479Y-91787241D01*
X132319575Y-91740255D01*
X132224193Y-91711322D01*
X132149854Y-91704000D01*
X132149846Y-91704000D01*
X132125000Y-91701553D01*
X132100154Y-91704000D01*
X125437328Y-91704000D01*
X125430683Y-91636538D01*
X125394671Y-91517821D01*
X125336190Y-91408411D01*
X125257488Y-91312512D01*
X125161589Y-91233810D01*
X125052179Y-91175329D01*
X124933462Y-91139317D01*
X124810001Y-91127157D01*
X124109999Y-91127157D01*
X123986538Y-91139317D01*
X123867821Y-91175329D01*
X123758411Y-91233810D01*
X123662512Y-91312512D01*
X123583810Y-91408411D01*
X123525329Y-91517821D01*
X123489317Y-91636538D01*
X123477157Y-91759999D01*
X123477157Y-92511566D01*
X123442843Y-92477252D01*
X123442843Y-91759999D01*
X123430683Y-91636538D01*
X123394671Y-91517821D01*
X123336190Y-91408411D01*
X123257488Y-91312512D01*
X123161589Y-91233810D01*
X123052179Y-91175329D01*
X122933462Y-91139317D01*
X122810001Y-91127157D01*
X122109999Y-91127157D01*
X121986538Y-91139317D01*
X121867821Y-91175329D01*
X121758411Y-91233810D01*
X121662512Y-91312512D01*
X121583810Y-91408411D01*
X121525329Y-91517821D01*
X121489317Y-91636538D01*
X121482354Y-91707230D01*
X121440807Y-91711322D01*
X121345425Y-91740255D01*
X121257521Y-91787241D01*
X121180473Y-91850473D01*
X121164628Y-91869780D01*
X119040409Y-93994000D01*
X116959592Y-93994000D01*
X115834406Y-92868815D01*
X115849075Y-92833401D01*
X115893000Y-92612576D01*
X115893000Y-92387424D01*
X115849075Y-92166599D01*
X115762913Y-91958587D01*
X115637826Y-91771380D01*
X115478620Y-91612174D01*
X115291413Y-91487087D01*
X115083401Y-91400925D01*
X114862576Y-91357000D01*
X114693275Y-91357000D01*
X114869729Y-91241006D01*
X115065632Y-91048026D01*
X115220122Y-90820535D01*
X115327262Y-90567276D01*
X115342220Y-90493070D01*
X115219720Y-90277000D01*
X112777000Y-90277000D01*
X112777000Y-91547000D01*
X114115000Y-91547000D01*
X114120491Y-91545951D01*
X114021380Y-91612174D01*
X113862174Y-91771380D01*
X113737087Y-91958587D01*
X113650925Y-92166599D01*
X113607000Y-92387424D01*
X113607000Y-92612576D01*
X113634333Y-92749987D01*
X113552369Y-92668023D01*
X113435959Y-92784433D01*
X113368980Y-92544344D01*
X113119952Y-92427244D01*
X112852865Y-92360977D01*
X112577983Y-92348090D01*
X112305867Y-92389078D01*
X112046977Y-92482364D01*
X111931020Y-92544344D01*
X111864040Y-92784435D01*
X112650000Y-93570395D01*
X112664143Y-93556253D01*
X112843748Y-93735858D01*
X112829605Y-93750000D01*
X112843748Y-93764143D01*
X112664143Y-93943748D01*
X112650000Y-93929605D01*
X111864040Y-94715565D01*
X111931020Y-94955656D01*
X112180048Y-95072756D01*
X112447135Y-95139023D01*
X112722017Y-95151910D01*
X112994133Y-95110922D01*
X113253023Y-95017636D01*
X113368980Y-94955656D01*
X113435959Y-94715567D01*
X113552369Y-94831977D01*
X113634333Y-94750013D01*
X113607000Y-94887424D01*
X113607000Y-95112576D01*
X113650925Y-95333401D01*
X113737087Y-95541413D01*
X113862174Y-95728620D01*
X114021380Y-95887826D01*
X114189261Y-96000000D01*
X114021380Y-96112174D01*
X113862174Y-96271380D01*
X113737087Y-96458587D01*
X113650925Y-96666599D01*
X113607000Y-96887424D01*
X113607000Y-97112576D01*
X113634333Y-97249987D01*
X113552369Y-97168023D01*
X113435959Y-97284433D01*
X113368980Y-97044344D01*
X113119952Y-96927244D01*
X112852865Y-96860977D01*
X112577983Y-96848090D01*
X112305867Y-96889078D01*
X112046977Y-96982364D01*
X111931020Y-97044344D01*
X111864040Y-97284435D01*
X112650000Y-98070395D01*
X112664143Y-98056253D01*
X112843748Y-98235858D01*
X112829605Y-98250000D01*
X112843748Y-98264143D01*
X112664143Y-98443748D01*
X112650000Y-98429605D01*
X111864040Y-99215565D01*
X111931020Y-99455656D01*
X112180048Y-99572756D01*
X112447135Y-99639023D01*
X112722017Y-99651910D01*
X112994133Y-99610922D01*
X113253023Y-99517636D01*
X113368980Y-99455656D01*
X113435959Y-99215567D01*
X113552369Y-99331977D01*
X113634333Y-99250013D01*
X113607000Y-99387424D01*
X113607000Y-99612576D01*
X113650925Y-99833401D01*
X113737087Y-100041413D01*
X113862174Y-100228620D01*
X114021380Y-100387826D01*
X114120491Y-100454049D01*
X114115000Y-100453000D01*
X112777000Y-100453000D01*
X112777000Y-101723000D01*
X115219720Y-101723000D01*
X115342220Y-101506930D01*
X115327262Y-101432724D01*
X115220122Y-101179465D01*
X115065632Y-100951974D01*
X114869729Y-100758994D01*
X114693275Y-100643000D01*
X114862576Y-100643000D01*
X115083401Y-100599075D01*
X115291413Y-100512913D01*
X115478620Y-100387826D01*
X115637826Y-100228620D01*
X115762913Y-100041413D01*
X115849075Y-99833401D01*
X115893000Y-99612576D01*
X115893000Y-99387424D01*
X115849075Y-99166599D01*
X115834406Y-99131185D01*
X116959592Y-98006000D01*
X119040409Y-98006000D01*
X121204628Y-100170220D01*
X121220473Y-100189527D01*
X121297521Y-100252759D01*
X121372746Y-100292968D01*
X121385425Y-100299745D01*
X121456217Y-100321219D01*
X121464317Y-100403462D01*
X121500329Y-100522179D01*
X121558810Y-100631589D01*
X121637512Y-100727488D01*
X121733411Y-100806190D01*
X121842821Y-100864671D01*
X121961538Y-100900683D01*
X122084999Y-100912843D01*
X122735001Y-100912843D01*
X122858462Y-100900683D01*
X122977179Y-100864671D01*
X123086589Y-100806190D01*
X123182488Y-100727488D01*
X123261190Y-100631589D01*
X123319671Y-100522179D01*
X123355683Y-100403462D01*
X123367843Y-100280001D01*
X123367843Y-99379999D01*
X123355683Y-99256538D01*
X123319671Y-99137821D01*
X123261190Y-99028411D01*
X123182488Y-98932512D01*
X123086589Y-98853810D01*
X122977179Y-98795329D01*
X122858462Y-98759317D01*
X122735001Y-98747157D01*
X122084999Y-98747157D01*
X121961538Y-98759317D01*
X121842821Y-98795329D01*
X121733411Y-98853810D01*
X121637512Y-98932512D01*
X121558810Y-99028411D01*
X121536236Y-99070644D01*
X119971591Y-97506000D01*
X121414657Y-97506000D01*
X121414657Y-97765000D01*
X121426817Y-97888462D01*
X121462829Y-98007179D01*
X121521310Y-98116589D01*
X121600012Y-98212488D01*
X121695911Y-98291190D01*
X121805321Y-98349671D01*
X121924038Y-98385683D01*
X122047500Y-98397843D01*
X122722500Y-98397843D01*
X122845962Y-98385683D01*
X122964679Y-98349671D01*
X123074089Y-98291190D01*
X123169988Y-98212488D01*
X123248690Y-98116589D01*
X123307171Y-98007179D01*
X123343183Y-97888462D01*
X123355343Y-97765000D01*
X123355343Y-96815000D01*
X123343183Y-96691538D01*
X123307171Y-96572821D01*
X123248690Y-96463411D01*
X123169988Y-96367512D01*
X123074089Y-96288810D01*
X122964679Y-96230329D01*
X122845962Y-96194317D01*
X122722500Y-96182157D01*
X122047500Y-96182157D01*
X121924038Y-96194317D01*
X121805321Y-96230329D01*
X121695911Y-96288810D01*
X121600012Y-96367512D01*
X121521310Y-96463411D01*
X121504960Y-96494000D01*
X115777582Y-96494000D01*
X115762913Y-96458587D01*
X115637826Y-96271380D01*
X115478620Y-96112174D01*
X115310739Y-96000000D01*
X115478620Y-95887826D01*
X115637826Y-95728620D01*
X115762913Y-95541413D01*
X115777582Y-95506000D01*
X121483579Y-95506000D01*
X121521310Y-95576589D01*
X121600012Y-95672488D01*
X121695911Y-95751190D01*
X121805321Y-95809671D01*
X121924038Y-95845683D01*
X122047500Y-95857843D01*
X122722500Y-95857843D01*
X122845962Y-95845683D01*
X122964679Y-95809671D01*
X123074089Y-95751190D01*
X123169988Y-95672488D01*
X123248690Y-95576589D01*
X123307171Y-95467179D01*
X123343183Y-95348462D01*
X123355343Y-95225000D01*
X123355343Y-94275000D01*
X123343183Y-94151538D01*
X123307171Y-94032821D01*
X123248690Y-93923411D01*
X123169988Y-93827512D01*
X123074089Y-93748810D01*
X122964679Y-93690329D01*
X122845962Y-93654317D01*
X122722500Y-93642157D01*
X122047500Y-93642157D01*
X121924038Y-93654317D01*
X121805321Y-93690329D01*
X121695911Y-93748810D01*
X121600012Y-93827512D01*
X121521310Y-93923411D01*
X121462829Y-94032821D01*
X121426817Y-94151538D01*
X121414657Y-94275000D01*
X121414657Y-94494000D01*
X119971591Y-94494000D01*
X121538595Y-92926997D01*
X121583810Y-93011589D01*
X121662512Y-93107488D01*
X121758411Y-93186190D01*
X121867821Y-93244671D01*
X121986538Y-93280683D01*
X122109999Y-93292843D01*
X122810001Y-93292843D01*
X122825705Y-93291296D01*
X123548070Y-94013662D01*
X123537829Y-94032821D01*
X123501817Y-94151538D01*
X123489657Y-94275000D01*
X123489657Y-95225000D01*
X123501817Y-95348462D01*
X123537829Y-95467179D01*
X123596310Y-95576589D01*
X123675012Y-95672488D01*
X123770911Y-95751190D01*
X123880321Y-95809671D01*
X123954000Y-95832021D01*
X123954001Y-96207979D01*
X123880321Y-96230329D01*
X123770911Y-96288810D01*
X123675012Y-96367512D01*
X123596310Y-96463411D01*
X123537829Y-96572821D01*
X123501817Y-96691538D01*
X123489657Y-96815000D01*
X123489657Y-97765000D01*
X123501817Y-97888462D01*
X123537829Y-98007179D01*
X123596310Y-98116589D01*
X123675012Y-98212488D01*
X123770911Y-98291190D01*
X123880321Y-98349671D01*
X123999038Y-98385683D01*
X124122500Y-98397843D01*
X124797500Y-98397843D01*
X124920962Y-98385683D01*
X125039679Y-98349671D01*
X125149089Y-98291190D01*
X125244988Y-98212488D01*
X125323690Y-98116589D01*
X125382171Y-98007179D01*
X125418183Y-97888462D01*
X125430343Y-97765000D01*
X125430343Y-96815000D01*
X125418183Y-96691538D01*
X125382171Y-96572821D01*
X125323690Y-96463411D01*
X125244988Y-96367512D01*
X125149089Y-96288810D01*
X125039679Y-96230329D01*
X124966000Y-96207979D01*
X124966000Y-95832021D01*
X125039679Y-95809671D01*
X125149089Y-95751190D01*
X125244988Y-95672488D01*
X125323690Y-95576589D01*
X125382171Y-95467179D01*
X125418183Y-95348462D01*
X125427290Y-95256000D01*
X128682157Y-95256000D01*
X128682157Y-95437500D01*
X128694077Y-95558523D01*
X128729378Y-95674895D01*
X128786704Y-95782144D01*
X128863851Y-95876149D01*
X128957856Y-95953296D01*
X129045233Y-96000000D01*
X128957856Y-96046704D01*
X128863851Y-96123851D01*
X128786704Y-96217856D01*
X128729378Y-96325105D01*
X128694077Y-96441477D01*
X128682157Y-96562500D01*
X128682157Y-97004751D01*
X126362909Y-99324000D01*
X125412328Y-99324000D01*
X125405683Y-99256538D01*
X125369671Y-99137821D01*
X125311190Y-99028411D01*
X125232488Y-98932512D01*
X125136589Y-98853810D01*
X125027179Y-98795329D01*
X124908462Y-98759317D01*
X124785001Y-98747157D01*
X124134999Y-98747157D01*
X124011538Y-98759317D01*
X123892821Y-98795329D01*
X123783411Y-98853810D01*
X123687512Y-98932512D01*
X123608810Y-99028411D01*
X123550329Y-99137821D01*
X123514317Y-99256538D01*
X123502157Y-99379999D01*
X123502157Y-100280001D01*
X123514317Y-100403462D01*
X123550329Y-100522179D01*
X123608810Y-100631589D01*
X123687512Y-100727488D01*
X123783411Y-100806190D01*
X123892821Y-100864671D01*
X124011538Y-100900683D01*
X124134999Y-100912843D01*
X124785001Y-100912843D01*
X124908462Y-100900683D01*
X125027179Y-100864671D01*
X125136589Y-100806190D01*
X125232488Y-100727488D01*
X125311190Y-100631589D01*
X125369671Y-100522179D01*
X125405683Y-100403462D01*
X125412328Y-100336000D01*
X126547654Y-100336000D01*
X126572500Y-100338447D01*
X126597346Y-100336000D01*
X126597354Y-100336000D01*
X126671693Y-100328678D01*
X126767075Y-100299745D01*
X126854979Y-100252759D01*
X126932027Y-100189527D01*
X126947876Y-100170215D01*
X129335249Y-97782843D01*
X129777500Y-97782843D01*
X129898523Y-97770923D01*
X130014895Y-97735622D01*
X130122144Y-97678296D01*
X130216149Y-97601149D01*
X130293296Y-97507144D01*
X130350622Y-97399895D01*
X130360146Y-97368500D01*
X130929854Y-97368500D01*
X130939378Y-97399895D01*
X130996704Y-97507144D01*
X131073851Y-97601149D01*
X131167856Y-97678296D01*
X131275105Y-97735622D01*
X131391477Y-97770923D01*
X131512500Y-97782843D01*
X131987500Y-97782843D01*
X132108523Y-97770923D01*
X132224895Y-97735622D01*
X132332144Y-97678296D01*
X132426149Y-97601149D01*
X132503296Y-97507144D01*
X132560622Y-97399895D01*
X132570146Y-97368500D01*
X133808979Y-97368500D01*
X133819317Y-97473462D01*
X133855329Y-97592179D01*
X133913810Y-97701589D01*
X133992512Y-97797488D01*
X134088411Y-97876190D01*
X134197821Y-97934671D01*
X134316538Y-97970683D01*
X134439999Y-97982843D01*
X135340001Y-97982843D01*
X135463462Y-97970683D01*
X135582179Y-97934671D01*
X135691589Y-97876190D01*
X135787488Y-97797488D01*
X135860158Y-97708939D01*
X136976973Y-98825754D01*
X136959665Y-98824422D01*
X136586420Y-98868929D01*
X136228928Y-98985085D01*
X135900806Y-99168467D01*
X135614552Y-99412088D01*
X135381069Y-99706670D01*
X135209250Y-100040992D01*
X135105641Y-100402320D01*
X135074188Y-100776891D01*
X135116088Y-101150438D01*
X135229745Y-101508732D01*
X135410831Y-101838126D01*
X135652448Y-102126074D01*
X135945393Y-102361608D01*
X136278508Y-102535756D01*
X136476404Y-102594000D01*
X119525094Y-102594000D01*
X119746355Y-102525508D01*
X120077006Y-102346726D01*
X120366633Y-102107125D01*
X120604206Y-101815832D01*
X120780676Y-101483942D01*
X120889320Y-101124095D01*
X120926000Y-100750000D01*
X120925249Y-100696223D01*
X120878138Y-100323298D01*
X120759489Y-99966625D01*
X120573821Y-99639791D01*
X120328207Y-99355245D01*
X120032002Y-99123824D01*
X119696489Y-98954344D01*
X119334446Y-98853260D01*
X118959665Y-98824422D01*
X118586420Y-98868929D01*
X118228928Y-98985085D01*
X117900806Y-99168467D01*
X117614552Y-99412088D01*
X117381069Y-99706670D01*
X117209250Y-100040992D01*
X117105641Y-100402320D01*
X117074188Y-100776891D01*
X117116088Y-101150438D01*
X117229745Y-101508732D01*
X117410831Y-101838126D01*
X117652448Y-102126074D01*
X117945393Y-102361608D01*
X118278508Y-102535756D01*
X118476404Y-102594000D01*
X115170232Y-102594000D01*
X115220122Y-102520535D01*
X115327262Y-102267276D01*
X115342220Y-102193070D01*
X115219720Y-101977000D01*
X112777000Y-101977000D01*
X112777000Y-101997000D01*
X112523000Y-101997000D01*
X112523000Y-101977000D01*
X112503000Y-101977000D01*
X112503000Y-101723000D01*
X112523000Y-101723000D01*
X112523000Y-100453000D01*
X111185000Y-100453000D01*
X110914899Y-100504619D01*
X110660058Y-100607941D01*
X110430271Y-100758994D01*
X110234368Y-100951974D01*
X110156000Y-101067373D01*
X110156000Y-98322017D01*
X111248090Y-98322017D01*
X111289078Y-98594133D01*
X111382364Y-98853023D01*
X111444344Y-98968980D01*
X111684435Y-99035960D01*
X112470395Y-98250000D01*
X111684435Y-97464040D01*
X111444344Y-97531020D01*
X111327244Y-97780048D01*
X111260977Y-98047135D01*
X111248090Y-98322017D01*
X110156000Y-98322017D01*
X110156000Y-93822017D01*
X111248090Y-93822017D01*
X111289078Y-94094133D01*
X111382364Y-94353023D01*
X111444344Y-94468980D01*
X111684435Y-94535960D01*
X112470395Y-93750000D01*
X111684435Y-92964040D01*
X111444344Y-93031020D01*
X111327244Y-93280048D01*
X111260977Y-93547135D01*
X111248090Y-93822017D01*
X110156000Y-93822017D01*
X110156000Y-90932627D01*
X110234368Y-91048026D01*
X110430271Y-91241006D01*
X110660058Y-91392059D01*
X110914899Y-91495381D01*
X111185000Y-91547000D01*
X112523000Y-91547000D01*
X112523000Y-90277000D01*
X112503000Y-90277000D01*
X112503000Y-90023000D01*
X112523000Y-90023000D01*
X112523000Y-90003000D01*
X112777000Y-90003000D01*
X112777000Y-90023000D01*
X115219720Y-90023000D01*
X115342220Y-89806930D01*
X115327262Y-89732724D01*
X115220122Y-89479465D01*
X115170232Y-89406000D01*
X118472327Y-89406000D01*
X118228928Y-89485085D01*
G36*
X133810945Y-94611537D02*
G01*
X133807157Y-94649999D01*
X133807157Y-95300001D01*
X133813954Y-95369010D01*
X132697102Y-95369010D01*
X132607843Y-95279751D01*
X132607843Y-94837500D01*
X132595923Y-94716477D01*
X132560622Y-94600105D01*
X132503296Y-94492856D01*
X132426149Y-94398851D01*
X132332144Y-94321704D01*
X132224895Y-94264378D01*
X132108523Y-94229077D01*
X131987500Y-94217157D01*
X131512500Y-94217157D01*
X131391477Y-94229077D01*
X131275105Y-94264378D01*
X131167856Y-94321704D01*
X131073851Y-94398851D01*
X130996704Y-94492856D01*
X130939378Y-94600105D01*
X130929854Y-94631500D01*
X130360146Y-94631500D01*
X130350622Y-94600105D01*
X130293296Y-94492856D01*
X130216149Y-94398851D01*
X130122144Y-94321704D01*
X130014895Y-94264378D01*
X129898523Y-94229077D01*
X129777500Y-94217157D01*
X129302500Y-94217157D01*
X129181477Y-94229077D01*
X129134508Y-94243325D01*
X129127654Y-94244000D01*
X125427290Y-94244000D01*
X125418183Y-94151538D01*
X125382171Y-94032821D01*
X125323690Y-93923411D01*
X125244988Y-93827512D01*
X125149089Y-93748810D01*
X125039679Y-93690329D01*
X124920962Y-93654317D01*
X124797500Y-93642157D01*
X124607749Y-93642157D01*
X124258435Y-93292843D01*
X124810001Y-93292843D01*
X124933462Y-93280683D01*
X125052179Y-93244671D01*
X125161589Y-93186190D01*
X125257488Y-93107488D01*
X125336190Y-93011589D01*
X125394671Y-92902179D01*
X125430683Y-92783462D01*
X125437328Y-92716000D01*
X131915409Y-92716000D01*
X133810945Y-94611537D01*
X133810945Y-94611537D01*
G37*
X133810945Y-94611537D02*
X133807157Y-94649999D01*
X133807157Y-95300001D01*
X133813954Y-95369010D01*
X132697102Y-95369010D01*
X132607843Y-95279751D01*
X132607843Y-94837500D01*
X132595923Y-94716477D01*
X132560622Y-94600105D01*
X132503296Y-94492856D01*
X132426149Y-94398851D01*
X132332144Y-94321704D01*
X132224895Y-94264378D01*
X132108523Y-94229077D01*
X131987500Y-94217157D01*
X131512500Y-94217157D01*
X131391477Y-94229077D01*
X131275105Y-94264378D01*
X131167856Y-94321704D01*
X131073851Y-94398851D01*
X130996704Y-94492856D01*
X130939378Y-94600105D01*
X130929854Y-94631500D01*
X130360146Y-94631500D01*
X130350622Y-94600105D01*
X130293296Y-94492856D01*
X130216149Y-94398851D01*
X130122144Y-94321704D01*
X130014895Y-94264378D01*
X129898523Y-94229077D01*
X129777500Y-94217157D01*
X129302500Y-94217157D01*
X129181477Y-94229077D01*
X129134508Y-94243325D01*
X129127654Y-94244000D01*
X125427290Y-94244000D01*
X125418183Y-94151538D01*
X125382171Y-94032821D01*
X125323690Y-93923411D01*
X125244988Y-93827512D01*
X125149089Y-93748810D01*
X125039679Y-93690329D01*
X124920962Y-93654317D01*
X124797500Y-93642157D01*
X124607749Y-93642157D01*
X124258435Y-93292843D01*
X124810001Y-93292843D01*
X124933462Y-93280683D01*
X125052179Y-93244671D01*
X125161589Y-93186190D01*
X125257488Y-93107488D01*
X125336190Y-93011589D01*
X125394671Y-92902179D01*
X125430683Y-92783462D01*
X125437328Y-92716000D01*
X131915409Y-92716000D01*
X133810945Y-94611537D01*
%TD*%
M02*
