%TF.GenerationSoftware,KiCad,Pcbnew,(5.1.0)-1*%
%TF.CreationDate,2024-04-08T09:54:17+02:00*%
%TF.ProjectId,USB-UART_RS422,5553422d-5541-4525-945f-52533432322e,rev?*%
%TF.SameCoordinates,Original*%
%TF.FileFunction,Legend,Top*%
%TF.FilePolarity,Positive*%
%FSLAX46Y46*%
G04 Gerber Fmt 4.6, Leading zero omitted, Abs format (unit mm)*
G04 Created by KiCad (PCBNEW (5.1.0)-1) date 2024-04-08 09:54:17*
%MOMM*%
%LPD*%
G04 APERTURE LIST*
%ADD10C,0.200000*%
%ADD11C,0.100000*%
%ADD12C,0.010000*%
%ADD13C,0.120000*%
%ADD14C,0.254000*%
%ADD15C,0.150000*%
G04 APERTURE END LIST*
D10*
%TO.C,J0*%
X151225000Y-99000000D02*
G75*
G02X151025000Y-99000000I-100000J0D01*
G01*
X151025000Y-99000000D02*
G75*
G02X151225000Y-99000000I100000J0D01*
G01*
X151025000Y-99000000D02*
X151025000Y-99000000D01*
X151225000Y-99000000D02*
X151225000Y-99000000D01*
D11*
X152425000Y-90025000D02*
X152425000Y-92000000D01*
X156725000Y-90025000D02*
X152425000Y-90000000D01*
X152425000Y-101975000D02*
X152425000Y-100000000D01*
X156725000Y-102000000D02*
X152425000Y-101975000D01*
X160025000Y-91000000D02*
X160025000Y-101000000D01*
D12*
%TO.C,G\002A\002A\002A*%
G36*
X131834491Y-99954492D02*
G01*
X131847320Y-99969528D01*
X131878191Y-100008924D01*
X131924955Y-100069849D01*
X131985465Y-100149472D01*
X132057575Y-100244961D01*
X132139136Y-100353485D01*
X132228003Y-100472212D01*
X132284639Y-100548111D01*
X132376587Y-100670805D01*
X132462487Y-100784148D01*
X132540222Y-100885438D01*
X132607672Y-100971972D01*
X132662720Y-101041049D01*
X132703247Y-101089968D01*
X132727134Y-101116026D01*
X132732685Y-101119491D01*
X132742157Y-101099217D01*
X132759638Y-101053010D01*
X132782848Y-100987201D01*
X132809508Y-100908123D01*
X132816800Y-100885933D01*
X132843955Y-100804462D01*
X132868218Y-100734634D01*
X132887319Y-100682768D01*
X132898990Y-100655181D01*
X132900545Y-100652746D01*
X132913599Y-100662134D01*
X132944719Y-100695069D01*
X132991192Y-100748358D01*
X133050303Y-100818804D01*
X133119338Y-100903214D01*
X133195583Y-100998393D01*
X133214777Y-101022640D01*
X133517219Y-101405587D01*
X133554899Y-101332027D01*
X133592580Y-101258467D01*
X133494628Y-101247891D01*
X133560208Y-101160046D01*
X133602688Y-101099057D01*
X133642643Y-101035015D01*
X133663220Y-100997655D01*
X133700653Y-100923109D01*
X133768112Y-101039988D01*
X133806700Y-101103018D01*
X133845623Y-101160369D01*
X133877075Y-101200603D01*
X133879687Y-101203434D01*
X133923803Y-101250000D01*
X133869835Y-101250000D01*
X133832800Y-101253108D01*
X133815962Y-101260657D01*
X133815866Y-101261331D01*
X133824641Y-101286284D01*
X133847340Y-101330001D01*
X133878529Y-101383461D01*
X133912773Y-101437639D01*
X133944637Y-101483513D01*
X133964193Y-101507567D01*
X134007192Y-101553467D01*
X133943808Y-101535966D01*
X133901178Y-101526860D01*
X133874294Y-101526055D01*
X133871454Y-101527434D01*
X133872944Y-101547076D01*
X133888538Y-101585293D01*
X133913277Y-101632667D01*
X133942203Y-101679781D01*
X133970358Y-101717217D01*
X133972786Y-101719900D01*
X134008037Y-101758000D01*
X133962752Y-101758000D01*
X133925880Y-101764630D01*
X133920266Y-101783227D01*
X133941351Y-101807542D01*
X133957768Y-101813219D01*
X133978357Y-101800879D01*
X134008185Y-101766355D01*
X134034106Y-101731187D01*
X134067065Y-101681528D01*
X134088540Y-101641989D01*
X134094118Y-101620758D01*
X134093889Y-101620305D01*
X134071803Y-101609125D01*
X134041713Y-101605600D01*
X133998625Y-101605600D01*
X134046946Y-101550413D01*
X134077746Y-101509283D01*
X134108280Y-101459088D01*
X134133982Y-101408849D01*
X134150284Y-101367587D01*
X134152619Y-101344322D01*
X134151828Y-101343250D01*
X134131885Y-101342104D01*
X134093447Y-101349763D01*
X134086800Y-101351600D01*
X134041225Y-101362166D01*
X134025266Y-101357392D01*
X134037289Y-101334992D01*
X134058011Y-101311323D01*
X134085596Y-101275509D01*
X134118863Y-101223908D01*
X134152604Y-101165803D01*
X134181612Y-101110480D01*
X134200681Y-101067221D01*
X134205333Y-101048663D01*
X134190854Y-101034538D01*
X134163000Y-101029867D01*
X134131140Y-101027239D01*
X134120667Y-101022211D01*
X134129641Y-101005652D01*
X134153401Y-100968749D01*
X134187199Y-100918826D01*
X134194754Y-100907911D01*
X134237448Y-100843649D01*
X134277682Y-100778382D01*
X134306280Y-100727114D01*
X134343719Y-100652961D01*
X134419592Y-100786381D01*
X134458856Y-100852160D01*
X134497474Y-100911375D01*
X134528879Y-100954121D01*
X134536903Y-100963308D01*
X134564205Y-100999597D01*
X134561403Y-101021097D01*
X134527936Y-101029573D01*
X134515778Y-101029867D01*
X134485296Y-101033138D01*
X134476267Y-101038816D01*
X134484820Y-101065399D01*
X134507109Y-101111299D01*
X134538076Y-101167661D01*
X134572662Y-101225628D01*
X134605812Y-101276344D01*
X134630294Y-101308534D01*
X134661347Y-101346241D01*
X134667473Y-101364028D01*
X134646297Y-101364882D01*
X134595810Y-101351890D01*
X134555827Y-101342521D01*
X134532641Y-101341030D01*
X134531283Y-101341739D01*
X134534071Y-101360026D01*
X134550143Y-101398115D01*
X134574804Y-101447109D01*
X134603360Y-101498112D01*
X134631114Y-101542226D01*
X134650419Y-101567500D01*
X134670205Y-101595405D01*
X134661849Y-101608114D01*
X134623466Y-101607780D01*
X134615967Y-101606864D01*
X134596461Y-101615731D01*
X134594800Y-101622720D01*
X134605263Y-101651537D01*
X134632747Y-101697399D01*
X134671393Y-101752382D01*
X134715343Y-101808562D01*
X134758738Y-101858013D01*
X134792702Y-101890403D01*
X134857267Y-101943131D01*
X134776833Y-101943699D01*
X134729944Y-101946429D01*
X134700988Y-101952735D01*
X134696463Y-101956967D01*
X134708007Y-101988843D01*
X134738970Y-102037044D01*
X134784174Y-102094620D01*
X134838438Y-102154621D01*
X134859607Y-102175879D01*
X134902704Y-102218518D01*
X134933642Y-102250212D01*
X134946914Y-102265292D01*
X134946924Y-102265817D01*
X134929311Y-102261229D01*
X134889668Y-102249685D01*
X134858809Y-102240417D01*
X134793166Y-102222269D01*
X134753522Y-102216576D01*
X134734423Y-102223239D01*
X134730267Y-102238078D01*
X134739881Y-102273590D01*
X134765455Y-102327248D01*
X134802083Y-102390523D01*
X134844861Y-102454882D01*
X134885009Y-102507213D01*
X134952268Y-102587559D01*
X131749522Y-102591879D01*
X131422756Y-102592291D01*
X131105112Y-102592633D01*
X130798242Y-102592908D01*
X130503798Y-102593114D01*
X130223432Y-102593254D01*
X129958798Y-102593328D01*
X129711546Y-102593335D01*
X129483330Y-102593278D01*
X129275802Y-102593157D01*
X129090613Y-102592972D01*
X128929417Y-102592724D01*
X128793866Y-102592414D01*
X128685611Y-102592042D01*
X128606305Y-102591609D01*
X128557601Y-102591117D01*
X128541155Y-102590578D01*
X128548768Y-102576761D01*
X128574486Y-102548163D01*
X128591504Y-102531311D01*
X128639843Y-102476397D01*
X128688257Y-102407406D01*
X128712468Y-102365459D01*
X129723303Y-102365459D01*
X129738919Y-102365010D01*
X129770339Y-102347022D01*
X129808546Y-102316800D01*
X129846944Y-102286146D01*
X129876333Y-102268064D01*
X129883497Y-102266000D01*
X129899520Y-102280299D01*
X129920044Y-102316380D01*
X129928718Y-102336301D01*
X129956847Y-102406602D01*
X130020171Y-102344768D01*
X130057801Y-102309857D01*
X130085575Y-102287436D01*
X130094178Y-102282934D01*
X130111688Y-102293847D01*
X130142811Y-102321213D01*
X130155661Y-102333734D01*
X130201038Y-102372054D01*
X130234867Y-102380495D01*
X130262784Y-102358362D01*
X130284816Y-102317800D01*
X130304724Y-102277006D01*
X130320262Y-102262167D01*
X130340251Y-102268047D01*
X130354050Y-102276712D01*
X130395256Y-102294228D01*
X130426303Y-102296879D01*
X130462519Y-102303579D01*
X130496055Y-102324515D01*
X130515819Y-102341385D01*
X130532987Y-102347847D01*
X130555457Y-102341928D01*
X130591129Y-102321654D01*
X130644097Y-102287521D01*
X130667979Y-102275034D01*
X130685048Y-102280195D01*
X130703782Y-102308238D01*
X130716193Y-102332021D01*
X130739333Y-102373466D01*
X130757657Y-102389855D01*
X130780129Y-102387067D01*
X130792251Y-102381915D01*
X130828613Y-102352749D01*
X130853594Y-102314240D01*
X130876151Y-102270298D01*
X130899546Y-102255840D01*
X130931778Y-102267252D01*
X130942610Y-102274022D01*
X130986819Y-102293437D01*
X131041930Y-102306179D01*
X131048922Y-102306996D01*
X131107699Y-102319762D01*
X131169865Y-102343026D01*
X131182359Y-102349213D01*
X131249719Y-102384818D01*
X131289329Y-102306879D01*
X131313200Y-102261983D01*
X131329271Y-102242812D01*
X131344667Y-102244694D01*
X131362216Y-102259056D01*
X131394007Y-102294349D01*
X131426824Y-102339934D01*
X131429510Y-102344212D01*
X131467138Y-102390964D01*
X131504292Y-102404759D01*
X131544989Y-102386206D01*
X131567728Y-102365191D01*
X131616394Y-102328051D01*
X131672279Y-102316810D01*
X131674402Y-102316800D01*
X131731782Y-102309246D01*
X131784058Y-102291301D01*
X131819062Y-102275651D01*
X131837760Y-102278263D01*
X131850384Y-102295534D01*
X131878427Y-102342087D01*
X131897370Y-102361886D01*
X131914100Y-102358033D01*
X131935363Y-102333814D01*
X131968077Y-102291561D01*
X132016598Y-102338047D01*
X132061403Y-102373635D01*
X132095798Y-102379864D01*
X132125769Y-102355407D01*
X132153081Y-102307767D01*
X132176822Y-102262911D01*
X132194806Y-102243670D01*
X132214019Y-102244279D01*
X132224188Y-102249096D01*
X132266353Y-102257899D01*
X132294008Y-102247920D01*
X132342846Y-102238650D01*
X132390481Y-102261280D01*
X132433507Y-102313913D01*
X132442720Y-102330702D01*
X132471185Y-102375757D01*
X132504747Y-102398680D01*
X132540776Y-102407648D01*
X132586916Y-102411436D01*
X132619247Y-102398782D01*
X132650222Y-102369056D01*
X132688726Y-102331641D01*
X132724712Y-102304039D01*
X132729341Y-102301361D01*
X132754010Y-102293592D01*
X132774624Y-102305887D01*
X132798935Y-102340693D01*
X132823934Y-102376961D01*
X132845206Y-102389114D01*
X132875235Y-102382774D01*
X132884679Y-102379295D01*
X132926674Y-102368850D01*
X132952664Y-102378278D01*
X132954844Y-102380338D01*
X132973413Y-102387054D01*
X133001532Y-102373354D01*
X133039796Y-102341628D01*
X133079210Y-102308240D01*
X133109031Y-102286979D01*
X133118512Y-102282934D01*
X133133711Y-102296767D01*
X133154986Y-102331335D01*
X133162067Y-102345438D01*
X133191873Y-102407942D01*
X133232925Y-102355487D01*
X133271477Y-102318038D01*
X133305739Y-102311347D01*
X133306609Y-102311565D01*
X133344627Y-102305351D01*
X133369650Y-102284583D01*
X133395505Y-102258491D01*
X133410929Y-102249067D01*
X133422738Y-102263415D01*
X133440601Y-102299928D01*
X133450900Y-102325267D01*
X133471987Y-102370532D01*
X133492028Y-102397990D01*
X133506507Y-102403054D01*
X133511067Y-102386345D01*
X133523674Y-102364815D01*
X133553898Y-102360765D01*
X133590339Y-102374210D01*
X133606008Y-102386232D01*
X133644885Y-102422755D01*
X133712081Y-102389509D01*
X133770205Y-102368098D01*
X133806360Y-102371420D01*
X133834701Y-102371577D01*
X133872105Y-102354995D01*
X133906758Y-102329453D01*
X133926847Y-102302729D01*
X133927771Y-102291473D01*
X133916317Y-102273882D01*
X133886510Y-102233641D01*
X133840929Y-102173992D01*
X133782153Y-102098175D01*
X133712759Y-102009432D01*
X133635328Y-101911004D01*
X133552437Y-101806134D01*
X133466665Y-101698062D01*
X133380591Y-101590030D01*
X133296793Y-101485279D01*
X133217851Y-101387051D01*
X133146342Y-101298586D01*
X133084846Y-101223128D01*
X133035941Y-101163916D01*
X133002206Y-101124193D01*
X132986218Y-101107200D01*
X132985350Y-101106827D01*
X132977070Y-101124029D01*
X132960619Y-101167593D01*
X132938110Y-101231611D01*
X132911657Y-101310179D01*
X132901212Y-101342001D01*
X132873787Y-101423952D01*
X132849328Y-101492994D01*
X132829972Y-101543396D01*
X132817854Y-101569425D01*
X132815582Y-101571733D01*
X132803543Y-101558600D01*
X132773369Y-101521011D01*
X132727140Y-101461684D01*
X132666936Y-101383334D01*
X132594835Y-101288680D01*
X132512919Y-101180436D01*
X132423266Y-101061321D01*
X132349386Y-100962722D01*
X132255072Y-100837132D01*
X132166704Y-100720470D01*
X132086382Y-100615431D01*
X132016201Y-100524712D01*
X131958259Y-100451008D01*
X131914654Y-100397016D01*
X131887482Y-100365431D01*
X131879044Y-100358085D01*
X131865827Y-100373251D01*
X131838129Y-100412748D01*
X131799015Y-100471940D01*
X131751553Y-100546191D01*
X131701064Y-100627198D01*
X131648565Y-100712040D01*
X131601802Y-100786898D01*
X131563799Y-100846987D01*
X131537582Y-100887523D01*
X131526344Y-100903567D01*
X131506228Y-100902697D01*
X131469559Y-100886670D01*
X131453667Y-100877467D01*
X131414653Y-100855874D01*
X131389198Y-100846468D01*
X131385267Y-100847088D01*
X131379225Y-100859056D01*
X131364954Y-100891652D01*
X131341874Y-100946286D01*
X131309404Y-101024366D01*
X131266961Y-101127298D01*
X131213966Y-101256492D01*
X131149836Y-101413355D01*
X131073990Y-101599295D01*
X131017848Y-101737114D01*
X130981535Y-101826294D01*
X130912801Y-101762781D01*
X130874660Y-101726902D01*
X130819280Y-101673990D01*
X130753609Y-101610720D01*
X130684595Y-101543763D01*
X130673118Y-101532579D01*
X130502169Y-101365889D01*
X130461451Y-101416360D01*
X130397223Y-101496284D01*
X130324126Y-101587768D01*
X130244993Y-101687216D01*
X130162659Y-101791031D01*
X130079956Y-101895617D01*
X129999719Y-101997375D01*
X129924780Y-102092709D01*
X129857975Y-102178023D01*
X129802137Y-102249720D01*
X129760099Y-102304202D01*
X129734695Y-102337873D01*
X129728709Y-102346434D01*
X129723303Y-102365459D01*
X128712468Y-102365459D01*
X128729411Y-102336107D01*
X128755973Y-102274269D01*
X128759451Y-102261767D01*
X128763440Y-102232558D01*
X128754440Y-102218211D01*
X128727024Y-102217745D01*
X128675762Y-102230182D01*
X128641191Y-102240417D01*
X128593132Y-102254759D01*
X128560740Y-102263980D01*
X128553076Y-102265817D01*
X128561783Y-102255097D01*
X128589351Y-102226529D01*
X128630275Y-102185786D01*
X128640393Y-102175879D01*
X128696684Y-102116733D01*
X128745815Y-102057459D01*
X128782608Y-102005009D01*
X128801883Y-101966332D01*
X128803537Y-101956967D01*
X128800191Y-101955308D01*
X129507338Y-101955308D01*
X129514799Y-101979758D01*
X129518081Y-101987039D01*
X129539695Y-102018678D01*
X129563509Y-102018308D01*
X129592989Y-101985681D01*
X129595849Y-101981439D01*
X129609893Y-101956885D01*
X129603264Y-101946548D01*
X129569969Y-101944289D01*
X129559562Y-101944267D01*
X129519964Y-101945844D01*
X129507338Y-101955308D01*
X128800191Y-101955308D01*
X128788382Y-101949454D01*
X128749759Y-101944605D01*
X128723167Y-101943699D01*
X128642733Y-101943131D01*
X128709205Y-101888873D01*
X128745228Y-101853697D01*
X128787664Y-101803915D01*
X128830696Y-101747531D01*
X128868508Y-101692551D01*
X128895280Y-101646981D01*
X128905200Y-101619166D01*
X128892111Y-101606961D01*
X128884033Y-101606864D01*
X128841498Y-101608776D01*
X128829241Y-101597934D01*
X128845378Y-101572183D01*
X128849580Y-101567500D01*
X128873016Y-101536094D01*
X128901207Y-101490304D01*
X128929461Y-101439027D01*
X128953080Y-101391160D01*
X128967370Y-101355601D01*
X128968717Y-101341739D01*
X128949855Y-101341627D01*
X128911880Y-101349757D01*
X128904190Y-101351890D01*
X128853508Y-101364918D01*
X128832488Y-101363980D01*
X128838757Y-101346091D01*
X128869705Y-101308534D01*
X128897216Y-101271965D01*
X128930728Y-101220152D01*
X128965184Y-101161952D01*
X128995527Y-101106221D01*
X129016699Y-101061814D01*
X129023733Y-101038816D01*
X129008992Y-101032528D01*
X128973483Y-101029867D01*
X128972933Y-101029867D01*
X128934037Y-101026182D01*
X128925036Y-101012108D01*
X128944564Y-100983117D01*
X128955267Y-100971380D01*
X128978442Y-100941540D01*
X129012860Y-100891043D01*
X129052753Y-100828516D01*
X129072868Y-100795570D01*
X129157336Y-100655029D01*
X129194247Y-100728148D01*
X129223156Y-100779870D01*
X129263261Y-100844785D01*
X129305246Y-100907911D01*
X129340483Y-100959561D01*
X129366633Y-100999657D01*
X129378948Y-101020876D01*
X129379333Y-101022211D01*
X129364597Y-101027606D01*
X129329138Y-101029867D01*
X129328896Y-101029867D01*
X129294525Y-101032142D01*
X129287235Y-101045698D01*
X129298641Y-101076434D01*
X129321261Y-101121985D01*
X129352552Y-101176781D01*
X129387548Y-101233132D01*
X129421277Y-101283350D01*
X129448771Y-101319744D01*
X129465061Y-101334625D01*
X129465518Y-101334667D01*
X129480330Y-101347742D01*
X129480933Y-101352741D01*
X129467607Y-101363336D01*
X129447066Y-101361208D01*
X129400305Y-101347942D01*
X129379333Y-101341992D01*
X129351099Y-101342379D01*
X129345466Y-101354943D01*
X129355015Y-101390384D01*
X129379552Y-101441334D01*
X129412915Y-101496853D01*
X129448940Y-101546000D01*
X129460435Y-101559033D01*
X129486395Y-101591300D01*
X129486359Y-101606357D01*
X129479868Y-101608179D01*
X129439868Y-101612253D01*
X129430133Y-101613204D01*
X129411976Y-101622623D01*
X129414092Y-101647842D01*
X129437462Y-101692374D01*
X129463026Y-101731185D01*
X129505719Y-101787659D01*
X129551297Y-101839109D01*
X129593569Y-101879441D01*
X129626344Y-101902561D01*
X129639982Y-101905362D01*
X129661488Y-101887584D01*
X129657430Y-101867439D01*
X129634744Y-101859600D01*
X129609166Y-101857306D01*
X129602554Y-101846521D01*
X129615900Y-101821395D01*
X129648550Y-101778174D01*
X129681300Y-101731143D01*
X129705029Y-101687558D01*
X129709666Y-101675335D01*
X129715154Y-101649620D01*
X129705198Y-101640737D01*
X129671997Y-101644376D01*
X129658228Y-101646911D01*
X129594758Y-101658818D01*
X129653844Y-101589789D01*
X129694491Y-101534987D01*
X129729033Y-101476136D01*
X129739503Y-101453113D01*
X129766075Y-101385467D01*
X129680114Y-101385467D01*
X129721876Y-101330434D01*
X129754327Y-101283772D01*
X129792205Y-101223867D01*
X129814092Y-101186744D01*
X129864547Y-101098087D01*
X129958383Y-101241777D01*
X130000215Y-101306552D01*
X130025092Y-101348246D01*
X130034906Y-101371915D01*
X130031548Y-101382618D01*
X130016909Y-101385411D01*
X130012110Y-101385467D01*
X129981329Y-101388357D01*
X129972000Y-101393481D01*
X129979235Y-101416046D01*
X129997067Y-101454256D01*
X130019685Y-101497216D01*
X130041278Y-101534028D01*
X130056035Y-101553797D01*
X130058031Y-101554800D01*
X130074165Y-101542447D01*
X130101918Y-101511122D01*
X130117435Y-101491300D01*
X130182599Y-101406009D01*
X130248897Y-101321303D01*
X130312918Y-101241323D01*
X130371246Y-101170211D01*
X130420470Y-101112108D01*
X130457174Y-101071154D01*
X130477946Y-101051492D01*
X130480851Y-101050418D01*
X130497221Y-101063332D01*
X130533063Y-101095372D01*
X130583530Y-101142094D01*
X130643773Y-101199055D01*
X130661629Y-101216134D01*
X130726243Y-101277871D01*
X130784756Y-101333378D01*
X130831468Y-101377274D01*
X130860681Y-101404182D01*
X130864047Y-101407162D01*
X130872743Y-101416034D01*
X130879739Y-101423364D01*
X130886421Y-101426358D01*
X130894178Y-101422220D01*
X130904394Y-101408153D01*
X130918458Y-101381363D01*
X130937755Y-101339054D01*
X130963673Y-101278430D01*
X130997598Y-101196695D01*
X131040917Y-101091055D01*
X131095017Y-100958713D01*
X131135192Y-100860533D01*
X131171555Y-100772020D01*
X131206145Y-100688312D01*
X131235597Y-100617514D01*
X131256548Y-100567732D01*
X131260383Y-100558779D01*
X131291946Y-100485625D01*
X131349005Y-100529146D01*
X131388257Y-100556243D01*
X131417536Y-100571462D01*
X131423089Y-100572667D01*
X131439830Y-100559204D01*
X131467249Y-100523935D01*
X131498908Y-100475300D01*
X131584860Y-100333275D01*
X131655108Y-100218002D01*
X131711195Y-100127087D01*
X131754663Y-100058137D01*
X131787056Y-100008756D01*
X131809915Y-99976551D01*
X131824784Y-99959127D01*
X131833205Y-99954091D01*
X131834491Y-99954492D01*
X131834491Y-99954492D01*
G37*
X131834491Y-99954492D02*
X131847320Y-99969528D01*
X131878191Y-100008924D01*
X131924955Y-100069849D01*
X131985465Y-100149472D01*
X132057575Y-100244961D01*
X132139136Y-100353485D01*
X132228003Y-100472212D01*
X132284639Y-100548111D01*
X132376587Y-100670805D01*
X132462487Y-100784148D01*
X132540222Y-100885438D01*
X132607672Y-100971972D01*
X132662720Y-101041049D01*
X132703247Y-101089968D01*
X132727134Y-101116026D01*
X132732685Y-101119491D01*
X132742157Y-101099217D01*
X132759638Y-101053010D01*
X132782848Y-100987201D01*
X132809508Y-100908123D01*
X132816800Y-100885933D01*
X132843955Y-100804462D01*
X132868218Y-100734634D01*
X132887319Y-100682768D01*
X132898990Y-100655181D01*
X132900545Y-100652746D01*
X132913599Y-100662134D01*
X132944719Y-100695069D01*
X132991192Y-100748358D01*
X133050303Y-100818804D01*
X133119338Y-100903214D01*
X133195583Y-100998393D01*
X133214777Y-101022640D01*
X133517219Y-101405587D01*
X133554899Y-101332027D01*
X133592580Y-101258467D01*
X133494628Y-101247891D01*
X133560208Y-101160046D01*
X133602688Y-101099057D01*
X133642643Y-101035015D01*
X133663220Y-100997655D01*
X133700653Y-100923109D01*
X133768112Y-101039988D01*
X133806700Y-101103018D01*
X133845623Y-101160369D01*
X133877075Y-101200603D01*
X133879687Y-101203434D01*
X133923803Y-101250000D01*
X133869835Y-101250000D01*
X133832800Y-101253108D01*
X133815962Y-101260657D01*
X133815866Y-101261331D01*
X133824641Y-101286284D01*
X133847340Y-101330001D01*
X133878529Y-101383461D01*
X133912773Y-101437639D01*
X133944637Y-101483513D01*
X133964193Y-101507567D01*
X134007192Y-101553467D01*
X133943808Y-101535966D01*
X133901178Y-101526860D01*
X133874294Y-101526055D01*
X133871454Y-101527434D01*
X133872944Y-101547076D01*
X133888538Y-101585293D01*
X133913277Y-101632667D01*
X133942203Y-101679781D01*
X133970358Y-101717217D01*
X133972786Y-101719900D01*
X134008037Y-101758000D01*
X133962752Y-101758000D01*
X133925880Y-101764630D01*
X133920266Y-101783227D01*
X133941351Y-101807542D01*
X133957768Y-101813219D01*
X133978357Y-101800879D01*
X134008185Y-101766355D01*
X134034106Y-101731187D01*
X134067065Y-101681528D01*
X134088540Y-101641989D01*
X134094118Y-101620758D01*
X134093889Y-101620305D01*
X134071803Y-101609125D01*
X134041713Y-101605600D01*
X133998625Y-101605600D01*
X134046946Y-101550413D01*
X134077746Y-101509283D01*
X134108280Y-101459088D01*
X134133982Y-101408849D01*
X134150284Y-101367587D01*
X134152619Y-101344322D01*
X134151828Y-101343250D01*
X134131885Y-101342104D01*
X134093447Y-101349763D01*
X134086800Y-101351600D01*
X134041225Y-101362166D01*
X134025266Y-101357392D01*
X134037289Y-101334992D01*
X134058011Y-101311323D01*
X134085596Y-101275509D01*
X134118863Y-101223908D01*
X134152604Y-101165803D01*
X134181612Y-101110480D01*
X134200681Y-101067221D01*
X134205333Y-101048663D01*
X134190854Y-101034538D01*
X134163000Y-101029867D01*
X134131140Y-101027239D01*
X134120667Y-101022211D01*
X134129641Y-101005652D01*
X134153401Y-100968749D01*
X134187199Y-100918826D01*
X134194754Y-100907911D01*
X134237448Y-100843649D01*
X134277682Y-100778382D01*
X134306280Y-100727114D01*
X134343719Y-100652961D01*
X134419592Y-100786381D01*
X134458856Y-100852160D01*
X134497474Y-100911375D01*
X134528879Y-100954121D01*
X134536903Y-100963308D01*
X134564205Y-100999597D01*
X134561403Y-101021097D01*
X134527936Y-101029573D01*
X134515778Y-101029867D01*
X134485296Y-101033138D01*
X134476267Y-101038816D01*
X134484820Y-101065399D01*
X134507109Y-101111299D01*
X134538076Y-101167661D01*
X134572662Y-101225628D01*
X134605812Y-101276344D01*
X134630294Y-101308534D01*
X134661347Y-101346241D01*
X134667473Y-101364028D01*
X134646297Y-101364882D01*
X134595810Y-101351890D01*
X134555827Y-101342521D01*
X134532641Y-101341030D01*
X134531283Y-101341739D01*
X134534071Y-101360026D01*
X134550143Y-101398115D01*
X134574804Y-101447109D01*
X134603360Y-101498112D01*
X134631114Y-101542226D01*
X134650419Y-101567500D01*
X134670205Y-101595405D01*
X134661849Y-101608114D01*
X134623466Y-101607780D01*
X134615967Y-101606864D01*
X134596461Y-101615731D01*
X134594800Y-101622720D01*
X134605263Y-101651537D01*
X134632747Y-101697399D01*
X134671393Y-101752382D01*
X134715343Y-101808562D01*
X134758738Y-101858013D01*
X134792702Y-101890403D01*
X134857267Y-101943131D01*
X134776833Y-101943699D01*
X134729944Y-101946429D01*
X134700988Y-101952735D01*
X134696463Y-101956967D01*
X134708007Y-101988843D01*
X134738970Y-102037044D01*
X134784174Y-102094620D01*
X134838438Y-102154621D01*
X134859607Y-102175879D01*
X134902704Y-102218518D01*
X134933642Y-102250212D01*
X134946914Y-102265292D01*
X134946924Y-102265817D01*
X134929311Y-102261229D01*
X134889668Y-102249685D01*
X134858809Y-102240417D01*
X134793166Y-102222269D01*
X134753522Y-102216576D01*
X134734423Y-102223239D01*
X134730267Y-102238078D01*
X134739881Y-102273590D01*
X134765455Y-102327248D01*
X134802083Y-102390523D01*
X134844861Y-102454882D01*
X134885009Y-102507213D01*
X134952268Y-102587559D01*
X131749522Y-102591879D01*
X131422756Y-102592291D01*
X131105112Y-102592633D01*
X130798242Y-102592908D01*
X130503798Y-102593114D01*
X130223432Y-102593254D01*
X129958798Y-102593328D01*
X129711546Y-102593335D01*
X129483330Y-102593278D01*
X129275802Y-102593157D01*
X129090613Y-102592972D01*
X128929417Y-102592724D01*
X128793866Y-102592414D01*
X128685611Y-102592042D01*
X128606305Y-102591609D01*
X128557601Y-102591117D01*
X128541155Y-102590578D01*
X128548768Y-102576761D01*
X128574486Y-102548163D01*
X128591504Y-102531311D01*
X128639843Y-102476397D01*
X128688257Y-102407406D01*
X128712468Y-102365459D01*
X129723303Y-102365459D01*
X129738919Y-102365010D01*
X129770339Y-102347022D01*
X129808546Y-102316800D01*
X129846944Y-102286146D01*
X129876333Y-102268064D01*
X129883497Y-102266000D01*
X129899520Y-102280299D01*
X129920044Y-102316380D01*
X129928718Y-102336301D01*
X129956847Y-102406602D01*
X130020171Y-102344768D01*
X130057801Y-102309857D01*
X130085575Y-102287436D01*
X130094178Y-102282934D01*
X130111688Y-102293847D01*
X130142811Y-102321213D01*
X130155661Y-102333734D01*
X130201038Y-102372054D01*
X130234867Y-102380495D01*
X130262784Y-102358362D01*
X130284816Y-102317800D01*
X130304724Y-102277006D01*
X130320262Y-102262167D01*
X130340251Y-102268047D01*
X130354050Y-102276712D01*
X130395256Y-102294228D01*
X130426303Y-102296879D01*
X130462519Y-102303579D01*
X130496055Y-102324515D01*
X130515819Y-102341385D01*
X130532987Y-102347847D01*
X130555457Y-102341928D01*
X130591129Y-102321654D01*
X130644097Y-102287521D01*
X130667979Y-102275034D01*
X130685048Y-102280195D01*
X130703782Y-102308238D01*
X130716193Y-102332021D01*
X130739333Y-102373466D01*
X130757657Y-102389855D01*
X130780129Y-102387067D01*
X130792251Y-102381915D01*
X130828613Y-102352749D01*
X130853594Y-102314240D01*
X130876151Y-102270298D01*
X130899546Y-102255840D01*
X130931778Y-102267252D01*
X130942610Y-102274022D01*
X130986819Y-102293437D01*
X131041930Y-102306179D01*
X131048922Y-102306996D01*
X131107699Y-102319762D01*
X131169865Y-102343026D01*
X131182359Y-102349213D01*
X131249719Y-102384818D01*
X131289329Y-102306879D01*
X131313200Y-102261983D01*
X131329271Y-102242812D01*
X131344667Y-102244694D01*
X131362216Y-102259056D01*
X131394007Y-102294349D01*
X131426824Y-102339934D01*
X131429510Y-102344212D01*
X131467138Y-102390964D01*
X131504292Y-102404759D01*
X131544989Y-102386206D01*
X131567728Y-102365191D01*
X131616394Y-102328051D01*
X131672279Y-102316810D01*
X131674402Y-102316800D01*
X131731782Y-102309246D01*
X131784058Y-102291301D01*
X131819062Y-102275651D01*
X131837760Y-102278263D01*
X131850384Y-102295534D01*
X131878427Y-102342087D01*
X131897370Y-102361886D01*
X131914100Y-102358033D01*
X131935363Y-102333814D01*
X131968077Y-102291561D01*
X132016598Y-102338047D01*
X132061403Y-102373635D01*
X132095798Y-102379864D01*
X132125769Y-102355407D01*
X132153081Y-102307767D01*
X132176822Y-102262911D01*
X132194806Y-102243670D01*
X132214019Y-102244279D01*
X132224188Y-102249096D01*
X132266353Y-102257899D01*
X132294008Y-102247920D01*
X132342846Y-102238650D01*
X132390481Y-102261280D01*
X132433507Y-102313913D01*
X132442720Y-102330702D01*
X132471185Y-102375757D01*
X132504747Y-102398680D01*
X132540776Y-102407648D01*
X132586916Y-102411436D01*
X132619247Y-102398782D01*
X132650222Y-102369056D01*
X132688726Y-102331641D01*
X132724712Y-102304039D01*
X132729341Y-102301361D01*
X132754010Y-102293592D01*
X132774624Y-102305887D01*
X132798935Y-102340693D01*
X132823934Y-102376961D01*
X132845206Y-102389114D01*
X132875235Y-102382774D01*
X132884679Y-102379295D01*
X132926674Y-102368850D01*
X132952664Y-102378278D01*
X132954844Y-102380338D01*
X132973413Y-102387054D01*
X133001532Y-102373354D01*
X133039796Y-102341628D01*
X133079210Y-102308240D01*
X133109031Y-102286979D01*
X133118512Y-102282934D01*
X133133711Y-102296767D01*
X133154986Y-102331335D01*
X133162067Y-102345438D01*
X133191873Y-102407942D01*
X133232925Y-102355487D01*
X133271477Y-102318038D01*
X133305739Y-102311347D01*
X133306609Y-102311565D01*
X133344627Y-102305351D01*
X133369650Y-102284583D01*
X133395505Y-102258491D01*
X133410929Y-102249067D01*
X133422738Y-102263415D01*
X133440601Y-102299928D01*
X133450900Y-102325267D01*
X133471987Y-102370532D01*
X133492028Y-102397990D01*
X133506507Y-102403054D01*
X133511067Y-102386345D01*
X133523674Y-102364815D01*
X133553898Y-102360765D01*
X133590339Y-102374210D01*
X133606008Y-102386232D01*
X133644885Y-102422755D01*
X133712081Y-102389509D01*
X133770205Y-102368098D01*
X133806360Y-102371420D01*
X133834701Y-102371577D01*
X133872105Y-102354995D01*
X133906758Y-102329453D01*
X133926847Y-102302729D01*
X133927771Y-102291473D01*
X133916317Y-102273882D01*
X133886510Y-102233641D01*
X133840929Y-102173992D01*
X133782153Y-102098175D01*
X133712759Y-102009432D01*
X133635328Y-101911004D01*
X133552437Y-101806134D01*
X133466665Y-101698062D01*
X133380591Y-101590030D01*
X133296793Y-101485279D01*
X133217851Y-101387051D01*
X133146342Y-101298586D01*
X133084846Y-101223128D01*
X133035941Y-101163916D01*
X133002206Y-101124193D01*
X132986218Y-101107200D01*
X132985350Y-101106827D01*
X132977070Y-101124029D01*
X132960619Y-101167593D01*
X132938110Y-101231611D01*
X132911657Y-101310179D01*
X132901212Y-101342001D01*
X132873787Y-101423952D01*
X132849328Y-101492994D01*
X132829972Y-101543396D01*
X132817854Y-101569425D01*
X132815582Y-101571733D01*
X132803543Y-101558600D01*
X132773369Y-101521011D01*
X132727140Y-101461684D01*
X132666936Y-101383334D01*
X132594835Y-101288680D01*
X132512919Y-101180436D01*
X132423266Y-101061321D01*
X132349386Y-100962722D01*
X132255072Y-100837132D01*
X132166704Y-100720470D01*
X132086382Y-100615431D01*
X132016201Y-100524712D01*
X131958259Y-100451008D01*
X131914654Y-100397016D01*
X131887482Y-100365431D01*
X131879044Y-100358085D01*
X131865827Y-100373251D01*
X131838129Y-100412748D01*
X131799015Y-100471940D01*
X131751553Y-100546191D01*
X131701064Y-100627198D01*
X131648565Y-100712040D01*
X131601802Y-100786898D01*
X131563799Y-100846987D01*
X131537582Y-100887523D01*
X131526344Y-100903567D01*
X131506228Y-100902697D01*
X131469559Y-100886670D01*
X131453667Y-100877467D01*
X131414653Y-100855874D01*
X131389198Y-100846468D01*
X131385267Y-100847088D01*
X131379225Y-100859056D01*
X131364954Y-100891652D01*
X131341874Y-100946286D01*
X131309404Y-101024366D01*
X131266961Y-101127298D01*
X131213966Y-101256492D01*
X131149836Y-101413355D01*
X131073990Y-101599295D01*
X131017848Y-101737114D01*
X130981535Y-101826294D01*
X130912801Y-101762781D01*
X130874660Y-101726902D01*
X130819280Y-101673990D01*
X130753609Y-101610720D01*
X130684595Y-101543763D01*
X130673118Y-101532579D01*
X130502169Y-101365889D01*
X130461451Y-101416360D01*
X130397223Y-101496284D01*
X130324126Y-101587768D01*
X130244993Y-101687216D01*
X130162659Y-101791031D01*
X130079956Y-101895617D01*
X129999719Y-101997375D01*
X129924780Y-102092709D01*
X129857975Y-102178023D01*
X129802137Y-102249720D01*
X129760099Y-102304202D01*
X129734695Y-102337873D01*
X129728709Y-102346434D01*
X129723303Y-102365459D01*
X128712468Y-102365459D01*
X128729411Y-102336107D01*
X128755973Y-102274269D01*
X128759451Y-102261767D01*
X128763440Y-102232558D01*
X128754440Y-102218211D01*
X128727024Y-102217745D01*
X128675762Y-102230182D01*
X128641191Y-102240417D01*
X128593132Y-102254759D01*
X128560740Y-102263980D01*
X128553076Y-102265817D01*
X128561783Y-102255097D01*
X128589351Y-102226529D01*
X128630275Y-102185786D01*
X128640393Y-102175879D01*
X128696684Y-102116733D01*
X128745815Y-102057459D01*
X128782608Y-102005009D01*
X128801883Y-101966332D01*
X128803537Y-101956967D01*
X128800191Y-101955308D01*
X129507338Y-101955308D01*
X129514799Y-101979758D01*
X129518081Y-101987039D01*
X129539695Y-102018678D01*
X129563509Y-102018308D01*
X129592989Y-101985681D01*
X129595849Y-101981439D01*
X129609893Y-101956885D01*
X129603264Y-101946548D01*
X129569969Y-101944289D01*
X129559562Y-101944267D01*
X129519964Y-101945844D01*
X129507338Y-101955308D01*
X128800191Y-101955308D01*
X128788382Y-101949454D01*
X128749759Y-101944605D01*
X128723167Y-101943699D01*
X128642733Y-101943131D01*
X128709205Y-101888873D01*
X128745228Y-101853697D01*
X128787664Y-101803915D01*
X128830696Y-101747531D01*
X128868508Y-101692551D01*
X128895280Y-101646981D01*
X128905200Y-101619166D01*
X128892111Y-101606961D01*
X128884033Y-101606864D01*
X128841498Y-101608776D01*
X128829241Y-101597934D01*
X128845378Y-101572183D01*
X128849580Y-101567500D01*
X128873016Y-101536094D01*
X128901207Y-101490304D01*
X128929461Y-101439027D01*
X128953080Y-101391160D01*
X128967370Y-101355601D01*
X128968717Y-101341739D01*
X128949855Y-101341627D01*
X128911880Y-101349757D01*
X128904190Y-101351890D01*
X128853508Y-101364918D01*
X128832488Y-101363980D01*
X128838757Y-101346091D01*
X128869705Y-101308534D01*
X128897216Y-101271965D01*
X128930728Y-101220152D01*
X128965184Y-101161952D01*
X128995527Y-101106221D01*
X129016699Y-101061814D01*
X129023733Y-101038816D01*
X129008992Y-101032528D01*
X128973483Y-101029867D01*
X128972933Y-101029867D01*
X128934037Y-101026182D01*
X128925036Y-101012108D01*
X128944564Y-100983117D01*
X128955267Y-100971380D01*
X128978442Y-100941540D01*
X129012860Y-100891043D01*
X129052753Y-100828516D01*
X129072868Y-100795570D01*
X129157336Y-100655029D01*
X129194247Y-100728148D01*
X129223156Y-100779870D01*
X129263261Y-100844785D01*
X129305246Y-100907911D01*
X129340483Y-100959561D01*
X129366633Y-100999657D01*
X129378948Y-101020876D01*
X129379333Y-101022211D01*
X129364597Y-101027606D01*
X129329138Y-101029867D01*
X129328896Y-101029867D01*
X129294525Y-101032142D01*
X129287235Y-101045698D01*
X129298641Y-101076434D01*
X129321261Y-101121985D01*
X129352552Y-101176781D01*
X129387548Y-101233132D01*
X129421277Y-101283350D01*
X129448771Y-101319744D01*
X129465061Y-101334625D01*
X129465518Y-101334667D01*
X129480330Y-101347742D01*
X129480933Y-101352741D01*
X129467607Y-101363336D01*
X129447066Y-101361208D01*
X129400305Y-101347942D01*
X129379333Y-101341992D01*
X129351099Y-101342379D01*
X129345466Y-101354943D01*
X129355015Y-101390384D01*
X129379552Y-101441334D01*
X129412915Y-101496853D01*
X129448940Y-101546000D01*
X129460435Y-101559033D01*
X129486395Y-101591300D01*
X129486359Y-101606357D01*
X129479868Y-101608179D01*
X129439868Y-101612253D01*
X129430133Y-101613204D01*
X129411976Y-101622623D01*
X129414092Y-101647842D01*
X129437462Y-101692374D01*
X129463026Y-101731185D01*
X129505719Y-101787659D01*
X129551297Y-101839109D01*
X129593569Y-101879441D01*
X129626344Y-101902561D01*
X129639982Y-101905362D01*
X129661488Y-101887584D01*
X129657430Y-101867439D01*
X129634744Y-101859600D01*
X129609166Y-101857306D01*
X129602554Y-101846521D01*
X129615900Y-101821395D01*
X129648550Y-101778174D01*
X129681300Y-101731143D01*
X129705029Y-101687558D01*
X129709666Y-101675335D01*
X129715154Y-101649620D01*
X129705198Y-101640737D01*
X129671997Y-101644376D01*
X129658228Y-101646911D01*
X129594758Y-101658818D01*
X129653844Y-101589789D01*
X129694491Y-101534987D01*
X129729033Y-101476136D01*
X129739503Y-101453113D01*
X129766075Y-101385467D01*
X129680114Y-101385467D01*
X129721876Y-101330434D01*
X129754327Y-101283772D01*
X129792205Y-101223867D01*
X129814092Y-101186744D01*
X129864547Y-101098087D01*
X129958383Y-101241777D01*
X130000215Y-101306552D01*
X130025092Y-101348246D01*
X130034906Y-101371915D01*
X130031548Y-101382618D01*
X130016909Y-101385411D01*
X130012110Y-101385467D01*
X129981329Y-101388357D01*
X129972000Y-101393481D01*
X129979235Y-101416046D01*
X129997067Y-101454256D01*
X130019685Y-101497216D01*
X130041278Y-101534028D01*
X130056035Y-101553797D01*
X130058031Y-101554800D01*
X130074165Y-101542447D01*
X130101918Y-101511122D01*
X130117435Y-101491300D01*
X130182599Y-101406009D01*
X130248897Y-101321303D01*
X130312918Y-101241323D01*
X130371246Y-101170211D01*
X130420470Y-101112108D01*
X130457174Y-101071154D01*
X130477946Y-101051492D01*
X130480851Y-101050418D01*
X130497221Y-101063332D01*
X130533063Y-101095372D01*
X130583530Y-101142094D01*
X130643773Y-101199055D01*
X130661629Y-101216134D01*
X130726243Y-101277871D01*
X130784756Y-101333378D01*
X130831468Y-101377274D01*
X130860681Y-101404182D01*
X130864047Y-101407162D01*
X130872743Y-101416034D01*
X130879739Y-101423364D01*
X130886421Y-101426358D01*
X130894178Y-101422220D01*
X130904394Y-101408153D01*
X130918458Y-101381363D01*
X130937755Y-101339054D01*
X130963673Y-101278430D01*
X130997598Y-101196695D01*
X131040917Y-101091055D01*
X131095017Y-100958713D01*
X131135192Y-100860533D01*
X131171555Y-100772020D01*
X131206145Y-100688312D01*
X131235597Y-100617514D01*
X131256548Y-100567732D01*
X131260383Y-100558779D01*
X131291946Y-100485625D01*
X131349005Y-100529146D01*
X131388257Y-100556243D01*
X131417536Y-100571462D01*
X131423089Y-100572667D01*
X131439830Y-100559204D01*
X131467249Y-100523935D01*
X131498908Y-100475300D01*
X131584860Y-100333275D01*
X131655108Y-100218002D01*
X131711195Y-100127087D01*
X131754663Y-100058137D01*
X131787056Y-100008756D01*
X131809915Y-99976551D01*
X131824784Y-99959127D01*
X131833205Y-99954091D01*
X131834491Y-99954492D01*
D13*
%TO.C,C1*%
X136740000Y-96146267D02*
X136740000Y-95853733D01*
X137760000Y-96146267D02*
X137760000Y-95853733D01*
%TO.C,C2.0*%
X130050000Y-96146267D02*
X130050000Y-95853733D01*
X129030000Y-96146267D02*
X129030000Y-95853733D01*
%TO.C,C2.1*%
X131240000Y-96146267D02*
X131240000Y-95853733D01*
X132260000Y-96146267D02*
X132260000Y-95853733D01*
%TO.C,C3*%
X123683752Y-94015000D02*
X123161248Y-94015000D01*
X123683752Y-95485000D02*
X123161248Y-95485000D01*
%TO.C,C4*%
X123161248Y-96555000D02*
X123683752Y-96555000D01*
X123161248Y-98025000D02*
X123683752Y-98025000D01*
%TO.C,FB0*%
X123696252Y-100540000D02*
X123173748Y-100540000D01*
X123696252Y-99120000D02*
X123173748Y-99120000D01*
D10*
%TO.C,IC0*%
X141400000Y-91676000D02*
X144600000Y-91676000D01*
X144600000Y-91676000D02*
X144600000Y-100324000D01*
X144600000Y-100324000D02*
X141400000Y-100324000D01*
X141400000Y-100324000D02*
X141400000Y-91676000D01*
X139525000Y-92575000D02*
X141050000Y-92575000D01*
D13*
%TO.C,LED0*%
X135850000Y-97000000D02*
X135850000Y-94140000D01*
X135850000Y-94140000D02*
X133930000Y-94140000D01*
X133930000Y-94140000D02*
X133930000Y-97000000D01*
%TO.C,R0*%
X123232936Y-91475000D02*
X123687064Y-91475000D01*
X123232936Y-92945000D02*
X123687064Y-92945000D01*
%TO.C,RX0*%
X150450000Y-100750000D02*
G75*
G03X150450000Y-100750000I-1450000J0D01*
G01*
%TO.C,TX0*%
X150450000Y-91250000D02*
G75*
G03X150450000Y-91250000I-1450000J0D01*
G01*
%TO.C,J0*%
D14*
X154829523Y-96423333D02*
X155736666Y-96423333D01*
X155918095Y-96483809D01*
X156039047Y-96604761D01*
X156099523Y-96786190D01*
X156099523Y-96907142D01*
X154829523Y-95576666D02*
X154829523Y-95455714D01*
X154890000Y-95334761D01*
X154950476Y-95274285D01*
X155071428Y-95213809D01*
X155313333Y-95153333D01*
X155615714Y-95153333D01*
X155857619Y-95213809D01*
X155978571Y-95274285D01*
X156039047Y-95334761D01*
X156099523Y-95455714D01*
X156099523Y-95576666D01*
X156039047Y-95697619D01*
X155978571Y-95758095D01*
X155857619Y-95818571D01*
X155615714Y-95879047D01*
X155313333Y-95879047D01*
X155071428Y-95818571D01*
X154950476Y-95758095D01*
X154890000Y-95697619D01*
X154829523Y-95576666D01*
%TO.C,C1*%
D15*
X137607142Y-93219166D02*
X137654761Y-93266785D01*
X137702380Y-93409642D01*
X137702380Y-93504880D01*
X137654761Y-93647738D01*
X137559523Y-93742976D01*
X137464285Y-93790595D01*
X137273809Y-93838214D01*
X137130952Y-93838214D01*
X136940476Y-93790595D01*
X136845238Y-93742976D01*
X136750000Y-93647738D01*
X136702380Y-93504880D01*
X136702380Y-93409642D01*
X136750000Y-93266785D01*
X136797619Y-93219166D01*
X137702380Y-92266785D02*
X137702380Y-92838214D01*
X137702380Y-92552500D02*
X136702380Y-92552500D01*
X136845238Y-92647738D01*
X136940476Y-92742976D01*
X136988095Y-92838214D01*
%TO.C,C2.0*%
X129857142Y-93130952D02*
X129904761Y-93178571D01*
X129952380Y-93321428D01*
X129952380Y-93416666D01*
X129904761Y-93559523D01*
X129809523Y-93654761D01*
X129714285Y-93702380D01*
X129523809Y-93750000D01*
X129380952Y-93750000D01*
X129190476Y-93702380D01*
X129095238Y-93654761D01*
X129000000Y-93559523D01*
X128952380Y-93416666D01*
X128952380Y-93321428D01*
X129000000Y-93178571D01*
X129047619Y-93130952D01*
X129047619Y-92750000D02*
X129000000Y-92702380D01*
X128952380Y-92607142D01*
X128952380Y-92369047D01*
X129000000Y-92273809D01*
X129047619Y-92226190D01*
X129142857Y-92178571D01*
X129238095Y-92178571D01*
X129380952Y-92226190D01*
X129952380Y-92797619D01*
X129952380Y-92178571D01*
X129857142Y-91750000D02*
X129904761Y-91702380D01*
X129952380Y-91750000D01*
X129904761Y-91797619D01*
X129857142Y-91750000D01*
X129952380Y-91750000D01*
X128952380Y-91083333D02*
X128952380Y-90988095D01*
X129000000Y-90892857D01*
X129047619Y-90845238D01*
X129142857Y-90797619D01*
X129333333Y-90750000D01*
X129571428Y-90750000D01*
X129761904Y-90797619D01*
X129857142Y-90845238D01*
X129904761Y-90892857D01*
X129952380Y-90988095D01*
X129952380Y-91083333D01*
X129904761Y-91178571D01*
X129857142Y-91226190D01*
X129761904Y-91273809D01*
X129571428Y-91321428D01*
X129333333Y-91321428D01*
X129142857Y-91273809D01*
X129047619Y-91226190D01*
X129000000Y-91178571D01*
X128952380Y-91083333D01*
%TO.C,C2.1*%
X132107142Y-93130952D02*
X132154761Y-93178571D01*
X132202380Y-93321428D01*
X132202380Y-93416666D01*
X132154761Y-93559523D01*
X132059523Y-93654761D01*
X131964285Y-93702380D01*
X131773809Y-93750000D01*
X131630952Y-93750000D01*
X131440476Y-93702380D01*
X131345238Y-93654761D01*
X131250000Y-93559523D01*
X131202380Y-93416666D01*
X131202380Y-93321428D01*
X131250000Y-93178571D01*
X131297619Y-93130952D01*
X131297619Y-92750000D02*
X131250000Y-92702380D01*
X131202380Y-92607142D01*
X131202380Y-92369047D01*
X131250000Y-92273809D01*
X131297619Y-92226190D01*
X131392857Y-92178571D01*
X131488095Y-92178571D01*
X131630952Y-92226190D01*
X132202380Y-92797619D01*
X132202380Y-92178571D01*
X132107142Y-91750000D02*
X132154761Y-91702380D01*
X132202380Y-91750000D01*
X132154761Y-91797619D01*
X132107142Y-91750000D01*
X132202380Y-91750000D01*
X132202380Y-90750000D02*
X132202380Y-91321428D01*
X132202380Y-91035714D02*
X131202380Y-91035714D01*
X131345238Y-91130952D01*
X131440476Y-91226190D01*
X131488095Y-91321428D01*
%TO.C,C3*%
X126333333Y-95107142D02*
X126285714Y-95154761D01*
X126142857Y-95202380D01*
X126047619Y-95202380D01*
X125904761Y-95154761D01*
X125809523Y-95059523D01*
X125761904Y-94964285D01*
X125714285Y-94773809D01*
X125714285Y-94630952D01*
X125761904Y-94440476D01*
X125809523Y-94345238D01*
X125904761Y-94250000D01*
X126047619Y-94202380D01*
X126142857Y-94202380D01*
X126285714Y-94250000D01*
X126333333Y-94297619D01*
X126666666Y-94202380D02*
X127285714Y-94202380D01*
X126952380Y-94583333D01*
X127095238Y-94583333D01*
X127190476Y-94630952D01*
X127238095Y-94678571D01*
X127285714Y-94773809D01*
X127285714Y-95011904D01*
X127238095Y-95107142D01*
X127190476Y-95154761D01*
X127095238Y-95202380D01*
X126809523Y-95202380D01*
X126714285Y-95154761D01*
X126666666Y-95107142D01*
%TO.C,C4*%
X126333333Y-97647142D02*
X126285714Y-97694761D01*
X126142857Y-97742380D01*
X126047619Y-97742380D01*
X125904761Y-97694761D01*
X125809523Y-97599523D01*
X125761904Y-97504285D01*
X125714285Y-97313809D01*
X125714285Y-97170952D01*
X125761904Y-96980476D01*
X125809523Y-96885238D01*
X125904761Y-96790000D01*
X126047619Y-96742380D01*
X126142857Y-96742380D01*
X126285714Y-96790000D01*
X126333333Y-96837619D01*
X127190476Y-97075714D02*
X127190476Y-97742380D01*
X126952380Y-96694761D02*
X126714285Y-97409047D01*
X127333333Y-97409047D01*
%TO.C,FB0*%
X126166666Y-99758571D02*
X125833333Y-99758571D01*
X125833333Y-100282380D02*
X125833333Y-99282380D01*
X126309523Y-99282380D01*
X127023809Y-99758571D02*
X127166666Y-99806190D01*
X127214285Y-99853809D01*
X127261904Y-99949047D01*
X127261904Y-100091904D01*
X127214285Y-100187142D01*
X127166666Y-100234761D01*
X127071428Y-100282380D01*
X126690476Y-100282380D01*
X126690476Y-99282380D01*
X127023809Y-99282380D01*
X127119047Y-99330000D01*
X127166666Y-99377619D01*
X127214285Y-99472857D01*
X127214285Y-99568095D01*
X127166666Y-99663333D01*
X127119047Y-99710952D01*
X127023809Y-99758571D01*
X126690476Y-99758571D01*
X127880952Y-99282380D02*
X127976190Y-99282380D01*
X128071428Y-99330000D01*
X128119047Y-99377619D01*
X128166666Y-99472857D01*
X128214285Y-99663333D01*
X128214285Y-99901428D01*
X128166666Y-100091904D01*
X128119047Y-100187142D01*
X128071428Y-100234761D01*
X127976190Y-100282380D01*
X127880952Y-100282380D01*
X127785714Y-100234761D01*
X127738095Y-100187142D01*
X127690476Y-100091904D01*
X127642857Y-99901428D01*
X127642857Y-99663333D01*
X127690476Y-99472857D01*
X127738095Y-99377619D01*
X127785714Y-99330000D01*
X127880952Y-99282380D01*
%TO.C,IC0*%
D14*
X139510238Y-91074523D02*
X139510238Y-89804523D01*
X140840714Y-90953571D02*
X140780238Y-91014047D01*
X140598809Y-91074523D01*
X140477857Y-91074523D01*
X140296428Y-91014047D01*
X140175476Y-90893095D01*
X140115000Y-90772142D01*
X140054523Y-90530238D01*
X140054523Y-90348809D01*
X140115000Y-90106904D01*
X140175476Y-89985952D01*
X140296428Y-89865000D01*
X140477857Y-89804523D01*
X140598809Y-89804523D01*
X140780238Y-89865000D01*
X140840714Y-89925476D01*
X141626904Y-89804523D02*
X141747857Y-89804523D01*
X141868809Y-89865000D01*
X141929285Y-89925476D01*
X141989761Y-90046428D01*
X142050238Y-90288333D01*
X142050238Y-90590714D01*
X141989761Y-90832619D01*
X141929285Y-90953571D01*
X141868809Y-91014047D01*
X141747857Y-91074523D01*
X141626904Y-91074523D01*
X141505952Y-91014047D01*
X141445476Y-90953571D01*
X141385000Y-90832619D01*
X141324523Y-90590714D01*
X141324523Y-90288333D01*
X141385000Y-90046428D01*
X141445476Y-89925476D01*
X141505952Y-89865000D01*
X141626904Y-89804523D01*
%TO.C,LED0*%
D15*
X135342380Y-93064047D02*
X135342380Y-93540238D01*
X134342380Y-93540238D01*
X134818571Y-92730714D02*
X134818571Y-92397380D01*
X135342380Y-92254523D02*
X135342380Y-92730714D01*
X134342380Y-92730714D01*
X134342380Y-92254523D01*
X135342380Y-91825952D02*
X134342380Y-91825952D01*
X134342380Y-91587857D01*
X134390000Y-91445000D01*
X134485238Y-91349761D01*
X134580476Y-91302142D01*
X134770952Y-91254523D01*
X134913809Y-91254523D01*
X135104285Y-91302142D01*
X135199523Y-91349761D01*
X135294761Y-91445000D01*
X135342380Y-91587857D01*
X135342380Y-91825952D01*
X134342380Y-90635476D02*
X134342380Y-90540238D01*
X134390000Y-90445000D01*
X134437619Y-90397380D01*
X134532857Y-90349761D01*
X134723333Y-90302142D01*
X134961428Y-90302142D01*
X135151904Y-90349761D01*
X135247142Y-90397380D01*
X135294761Y-90445000D01*
X135342380Y-90540238D01*
X135342380Y-90635476D01*
X135294761Y-90730714D01*
X135247142Y-90778333D01*
X135151904Y-90825952D01*
X134961428Y-90873571D01*
X134723333Y-90873571D01*
X134532857Y-90825952D01*
X134437619Y-90778333D01*
X134390000Y-90730714D01*
X134342380Y-90635476D01*
%TO.C,R0*%
X126333333Y-92662380D02*
X126000000Y-92186190D01*
X125761904Y-92662380D02*
X125761904Y-91662380D01*
X126142857Y-91662380D01*
X126238095Y-91710000D01*
X126285714Y-91757619D01*
X126333333Y-91852857D01*
X126333333Y-91995714D01*
X126285714Y-92090952D01*
X126238095Y-92138571D01*
X126142857Y-92186190D01*
X125761904Y-92186190D01*
X126952380Y-91662380D02*
X127047619Y-91662380D01*
X127142857Y-91710000D01*
X127190476Y-91757619D01*
X127238095Y-91852857D01*
X127285714Y-92043333D01*
X127285714Y-92281428D01*
X127238095Y-92471904D01*
X127190476Y-92567142D01*
X127142857Y-92614761D01*
X127047619Y-92662380D01*
X126952380Y-92662380D01*
X126857142Y-92614761D01*
X126809523Y-92567142D01*
X126761904Y-92471904D01*
X126714285Y-92281428D01*
X126714285Y-92043333D01*
X126761904Y-91852857D01*
X126809523Y-91757619D01*
X126857142Y-91710000D01*
X126952380Y-91662380D01*
%TO.C,RX0*%
X145107142Y-102202380D02*
X144773809Y-101726190D01*
X144535714Y-102202380D02*
X144535714Y-101202380D01*
X144916666Y-101202380D01*
X145011904Y-101250000D01*
X145059523Y-101297619D01*
X145107142Y-101392857D01*
X145107142Y-101535714D01*
X145059523Y-101630952D01*
X145011904Y-101678571D01*
X144916666Y-101726190D01*
X144535714Y-101726190D01*
X145440476Y-101202380D02*
X146107142Y-102202380D01*
X146107142Y-101202380D02*
X145440476Y-102202380D01*
X146678571Y-101202380D02*
X146773809Y-101202380D01*
X146869047Y-101250000D01*
X146916666Y-101297619D01*
X146964285Y-101392857D01*
X147011904Y-101583333D01*
X147011904Y-101821428D01*
X146964285Y-102011904D01*
X146916666Y-102107142D01*
X146869047Y-102154761D01*
X146773809Y-102202380D01*
X146678571Y-102202380D01*
X146583333Y-102154761D01*
X146535714Y-102107142D01*
X146488095Y-102011904D01*
X146440476Y-101821428D01*
X146440476Y-101583333D01*
X146488095Y-101392857D01*
X146535714Y-101297619D01*
X146583333Y-101250000D01*
X146678571Y-101202380D01*
%TO.C,TX0*%
X144761904Y-89702380D02*
X145333333Y-89702380D01*
X145047619Y-90702380D02*
X145047619Y-89702380D01*
X145571428Y-89702380D02*
X146238095Y-90702380D01*
X146238095Y-89702380D02*
X145571428Y-90702380D01*
X146809523Y-89702380D02*
X146904761Y-89702380D01*
X147000000Y-89750000D01*
X147047619Y-89797619D01*
X147095238Y-89892857D01*
X147142857Y-90083333D01*
X147142857Y-90321428D01*
X147095238Y-90511904D01*
X147047619Y-90607142D01*
X147000000Y-90654761D01*
X146904761Y-90702380D01*
X146809523Y-90702380D01*
X146714285Y-90654761D01*
X146666666Y-90607142D01*
X146619047Y-90511904D01*
X146571428Y-90321428D01*
X146571428Y-90083333D01*
X146619047Y-89892857D01*
X146666666Y-89797619D01*
X146714285Y-89750000D01*
X146809523Y-89702380D01*
%TO.C,U0*%
X115378095Y-101432380D02*
X115378095Y-102241904D01*
X115425714Y-102337142D01*
X115473333Y-102384761D01*
X115568571Y-102432380D01*
X115759047Y-102432380D01*
X115854285Y-102384761D01*
X115901904Y-102337142D01*
X115949523Y-102241904D01*
X115949523Y-101432380D01*
X116616190Y-101432380D02*
X116711428Y-101432380D01*
X116806666Y-101480000D01*
X116854285Y-101527619D01*
X116901904Y-101622857D01*
X116949523Y-101813333D01*
X116949523Y-102051428D01*
X116901904Y-102241904D01*
X116854285Y-102337142D01*
X116806666Y-102384761D01*
X116711428Y-102432380D01*
X116616190Y-102432380D01*
X116520952Y-102384761D01*
X116473333Y-102337142D01*
X116425714Y-102241904D01*
X116378095Y-102051428D01*
X116378095Y-101813333D01*
X116425714Y-101622857D01*
X116473333Y-101527619D01*
X116520952Y-101480000D01*
X116616190Y-101432380D01*
%TD*%
M02*
