%TF.GenerationSoftware,KiCad,Pcbnew,(5.1.0)-1*%
%TF.CreationDate,2024-04-08T09:54:17+02:00*%
%TF.ProjectId,USB-UART_RS422,5553422d-5541-4525-945f-52533432322e,rev?*%
%TF.SameCoordinates,Original*%
%TF.FileFunction,Copper,L2,Bot*%
%TF.FilePolarity,Positive*%
%FSLAX46Y46*%
G04 Gerber Fmt 4.6, Leading zero omitted, Abs format (unit mm)*
G04 Created by KiCad (PCBNEW (5.1.0)-1) date 2024-04-08 09:54:17*
%MOMM*%
%LPD*%
G04 APERTURE LIST*
%TA.AperFunction,Conductor*%
%ADD10C,0.100000*%
%TD*%
%TA.AperFunction,SMDPad,CuDef*%
%ADD11C,1.200000*%
%TD*%
%TA.AperFunction,SMDPad,CuDef*%
%ADD12C,1.325000*%
%TD*%
%TA.AperFunction,SMDPad,CuDef*%
%ADD13R,1.525000X0.650000*%
%TD*%
%TA.AperFunction,ComponentPad*%
%ADD14C,2.500000*%
%TD*%
%TA.AperFunction,ComponentPad*%
%ADD15C,1.524000*%
%TD*%
%TA.AperFunction,ComponentPad*%
%ADD16O,4.200000X1.524000*%
%TD*%
%TA.AperFunction,ViaPad*%
%ADD17C,0.800000*%
%TD*%
%TA.AperFunction,Conductor*%
%ADD18C,0.250000*%
%TD*%
%TA.AperFunction,Conductor*%
%ADD19C,0.254000*%
%TD*%
G04 APERTURE END LIST*
D10*
%TO.N,Net-(IC1-Pad7)*%
%TO.C,R3*%
G36*
X150754505Y-96571204D02*
G01*
X150778773Y-96574804D01*
X150802572Y-96580765D01*
X150825671Y-96589030D01*
X150847850Y-96599520D01*
X150868893Y-96612132D01*
X150888599Y-96626747D01*
X150906777Y-96643223D01*
X150923253Y-96661401D01*
X150937868Y-96681107D01*
X150950480Y-96702150D01*
X150960970Y-96724329D01*
X150969235Y-96747428D01*
X150975196Y-96771227D01*
X150978796Y-96795495D01*
X150980000Y-96819999D01*
X150980000Y-97720001D01*
X150978796Y-97744505D01*
X150975196Y-97768773D01*
X150969235Y-97792572D01*
X150960970Y-97815671D01*
X150950480Y-97837850D01*
X150937868Y-97858893D01*
X150923253Y-97878599D01*
X150906777Y-97896777D01*
X150888599Y-97913253D01*
X150868893Y-97927868D01*
X150847850Y-97940480D01*
X150825671Y-97950970D01*
X150802572Y-97959235D01*
X150778773Y-97965196D01*
X150754505Y-97968796D01*
X150730001Y-97970000D01*
X150029999Y-97970000D01*
X150005495Y-97968796D01*
X149981227Y-97965196D01*
X149957428Y-97959235D01*
X149934329Y-97950970D01*
X149912150Y-97940480D01*
X149891107Y-97927868D01*
X149871401Y-97913253D01*
X149853223Y-97896777D01*
X149836747Y-97878599D01*
X149822132Y-97858893D01*
X149809520Y-97837850D01*
X149799030Y-97815671D01*
X149790765Y-97792572D01*
X149784804Y-97768773D01*
X149781204Y-97744505D01*
X149780000Y-97720001D01*
X149780000Y-96819999D01*
X149781204Y-96795495D01*
X149784804Y-96771227D01*
X149790765Y-96747428D01*
X149799030Y-96724329D01*
X149809520Y-96702150D01*
X149822132Y-96681107D01*
X149836747Y-96661401D01*
X149853223Y-96643223D01*
X149871401Y-96626747D01*
X149891107Y-96612132D01*
X149912150Y-96599520D01*
X149934329Y-96589030D01*
X149957428Y-96580765D01*
X149981227Y-96574804D01*
X150005495Y-96571204D01*
X150029999Y-96570000D01*
X150730001Y-96570000D01*
X150754505Y-96571204D01*
X150754505Y-96571204D01*
G37*
D11*
%TD*%
%TO.P,R3,2*%
%TO.N,Net-(IC1-Pad7)*%
X150380000Y-97270000D03*
D10*
%TO.N,Net-(IC1-Pad8)*%
%TO.C,R3*%
G36*
X148754505Y-96571204D02*
G01*
X148778773Y-96574804D01*
X148802572Y-96580765D01*
X148825671Y-96589030D01*
X148847850Y-96599520D01*
X148868893Y-96612132D01*
X148888599Y-96626747D01*
X148906777Y-96643223D01*
X148923253Y-96661401D01*
X148937868Y-96681107D01*
X148950480Y-96702150D01*
X148960970Y-96724329D01*
X148969235Y-96747428D01*
X148975196Y-96771227D01*
X148978796Y-96795495D01*
X148980000Y-96819999D01*
X148980000Y-97720001D01*
X148978796Y-97744505D01*
X148975196Y-97768773D01*
X148969235Y-97792572D01*
X148960970Y-97815671D01*
X148950480Y-97837850D01*
X148937868Y-97858893D01*
X148923253Y-97878599D01*
X148906777Y-97896777D01*
X148888599Y-97913253D01*
X148868893Y-97927868D01*
X148847850Y-97940480D01*
X148825671Y-97950970D01*
X148802572Y-97959235D01*
X148778773Y-97965196D01*
X148754505Y-97968796D01*
X148730001Y-97970000D01*
X148029999Y-97970000D01*
X148005495Y-97968796D01*
X147981227Y-97965196D01*
X147957428Y-97959235D01*
X147934329Y-97950970D01*
X147912150Y-97940480D01*
X147891107Y-97927868D01*
X147871401Y-97913253D01*
X147853223Y-97896777D01*
X147836747Y-97878599D01*
X147822132Y-97858893D01*
X147809520Y-97837850D01*
X147799030Y-97815671D01*
X147790765Y-97792572D01*
X147784804Y-97768773D01*
X147781204Y-97744505D01*
X147780000Y-97720001D01*
X147780000Y-96819999D01*
X147781204Y-96795495D01*
X147784804Y-96771227D01*
X147790765Y-96747428D01*
X147799030Y-96724329D01*
X147809520Y-96702150D01*
X147822132Y-96681107D01*
X147836747Y-96661401D01*
X147853223Y-96643223D01*
X147871401Y-96626747D01*
X147891107Y-96612132D01*
X147912150Y-96599520D01*
X147934329Y-96589030D01*
X147957428Y-96580765D01*
X147981227Y-96574804D01*
X148005495Y-96571204D01*
X148029999Y-96570000D01*
X148730001Y-96570000D01*
X148754505Y-96571204D01*
X148754505Y-96571204D01*
G37*
D11*
%TD*%
%TO.P,R3,1*%
%TO.N,Net-(IC1-Pad8)*%
X148380000Y-97270000D03*
D10*
%TO.N,Net-(C0-Pad1)*%
%TO.C,C0*%
G36*
X118784506Y-96901204D02*
G01*
X118808774Y-96904804D01*
X118832573Y-96910765D01*
X118855672Y-96919030D01*
X118877850Y-96929519D01*
X118898893Y-96942132D01*
X118918599Y-96956747D01*
X118936777Y-96973223D01*
X118953253Y-96991401D01*
X118967868Y-97011107D01*
X118980481Y-97032150D01*
X118990970Y-97054328D01*
X118999235Y-97077427D01*
X119005196Y-97101226D01*
X119008796Y-97125494D01*
X119010000Y-97149998D01*
X119010000Y-97975002D01*
X119008796Y-97999506D01*
X119005196Y-98023774D01*
X118999235Y-98047573D01*
X118990970Y-98070672D01*
X118980481Y-98092850D01*
X118967868Y-98113893D01*
X118953253Y-98133599D01*
X118936777Y-98151777D01*
X118918599Y-98168253D01*
X118898893Y-98182868D01*
X118877850Y-98195481D01*
X118855672Y-98205970D01*
X118832573Y-98214235D01*
X118808774Y-98220196D01*
X118784506Y-98223796D01*
X118760002Y-98225000D01*
X117459998Y-98225000D01*
X117435494Y-98223796D01*
X117411226Y-98220196D01*
X117387427Y-98214235D01*
X117364328Y-98205970D01*
X117342150Y-98195481D01*
X117321107Y-98182868D01*
X117301401Y-98168253D01*
X117283223Y-98151777D01*
X117266747Y-98133599D01*
X117252132Y-98113893D01*
X117239519Y-98092850D01*
X117229030Y-98070672D01*
X117220765Y-98047573D01*
X117214804Y-98023774D01*
X117211204Y-97999506D01*
X117210000Y-97975002D01*
X117210000Y-97149998D01*
X117211204Y-97125494D01*
X117214804Y-97101226D01*
X117220765Y-97077427D01*
X117229030Y-97054328D01*
X117239519Y-97032150D01*
X117252132Y-97011107D01*
X117266747Y-96991401D01*
X117283223Y-96973223D01*
X117301401Y-96956747D01*
X117321107Y-96942132D01*
X117342150Y-96929519D01*
X117364328Y-96919030D01*
X117387427Y-96910765D01*
X117411226Y-96904804D01*
X117435494Y-96901204D01*
X117459998Y-96900000D01*
X118760002Y-96900000D01*
X118784506Y-96901204D01*
X118784506Y-96901204D01*
G37*
D12*
%TD*%
%TO.P,C0,1*%
%TO.N,Net-(C0-Pad1)*%
X118110000Y-97562500D03*
D10*
%TO.N,GND*%
%TO.C,C0*%
G36*
X118784506Y-93776204D02*
G01*
X118808774Y-93779804D01*
X118832573Y-93785765D01*
X118855672Y-93794030D01*
X118877850Y-93804519D01*
X118898893Y-93817132D01*
X118918599Y-93831747D01*
X118936777Y-93848223D01*
X118953253Y-93866401D01*
X118967868Y-93886107D01*
X118980481Y-93907150D01*
X118990970Y-93929328D01*
X118999235Y-93952427D01*
X119005196Y-93976226D01*
X119008796Y-94000494D01*
X119010000Y-94024998D01*
X119010000Y-94850002D01*
X119008796Y-94874506D01*
X119005196Y-94898774D01*
X118999235Y-94922573D01*
X118990970Y-94945672D01*
X118980481Y-94967850D01*
X118967868Y-94988893D01*
X118953253Y-95008599D01*
X118936777Y-95026777D01*
X118918599Y-95043253D01*
X118898893Y-95057868D01*
X118877850Y-95070481D01*
X118855672Y-95080970D01*
X118832573Y-95089235D01*
X118808774Y-95095196D01*
X118784506Y-95098796D01*
X118760002Y-95100000D01*
X117459998Y-95100000D01*
X117435494Y-95098796D01*
X117411226Y-95095196D01*
X117387427Y-95089235D01*
X117364328Y-95080970D01*
X117342150Y-95070481D01*
X117321107Y-95057868D01*
X117301401Y-95043253D01*
X117283223Y-95026777D01*
X117266747Y-95008599D01*
X117252132Y-94988893D01*
X117239519Y-94967850D01*
X117229030Y-94945672D01*
X117220765Y-94922573D01*
X117214804Y-94898774D01*
X117211204Y-94874506D01*
X117210000Y-94850002D01*
X117210000Y-94024998D01*
X117211204Y-94000494D01*
X117214804Y-93976226D01*
X117220765Y-93952427D01*
X117229030Y-93929328D01*
X117239519Y-93907150D01*
X117252132Y-93886107D01*
X117266747Y-93866401D01*
X117283223Y-93848223D01*
X117301401Y-93831747D01*
X117321107Y-93817132D01*
X117342150Y-93804519D01*
X117364328Y-93794030D01*
X117387427Y-93785765D01*
X117411226Y-93779804D01*
X117435494Y-93776204D01*
X117459998Y-93775000D01*
X118760002Y-93775000D01*
X118784506Y-93776204D01*
X118784506Y-93776204D01*
G37*
D12*
%TD*%
%TO.P,C0,2*%
%TO.N,GND*%
X118110000Y-94437500D03*
D13*
%TO.P,IC1,1*%
%TO.N,/3.3V*%
X140288000Y-97905000D03*
%TO.P,IC1,2*%
%TO.N,Net-(IC0-Pad4)*%
X140288000Y-96635000D03*
%TO.P,IC1,3*%
%TO.N,Net-(IC0-Pad20)*%
X140288000Y-95365000D03*
%TO.P,IC1,4*%
%TO.N,GND*%
X140288000Y-94095000D03*
%TO.P,IC1,5*%
%TO.N,Net-(IC1-Pad5)*%
X145712000Y-94095000D03*
%TO.P,IC1,6*%
%TO.N,Net-(IC1-Pad6)*%
X145712000Y-95365000D03*
%TO.P,IC1,7*%
%TO.N,Net-(IC1-Pad7)*%
X145712000Y-96635000D03*
%TO.P,IC1,8*%
%TO.N,Net-(IC1-Pad8)*%
X145712000Y-97905000D03*
%TD*%
D10*
%TO.N,Net-(IC0-Pad11)*%
%TO.C,R1*%
G36*
X126834505Y-94051204D02*
G01*
X126858773Y-94054804D01*
X126882572Y-94060765D01*
X126905671Y-94069030D01*
X126927850Y-94079520D01*
X126948893Y-94092132D01*
X126968599Y-94106747D01*
X126986777Y-94123223D01*
X127003253Y-94141401D01*
X127017868Y-94161107D01*
X127030480Y-94182150D01*
X127040970Y-94204329D01*
X127049235Y-94227428D01*
X127055196Y-94251227D01*
X127058796Y-94275495D01*
X127060000Y-94299999D01*
X127060000Y-95200001D01*
X127058796Y-95224505D01*
X127055196Y-95248773D01*
X127049235Y-95272572D01*
X127040970Y-95295671D01*
X127030480Y-95317850D01*
X127017868Y-95338893D01*
X127003253Y-95358599D01*
X126986777Y-95376777D01*
X126968599Y-95393253D01*
X126948893Y-95407868D01*
X126927850Y-95420480D01*
X126905671Y-95430970D01*
X126882572Y-95439235D01*
X126858773Y-95445196D01*
X126834505Y-95448796D01*
X126810001Y-95450000D01*
X126109999Y-95450000D01*
X126085495Y-95448796D01*
X126061227Y-95445196D01*
X126037428Y-95439235D01*
X126014329Y-95430970D01*
X125992150Y-95420480D01*
X125971107Y-95407868D01*
X125951401Y-95393253D01*
X125933223Y-95376777D01*
X125916747Y-95358599D01*
X125902132Y-95338893D01*
X125889520Y-95317850D01*
X125879030Y-95295671D01*
X125870765Y-95272572D01*
X125864804Y-95248773D01*
X125861204Y-95224505D01*
X125860000Y-95200001D01*
X125860000Y-94299999D01*
X125861204Y-94275495D01*
X125864804Y-94251227D01*
X125870765Y-94227428D01*
X125879030Y-94204329D01*
X125889520Y-94182150D01*
X125902132Y-94161107D01*
X125916747Y-94141401D01*
X125933223Y-94123223D01*
X125951401Y-94106747D01*
X125971107Y-94092132D01*
X125992150Y-94079520D01*
X126014329Y-94069030D01*
X126037428Y-94060765D01*
X126061227Y-94054804D01*
X126085495Y-94051204D01*
X126109999Y-94050000D01*
X126810001Y-94050000D01*
X126834505Y-94051204D01*
X126834505Y-94051204D01*
G37*
D11*
%TD*%
%TO.P,R1,1*%
%TO.N,Net-(IC0-Pad11)*%
X126460000Y-94750000D03*
D10*
%TO.N,/D+*%
%TO.C,R1*%
G36*
X124834505Y-94051204D02*
G01*
X124858773Y-94054804D01*
X124882572Y-94060765D01*
X124905671Y-94069030D01*
X124927850Y-94079520D01*
X124948893Y-94092132D01*
X124968599Y-94106747D01*
X124986777Y-94123223D01*
X125003253Y-94141401D01*
X125017868Y-94161107D01*
X125030480Y-94182150D01*
X125040970Y-94204329D01*
X125049235Y-94227428D01*
X125055196Y-94251227D01*
X125058796Y-94275495D01*
X125060000Y-94299999D01*
X125060000Y-95200001D01*
X125058796Y-95224505D01*
X125055196Y-95248773D01*
X125049235Y-95272572D01*
X125040970Y-95295671D01*
X125030480Y-95317850D01*
X125017868Y-95338893D01*
X125003253Y-95358599D01*
X124986777Y-95376777D01*
X124968599Y-95393253D01*
X124948893Y-95407868D01*
X124927850Y-95420480D01*
X124905671Y-95430970D01*
X124882572Y-95439235D01*
X124858773Y-95445196D01*
X124834505Y-95448796D01*
X124810001Y-95450000D01*
X124109999Y-95450000D01*
X124085495Y-95448796D01*
X124061227Y-95445196D01*
X124037428Y-95439235D01*
X124014329Y-95430970D01*
X123992150Y-95420480D01*
X123971107Y-95407868D01*
X123951401Y-95393253D01*
X123933223Y-95376777D01*
X123916747Y-95358599D01*
X123902132Y-95338893D01*
X123889520Y-95317850D01*
X123879030Y-95295671D01*
X123870765Y-95272572D01*
X123864804Y-95248773D01*
X123861204Y-95224505D01*
X123860000Y-95200001D01*
X123860000Y-94299999D01*
X123861204Y-94275495D01*
X123864804Y-94251227D01*
X123870765Y-94227428D01*
X123879030Y-94204329D01*
X123889520Y-94182150D01*
X123902132Y-94161107D01*
X123916747Y-94141401D01*
X123933223Y-94123223D01*
X123951401Y-94106747D01*
X123971107Y-94092132D01*
X123992150Y-94079520D01*
X124014329Y-94069030D01*
X124037428Y-94060765D01*
X124061227Y-94054804D01*
X124085495Y-94051204D01*
X124109999Y-94050000D01*
X124810001Y-94050000D01*
X124834505Y-94051204D01*
X124834505Y-94051204D01*
G37*
D11*
%TD*%
%TO.P,R1,2*%
%TO.N,/D+*%
X124460000Y-94750000D03*
D10*
%TO.N,Net-(IC0-Pad12)*%
%TO.C,R2*%
G36*
X126834505Y-96591204D02*
G01*
X126858773Y-96594804D01*
X126882572Y-96600765D01*
X126905671Y-96609030D01*
X126927850Y-96619520D01*
X126948893Y-96632132D01*
X126968599Y-96646747D01*
X126986777Y-96663223D01*
X127003253Y-96681401D01*
X127017868Y-96701107D01*
X127030480Y-96722150D01*
X127040970Y-96744329D01*
X127049235Y-96767428D01*
X127055196Y-96791227D01*
X127058796Y-96815495D01*
X127060000Y-96839999D01*
X127060000Y-97740001D01*
X127058796Y-97764505D01*
X127055196Y-97788773D01*
X127049235Y-97812572D01*
X127040970Y-97835671D01*
X127030480Y-97857850D01*
X127017868Y-97878893D01*
X127003253Y-97898599D01*
X126986777Y-97916777D01*
X126968599Y-97933253D01*
X126948893Y-97947868D01*
X126927850Y-97960480D01*
X126905671Y-97970970D01*
X126882572Y-97979235D01*
X126858773Y-97985196D01*
X126834505Y-97988796D01*
X126810001Y-97990000D01*
X126109999Y-97990000D01*
X126085495Y-97988796D01*
X126061227Y-97985196D01*
X126037428Y-97979235D01*
X126014329Y-97970970D01*
X125992150Y-97960480D01*
X125971107Y-97947868D01*
X125951401Y-97933253D01*
X125933223Y-97916777D01*
X125916747Y-97898599D01*
X125902132Y-97878893D01*
X125889520Y-97857850D01*
X125879030Y-97835671D01*
X125870765Y-97812572D01*
X125864804Y-97788773D01*
X125861204Y-97764505D01*
X125860000Y-97740001D01*
X125860000Y-96839999D01*
X125861204Y-96815495D01*
X125864804Y-96791227D01*
X125870765Y-96767428D01*
X125879030Y-96744329D01*
X125889520Y-96722150D01*
X125902132Y-96701107D01*
X125916747Y-96681401D01*
X125933223Y-96663223D01*
X125951401Y-96646747D01*
X125971107Y-96632132D01*
X125992150Y-96619520D01*
X126014329Y-96609030D01*
X126037428Y-96600765D01*
X126061227Y-96594804D01*
X126085495Y-96591204D01*
X126109999Y-96590000D01*
X126810001Y-96590000D01*
X126834505Y-96591204D01*
X126834505Y-96591204D01*
G37*
D11*
%TD*%
%TO.P,R2,1*%
%TO.N,Net-(IC0-Pad12)*%
X126460000Y-97290000D03*
D10*
%TO.N,/D-*%
%TO.C,R2*%
G36*
X124834505Y-96591204D02*
G01*
X124858773Y-96594804D01*
X124882572Y-96600765D01*
X124905671Y-96609030D01*
X124927850Y-96619520D01*
X124948893Y-96632132D01*
X124968599Y-96646747D01*
X124986777Y-96663223D01*
X125003253Y-96681401D01*
X125017868Y-96701107D01*
X125030480Y-96722150D01*
X125040970Y-96744329D01*
X125049235Y-96767428D01*
X125055196Y-96791227D01*
X125058796Y-96815495D01*
X125060000Y-96839999D01*
X125060000Y-97740001D01*
X125058796Y-97764505D01*
X125055196Y-97788773D01*
X125049235Y-97812572D01*
X125040970Y-97835671D01*
X125030480Y-97857850D01*
X125017868Y-97878893D01*
X125003253Y-97898599D01*
X124986777Y-97916777D01*
X124968599Y-97933253D01*
X124948893Y-97947868D01*
X124927850Y-97960480D01*
X124905671Y-97970970D01*
X124882572Y-97979235D01*
X124858773Y-97985196D01*
X124834505Y-97988796D01*
X124810001Y-97990000D01*
X124109999Y-97990000D01*
X124085495Y-97988796D01*
X124061227Y-97985196D01*
X124037428Y-97979235D01*
X124014329Y-97970970D01*
X123992150Y-97960480D01*
X123971107Y-97947868D01*
X123951401Y-97933253D01*
X123933223Y-97916777D01*
X123916747Y-97898599D01*
X123902132Y-97878893D01*
X123889520Y-97857850D01*
X123879030Y-97835671D01*
X123870765Y-97812572D01*
X123864804Y-97788773D01*
X123861204Y-97764505D01*
X123860000Y-97740001D01*
X123860000Y-96839999D01*
X123861204Y-96815495D01*
X123864804Y-96791227D01*
X123870765Y-96767428D01*
X123879030Y-96744329D01*
X123889520Y-96722150D01*
X123902132Y-96701107D01*
X123916747Y-96681401D01*
X123933223Y-96663223D01*
X123951401Y-96646747D01*
X123971107Y-96632132D01*
X123992150Y-96619520D01*
X124014329Y-96609030D01*
X124037428Y-96600765D01*
X124061227Y-96594804D01*
X124085495Y-96591204D01*
X124109999Y-96590000D01*
X124810001Y-96590000D01*
X124834505Y-96591204D01*
X124834505Y-96591204D01*
G37*
D11*
%TD*%
%TO.P,R2,2*%
%TO.N,/D-*%
X124460000Y-97290000D03*
D10*
%TO.N,Net-(IC1-Pad5)*%
%TO.C,R4*%
G36*
X150754505Y-94031204D02*
G01*
X150778773Y-94034804D01*
X150802572Y-94040765D01*
X150825671Y-94049030D01*
X150847850Y-94059520D01*
X150868893Y-94072132D01*
X150888599Y-94086747D01*
X150906777Y-94103223D01*
X150923253Y-94121401D01*
X150937868Y-94141107D01*
X150950480Y-94162150D01*
X150960970Y-94184329D01*
X150969235Y-94207428D01*
X150975196Y-94231227D01*
X150978796Y-94255495D01*
X150980000Y-94279999D01*
X150980000Y-95180001D01*
X150978796Y-95204505D01*
X150975196Y-95228773D01*
X150969235Y-95252572D01*
X150960970Y-95275671D01*
X150950480Y-95297850D01*
X150937868Y-95318893D01*
X150923253Y-95338599D01*
X150906777Y-95356777D01*
X150888599Y-95373253D01*
X150868893Y-95387868D01*
X150847850Y-95400480D01*
X150825671Y-95410970D01*
X150802572Y-95419235D01*
X150778773Y-95425196D01*
X150754505Y-95428796D01*
X150730001Y-95430000D01*
X150029999Y-95430000D01*
X150005495Y-95428796D01*
X149981227Y-95425196D01*
X149957428Y-95419235D01*
X149934329Y-95410970D01*
X149912150Y-95400480D01*
X149891107Y-95387868D01*
X149871401Y-95373253D01*
X149853223Y-95356777D01*
X149836747Y-95338599D01*
X149822132Y-95318893D01*
X149809520Y-95297850D01*
X149799030Y-95275671D01*
X149790765Y-95252572D01*
X149784804Y-95228773D01*
X149781204Y-95204505D01*
X149780000Y-95180001D01*
X149780000Y-94279999D01*
X149781204Y-94255495D01*
X149784804Y-94231227D01*
X149790765Y-94207428D01*
X149799030Y-94184329D01*
X149809520Y-94162150D01*
X149822132Y-94141107D01*
X149836747Y-94121401D01*
X149853223Y-94103223D01*
X149871401Y-94086747D01*
X149891107Y-94072132D01*
X149912150Y-94059520D01*
X149934329Y-94049030D01*
X149957428Y-94040765D01*
X149981227Y-94034804D01*
X150005495Y-94031204D01*
X150029999Y-94030000D01*
X150730001Y-94030000D01*
X150754505Y-94031204D01*
X150754505Y-94031204D01*
G37*
D11*
%TD*%
%TO.P,R4,2*%
%TO.N,Net-(IC1-Pad5)*%
X150380000Y-94730000D03*
D10*
%TO.N,Net-(IC1-Pad6)*%
%TO.C,R4*%
G36*
X148754505Y-94031204D02*
G01*
X148778773Y-94034804D01*
X148802572Y-94040765D01*
X148825671Y-94049030D01*
X148847850Y-94059520D01*
X148868893Y-94072132D01*
X148888599Y-94086747D01*
X148906777Y-94103223D01*
X148923253Y-94121401D01*
X148937868Y-94141107D01*
X148950480Y-94162150D01*
X148960970Y-94184329D01*
X148969235Y-94207428D01*
X148975196Y-94231227D01*
X148978796Y-94255495D01*
X148980000Y-94279999D01*
X148980000Y-95180001D01*
X148978796Y-95204505D01*
X148975196Y-95228773D01*
X148969235Y-95252572D01*
X148960970Y-95275671D01*
X148950480Y-95297850D01*
X148937868Y-95318893D01*
X148923253Y-95338599D01*
X148906777Y-95356777D01*
X148888599Y-95373253D01*
X148868893Y-95387868D01*
X148847850Y-95400480D01*
X148825671Y-95410970D01*
X148802572Y-95419235D01*
X148778773Y-95425196D01*
X148754505Y-95428796D01*
X148730001Y-95430000D01*
X148029999Y-95430000D01*
X148005495Y-95428796D01*
X147981227Y-95425196D01*
X147957428Y-95419235D01*
X147934329Y-95410970D01*
X147912150Y-95400480D01*
X147891107Y-95387868D01*
X147871401Y-95373253D01*
X147853223Y-95356777D01*
X147836747Y-95338599D01*
X147822132Y-95318893D01*
X147809520Y-95297850D01*
X147799030Y-95275671D01*
X147790765Y-95252572D01*
X147784804Y-95228773D01*
X147781204Y-95204505D01*
X147780000Y-95180001D01*
X147780000Y-94279999D01*
X147781204Y-94255495D01*
X147784804Y-94231227D01*
X147790765Y-94207428D01*
X147799030Y-94184329D01*
X147809520Y-94162150D01*
X147822132Y-94141107D01*
X147836747Y-94121401D01*
X147853223Y-94103223D01*
X147871401Y-94086747D01*
X147891107Y-94072132D01*
X147912150Y-94059520D01*
X147934329Y-94049030D01*
X147957428Y-94040765D01*
X147981227Y-94034804D01*
X148005495Y-94031204D01*
X148029999Y-94030000D01*
X148730001Y-94030000D01*
X148754505Y-94031204D01*
X148754505Y-94031204D01*
G37*
D11*
%TD*%
%TO.P,R4,1*%
%TO.N,Net-(IC1-Pad6)*%
X148380000Y-94730000D03*
D14*
%TO.P,RX0,1*%
%TO.N,Net-(IC0-Pad4)*%
X149000000Y-100750000D03*
%TD*%
%TO.P,TX0,1*%
%TO.N,Net-(IC0-Pad20)*%
X149000000Y-91250000D03*
%TD*%
D15*
%TO.P,U0,3*%
%TO.N,/D+*%
X114750000Y-95000000D03*
%TO.P,U0,2*%
%TO.N,/D-*%
X114750000Y-97000000D03*
%TO.P,U0,4*%
%TO.N,GND*%
X114750000Y-92500000D03*
%TO.P,U0,1*%
%TO.N,Net-(C0-Pad1)*%
X114750000Y-99500000D03*
%TO.P,U0,5*%
%TO.N,/SHIELD*%
X112650000Y-93750000D03*
X112650000Y-98250000D03*
D16*
X112650000Y-101850000D03*
X112650000Y-90150000D03*
%TD*%
D17*
%TO.N,GND*%
X137250000Y-95137500D03*
X138500000Y-96500000D03*
%TO.N,/3.3V*%
X137250000Y-96862500D03*
X143093123Y-97249524D03*
%TO.N,Net-(IC0-Pad4)*%
X142044142Y-95544142D03*
X140000000Y-99908190D03*
X138772669Y-97977331D03*
%TO.N,Net-(IC0-Pad11)*%
X144250000Y-98750000D03*
%TO.N,Net-(IC0-Pad12)*%
X143417948Y-98195299D03*
%TO.N,Net-(IC0-Pad20)*%
X142750000Y-94500000D03*
%TO.N,Net-(IC1-Pad5)*%
X150380000Y-94730000D03*
%TO.N,Net-(IC1-Pad6)*%
X148380000Y-94730000D03*
%TO.N,/SHIELD*%
X126500000Y-93250000D03*
%TO.N,Net-(IC1-Pad7)*%
X150380000Y-97270000D03*
%TO.N,Net-(IC1-Pad8)*%
X148380000Y-97270000D03*
%TD*%
D18*
%TO.N,Net-(C0-Pad1)*%
X116687500Y-97562500D02*
X114750000Y-99500000D01*
X118110000Y-97562500D02*
X116687500Y-97562500D01*
%TO.N,GND*%
X116687500Y-94437500D02*
X114750000Y-92500000D01*
X118110000Y-94437500D02*
X116687500Y-94437500D01*
X138292500Y-94095000D02*
X137250000Y-95137500D01*
X140288000Y-94095000D02*
X138292500Y-94095000D01*
X138500000Y-96387500D02*
X137250000Y-95137500D01*
X138500000Y-96500000D02*
X138500000Y-96387500D01*
%TO.N,/3.3V*%
X141955976Y-97249524D02*
X143093123Y-97249524D01*
X141300500Y-97905000D02*
X141955976Y-97249524D01*
X140288000Y-97905000D02*
X141300500Y-97905000D01*
X140288000Y-98480000D02*
X140034821Y-98733179D01*
X140288000Y-97905000D02*
X140288000Y-98480000D01*
X137250000Y-97479968D02*
X137250000Y-96862500D01*
X138503211Y-98733179D02*
X137250000Y-97479968D01*
X140034821Y-98733179D02*
X138503211Y-98733179D01*
%TO.N,/D+*%
X115175010Y-95425010D02*
X114750000Y-95000000D01*
X123784990Y-95425010D02*
X115175010Y-95425010D01*
X124460000Y-94750000D02*
X123784990Y-95425010D01*
%TO.N,/D-*%
X115175010Y-96574990D02*
X114750000Y-97000000D01*
X123744990Y-96574990D02*
X115175010Y-96574990D01*
X124460000Y-97290000D02*
X123744990Y-96574990D01*
%TO.N,Net-(IC0-Pad4)*%
X140953284Y-96635000D02*
X142044142Y-95544142D01*
X140288000Y-96635000D02*
X140953284Y-96635000D01*
X148158190Y-99908190D02*
X149000000Y-100750000D01*
X140000000Y-99908190D02*
X148158190Y-99908190D01*
X139549315Y-96635000D02*
X140288000Y-96635000D01*
X138772669Y-97411646D02*
X139549315Y-96635000D01*
X138772669Y-97977331D02*
X138772669Y-97411646D01*
%TO.N,Net-(IC0-Pad11)*%
X127765001Y-93444999D02*
X126460000Y-94750000D01*
X143194999Y-93444999D02*
X127765001Y-93444999D01*
X144250000Y-94500000D02*
X143194999Y-93444999D01*
X144250000Y-98750000D02*
X144250000Y-94500000D01*
%TO.N,Net-(IC0-Pad12)*%
X127725001Y-98555001D02*
X126460000Y-97290000D01*
X137688623Y-98555001D02*
X127725001Y-98555001D01*
X142430058Y-99183189D02*
X138316811Y-99183189D01*
X138316811Y-99183189D02*
X137688623Y-98555001D01*
X143417948Y-98195299D02*
X142430058Y-99183189D01*
%TO.N,Net-(IC0-Pad20)*%
X141590500Y-94500000D02*
X142750000Y-94500000D01*
X140725500Y-95365000D02*
X141590500Y-94500000D01*
X140288000Y-95365000D02*
X140725500Y-95365000D01*
%TO.N,Net-(IC1-Pad5)*%
X149354990Y-93704990D02*
X150380000Y-94730000D01*
X146102010Y-93704990D02*
X149354990Y-93704990D01*
X145712000Y-94095000D02*
X146102010Y-93704990D01*
%TO.N,Net-(IC1-Pad6)*%
X147745000Y-95365000D02*
X148380000Y-94730000D01*
X145712000Y-95365000D02*
X147745000Y-95365000D01*
%TO.N,Net-(IC1-Pad7)*%
X149354990Y-96244990D02*
X150380000Y-97270000D01*
X146102010Y-96244990D02*
X149354990Y-96244990D01*
X145712000Y-96635000D02*
X146102010Y-96244990D01*
%TO.N,Net-(IC1-Pad8)*%
X147745000Y-97905000D02*
X148380000Y-97270000D01*
X145712000Y-97905000D02*
X147745000Y-97905000D01*
%TD*%
D19*
%TO.N,/SHIELD*%
G36*
X118228928Y-89485085D02*
G01*
X117900806Y-89668467D01*
X117614552Y-89912088D01*
X117381069Y-90206670D01*
X117209250Y-90540992D01*
X117105641Y-90902320D01*
X117074188Y-91276891D01*
X117116088Y-91650438D01*
X117229745Y-92008732D01*
X117410831Y-92338126D01*
X117652448Y-92626074D01*
X117945393Y-92861608D01*
X118278508Y-93035756D01*
X118639104Y-93141885D01*
X119013446Y-93175953D01*
X119387276Y-93136662D01*
X119746355Y-93025508D01*
X120077006Y-92846726D01*
X120366633Y-92607125D01*
X120604206Y-92315832D01*
X120780676Y-91983942D01*
X120889320Y-91624095D01*
X120926000Y-91250000D01*
X120925249Y-91196223D01*
X120911750Y-91089360D01*
X147369000Y-91089360D01*
X147369000Y-91410640D01*
X147431678Y-91725745D01*
X147554626Y-92022568D01*
X147733119Y-92289702D01*
X147960298Y-92516881D01*
X148227432Y-92695374D01*
X148524255Y-92818322D01*
X148839360Y-92881000D01*
X149160640Y-92881000D01*
X149475745Y-92818322D01*
X149772568Y-92695374D01*
X150039702Y-92516881D01*
X150266881Y-92289702D01*
X150445374Y-92022568D01*
X150568322Y-91725745D01*
X150631000Y-91410640D01*
X150631000Y-91089360D01*
X150568322Y-90774255D01*
X150445374Y-90477432D01*
X150266881Y-90210298D01*
X150039702Y-89983119D01*
X149772568Y-89804626D01*
X149475745Y-89681678D01*
X149160640Y-89619000D01*
X148839360Y-89619000D01*
X148524255Y-89681678D01*
X148227432Y-89804626D01*
X147960298Y-89983119D01*
X147733119Y-90210298D01*
X147554626Y-90477432D01*
X147431678Y-90774255D01*
X147369000Y-91089360D01*
X120911750Y-91089360D01*
X120878138Y-90823298D01*
X120759489Y-90466625D01*
X120573821Y-90139791D01*
X120328207Y-89855245D01*
X120032002Y-89623824D01*
X119696489Y-89454344D01*
X119523340Y-89406000D01*
X159844001Y-89406000D01*
X159844000Y-102594000D01*
X137525094Y-102594000D01*
X137746355Y-102525508D01*
X138077006Y-102346726D01*
X138366633Y-102107125D01*
X138604206Y-101815832D01*
X138780676Y-101483942D01*
X138889320Y-101124095D01*
X138926000Y-100750000D01*
X138925249Y-100696223D01*
X138878138Y-100323298D01*
X138759489Y-99966625D01*
X138601883Y-99689189D01*
X139247261Y-99689189D01*
X139219000Y-99831268D01*
X139219000Y-99985112D01*
X139249013Y-100135999D01*
X139307887Y-100278132D01*
X139393358Y-100406049D01*
X139502141Y-100514832D01*
X139630058Y-100600303D01*
X139772191Y-100659177D01*
X139923078Y-100689190D01*
X140076922Y-100689190D01*
X140227809Y-100659177D01*
X140369942Y-100600303D01*
X140497859Y-100514832D01*
X140598501Y-100414190D01*
X147403843Y-100414190D01*
X147369000Y-100589360D01*
X147369000Y-100910640D01*
X147431678Y-101225745D01*
X147554626Y-101522568D01*
X147733119Y-101789702D01*
X147960298Y-102016881D01*
X148227432Y-102195374D01*
X148524255Y-102318322D01*
X148839360Y-102381000D01*
X149160640Y-102381000D01*
X149475745Y-102318322D01*
X149772568Y-102195374D01*
X150039702Y-102016881D01*
X150266881Y-101789702D01*
X150445374Y-101522568D01*
X150568322Y-101225745D01*
X150631000Y-100910640D01*
X150631000Y-100589360D01*
X150568322Y-100274255D01*
X150445374Y-99977432D01*
X150266881Y-99710298D01*
X150039702Y-99483119D01*
X149772568Y-99304626D01*
X149475745Y-99181678D01*
X149160640Y-99119000D01*
X148839360Y-99119000D01*
X148524255Y-99181678D01*
X148227432Y-99304626D01*
X148081417Y-99402190D01*
X144679691Y-99402190D01*
X144747859Y-99356642D01*
X144856642Y-99247859D01*
X144942113Y-99119942D01*
X145000987Y-98977809D01*
X145031000Y-98826922D01*
X145031000Y-98673078D01*
X145019019Y-98612843D01*
X146474500Y-98612843D01*
X146549189Y-98605487D01*
X146621008Y-98583701D01*
X146687196Y-98548322D01*
X146745211Y-98500711D01*
X146792822Y-98442696D01*
X146809764Y-98411000D01*
X147720154Y-98411000D01*
X147745000Y-98413447D01*
X147769846Y-98411000D01*
X147769854Y-98411000D01*
X147844193Y-98403678D01*
X147939575Y-98374745D01*
X147988244Y-98348730D01*
X148029999Y-98352843D01*
X148730001Y-98352843D01*
X148853462Y-98340683D01*
X148972179Y-98304671D01*
X149081589Y-98246190D01*
X149177488Y-98167488D01*
X149256190Y-98071589D01*
X149314671Y-97962179D01*
X149350683Y-97843462D01*
X149362843Y-97720001D01*
X149362843Y-96968434D01*
X149397157Y-97002748D01*
X149397157Y-97720001D01*
X149409317Y-97843462D01*
X149445329Y-97962179D01*
X149503810Y-98071589D01*
X149582512Y-98167488D01*
X149678411Y-98246190D01*
X149787821Y-98304671D01*
X149906538Y-98340683D01*
X150029999Y-98352843D01*
X150730001Y-98352843D01*
X150853462Y-98340683D01*
X150972179Y-98304671D01*
X151081589Y-98246190D01*
X151177488Y-98167488D01*
X151256190Y-98071589D01*
X151314671Y-97962179D01*
X151350683Y-97843462D01*
X151362843Y-97720001D01*
X151362843Y-96819999D01*
X151350683Y-96696538D01*
X151314671Y-96577821D01*
X151256190Y-96468411D01*
X151177488Y-96372512D01*
X151081589Y-96293810D01*
X150972179Y-96235329D01*
X150853462Y-96199317D01*
X150730001Y-96187157D01*
X150029999Y-96187157D01*
X150014295Y-96188704D01*
X149730366Y-95904775D01*
X149714517Y-95885463D01*
X149637469Y-95822231D01*
X149549565Y-95775245D01*
X149454183Y-95746312D01*
X149379844Y-95738990D01*
X149379836Y-95738990D01*
X149354990Y-95736543D01*
X149330144Y-95738990D01*
X149020225Y-95738990D01*
X149081589Y-95706190D01*
X149177488Y-95627488D01*
X149256190Y-95531589D01*
X149314671Y-95422179D01*
X149350683Y-95303462D01*
X149362843Y-95180001D01*
X149362843Y-94428434D01*
X149397157Y-94462748D01*
X149397157Y-95180001D01*
X149409317Y-95303462D01*
X149445329Y-95422179D01*
X149503810Y-95531589D01*
X149582512Y-95627488D01*
X149678411Y-95706190D01*
X149787821Y-95764671D01*
X149906538Y-95800683D01*
X150029999Y-95812843D01*
X150730001Y-95812843D01*
X150853462Y-95800683D01*
X150972179Y-95764671D01*
X151081589Y-95706190D01*
X151177488Y-95627488D01*
X151256190Y-95531589D01*
X151314671Y-95422179D01*
X151350683Y-95303462D01*
X151362843Y-95180001D01*
X151362843Y-94279999D01*
X151350683Y-94156538D01*
X151314671Y-94037821D01*
X151256190Y-93928411D01*
X151177488Y-93832512D01*
X151081589Y-93753810D01*
X150972179Y-93695329D01*
X150853462Y-93659317D01*
X150730001Y-93647157D01*
X150029999Y-93647157D01*
X150014295Y-93648704D01*
X149730366Y-93364775D01*
X149714517Y-93345463D01*
X149637469Y-93282231D01*
X149549565Y-93235245D01*
X149454183Y-93206312D01*
X149379844Y-93198990D01*
X149379836Y-93198990D01*
X149354990Y-93196543D01*
X149330144Y-93198990D01*
X146126855Y-93198990D01*
X146102009Y-93196543D01*
X146077163Y-93198990D01*
X146077156Y-93198990D01*
X146012704Y-93205338D01*
X146002816Y-93206312D01*
X145980617Y-93213046D01*
X145907435Y-93235245D01*
X145819531Y-93282231D01*
X145742483Y-93345463D01*
X145726638Y-93364770D01*
X145704251Y-93387157D01*
X144949500Y-93387157D01*
X144874811Y-93394513D01*
X144802992Y-93416299D01*
X144736804Y-93451678D01*
X144678789Y-93499289D01*
X144631178Y-93557304D01*
X144595799Y-93623492D01*
X144574013Y-93695311D01*
X144566657Y-93770000D01*
X144566657Y-94101065D01*
X143570375Y-93104784D01*
X143554526Y-93085472D01*
X143477478Y-93022240D01*
X143389574Y-92975254D01*
X143294192Y-92946321D01*
X143219853Y-92938999D01*
X143219845Y-92938999D01*
X143194999Y-92936552D01*
X143170153Y-92938999D01*
X127789846Y-92938999D01*
X127765000Y-92936552D01*
X127740154Y-92938999D01*
X127740147Y-92938999D01*
X127675695Y-92945347D01*
X127665807Y-92946321D01*
X127570426Y-92975254D01*
X127482522Y-93022240D01*
X127405474Y-93085472D01*
X127389629Y-93104779D01*
X126825705Y-93668704D01*
X126810001Y-93667157D01*
X126109999Y-93667157D01*
X125986538Y-93679317D01*
X125867821Y-93715329D01*
X125758411Y-93773810D01*
X125662512Y-93852512D01*
X125583810Y-93948411D01*
X125525329Y-94057821D01*
X125489317Y-94176538D01*
X125477157Y-94299999D01*
X125477157Y-95200001D01*
X125489317Y-95323462D01*
X125525329Y-95442179D01*
X125583810Y-95551589D01*
X125662512Y-95647488D01*
X125758411Y-95726190D01*
X125867821Y-95784671D01*
X125986538Y-95820683D01*
X126109999Y-95832843D01*
X126810001Y-95832843D01*
X126933462Y-95820683D01*
X127052179Y-95784671D01*
X127161589Y-95726190D01*
X127257488Y-95647488D01*
X127336190Y-95551589D01*
X127394671Y-95442179D01*
X127430683Y-95323462D01*
X127442843Y-95200001D01*
X127442843Y-94482748D01*
X127974593Y-93950999D01*
X137720909Y-93950999D01*
X137315409Y-94356500D01*
X137173078Y-94356500D01*
X137022191Y-94386513D01*
X136880058Y-94445387D01*
X136752141Y-94530858D01*
X136643358Y-94639641D01*
X136557887Y-94767558D01*
X136499013Y-94909691D01*
X136469000Y-95060578D01*
X136469000Y-95214422D01*
X136499013Y-95365309D01*
X136557887Y-95507442D01*
X136643358Y-95635359D01*
X136752141Y-95744142D01*
X136880058Y-95829613D01*
X137022191Y-95888487D01*
X137173078Y-95918500D01*
X137315409Y-95918500D01*
X137530068Y-96133160D01*
X137477809Y-96111513D01*
X137326922Y-96081500D01*
X137173078Y-96081500D01*
X137022191Y-96111513D01*
X136880058Y-96170387D01*
X136752141Y-96255858D01*
X136643358Y-96364641D01*
X136557887Y-96492558D01*
X136499013Y-96634691D01*
X136469000Y-96785578D01*
X136469000Y-96939422D01*
X136499013Y-97090309D01*
X136557887Y-97232442D01*
X136643358Y-97360359D01*
X136743473Y-97460474D01*
X136741553Y-97479968D01*
X136744000Y-97504814D01*
X136744000Y-97504821D01*
X136751322Y-97579160D01*
X136780255Y-97674542D01*
X136827241Y-97762447D01*
X136890473Y-97839495D01*
X136909785Y-97855344D01*
X137103442Y-98049001D01*
X127934593Y-98049001D01*
X127442843Y-97557252D01*
X127442843Y-96839999D01*
X127430683Y-96716538D01*
X127394671Y-96597821D01*
X127336190Y-96488411D01*
X127257488Y-96392512D01*
X127161589Y-96313810D01*
X127052179Y-96255329D01*
X126933462Y-96219317D01*
X126810001Y-96207157D01*
X126109999Y-96207157D01*
X125986538Y-96219317D01*
X125867821Y-96255329D01*
X125758411Y-96313810D01*
X125662512Y-96392512D01*
X125583810Y-96488411D01*
X125525329Y-96597821D01*
X125489317Y-96716538D01*
X125477157Y-96839999D01*
X125477157Y-97740001D01*
X125489317Y-97863462D01*
X125525329Y-97982179D01*
X125583810Y-98091589D01*
X125662512Y-98187488D01*
X125758411Y-98266190D01*
X125867821Y-98324671D01*
X125986538Y-98360683D01*
X126109999Y-98372843D01*
X126810001Y-98372843D01*
X126825705Y-98371296D01*
X127349629Y-98895221D01*
X127365474Y-98914528D01*
X127442522Y-98977760D01*
X127513422Y-99015657D01*
X127530426Y-99024746D01*
X127625808Y-99053679D01*
X127725001Y-99063449D01*
X127749855Y-99061001D01*
X136093093Y-99061001D01*
X135900806Y-99168467D01*
X135614552Y-99412088D01*
X135381069Y-99706670D01*
X135209250Y-100040992D01*
X135105641Y-100402320D01*
X135074188Y-100776891D01*
X135116088Y-101150438D01*
X135229745Y-101508732D01*
X135410831Y-101838126D01*
X135652448Y-102126074D01*
X135945393Y-102361608D01*
X136278508Y-102535756D01*
X136476404Y-102594000D01*
X119525094Y-102594000D01*
X119746355Y-102525508D01*
X120077006Y-102346726D01*
X120366633Y-102107125D01*
X120604206Y-101815832D01*
X120780676Y-101483942D01*
X120889320Y-101124095D01*
X120926000Y-100750000D01*
X120925249Y-100696223D01*
X120878138Y-100323298D01*
X120759489Y-99966625D01*
X120573821Y-99639791D01*
X120328207Y-99355245D01*
X120032002Y-99123824D01*
X119696489Y-98954344D01*
X119334446Y-98853260D01*
X118959665Y-98824422D01*
X118586420Y-98868929D01*
X118228928Y-98985085D01*
X117900806Y-99168467D01*
X117614552Y-99412088D01*
X117381069Y-99706670D01*
X117209250Y-100040992D01*
X117105641Y-100402320D01*
X117074188Y-100776891D01*
X117116088Y-101150438D01*
X117229745Y-101508732D01*
X117410831Y-101838126D01*
X117652448Y-102126074D01*
X117945393Y-102361608D01*
X118278508Y-102535756D01*
X118476404Y-102594000D01*
X115170232Y-102594000D01*
X115220122Y-102520535D01*
X115327262Y-102267276D01*
X115342220Y-102193070D01*
X115219720Y-101977000D01*
X112777000Y-101977000D01*
X112777000Y-101997000D01*
X112523000Y-101997000D01*
X112523000Y-101977000D01*
X112503000Y-101977000D01*
X112503000Y-101723000D01*
X112523000Y-101723000D01*
X112523000Y-100453000D01*
X111185000Y-100453000D01*
X110914899Y-100504619D01*
X110660058Y-100607941D01*
X110430271Y-100758994D01*
X110234368Y-100951974D01*
X110156000Y-101067373D01*
X110156000Y-98322017D01*
X111248090Y-98322017D01*
X111289078Y-98594133D01*
X111382364Y-98853023D01*
X111444344Y-98968980D01*
X111684435Y-99035960D01*
X112470395Y-98250000D01*
X111684435Y-97464040D01*
X111444344Y-97531020D01*
X111327244Y-97780048D01*
X111260977Y-98047135D01*
X111248090Y-98322017D01*
X110156000Y-98322017D01*
X110156000Y-93822017D01*
X111248090Y-93822017D01*
X111289078Y-94094133D01*
X111382364Y-94353023D01*
X111444344Y-94468980D01*
X111684435Y-94535960D01*
X112470395Y-93750000D01*
X111684435Y-92964040D01*
X111444344Y-93031020D01*
X111327244Y-93280048D01*
X111260977Y-93547135D01*
X111248090Y-93822017D01*
X110156000Y-93822017D01*
X110156000Y-92784435D01*
X111864040Y-92784435D01*
X112650000Y-93570395D01*
X112664143Y-93556253D01*
X112843748Y-93735858D01*
X112829605Y-93750000D01*
X112843748Y-93764143D01*
X112664143Y-93943748D01*
X112650000Y-93929605D01*
X111864040Y-94715565D01*
X111931020Y-94955656D01*
X112180048Y-95072756D01*
X112447135Y-95139023D01*
X112722017Y-95151910D01*
X112994133Y-95110922D01*
X113253023Y-95017636D01*
X113368980Y-94955656D01*
X113435959Y-94715567D01*
X113552369Y-94831977D01*
X113634333Y-94750013D01*
X113607000Y-94887424D01*
X113607000Y-95112576D01*
X113650925Y-95333401D01*
X113737087Y-95541413D01*
X113862174Y-95728620D01*
X114021380Y-95887826D01*
X114189261Y-96000000D01*
X114021380Y-96112174D01*
X113862174Y-96271380D01*
X113737087Y-96458587D01*
X113650925Y-96666599D01*
X113607000Y-96887424D01*
X113607000Y-97112576D01*
X113634333Y-97249987D01*
X113552369Y-97168023D01*
X113435959Y-97284433D01*
X113368980Y-97044344D01*
X113119952Y-96927244D01*
X112852865Y-96860977D01*
X112577983Y-96848090D01*
X112305867Y-96889078D01*
X112046977Y-96982364D01*
X111931020Y-97044344D01*
X111864040Y-97284435D01*
X112650000Y-98070395D01*
X112664143Y-98056253D01*
X112843748Y-98235858D01*
X112829605Y-98250000D01*
X112843748Y-98264143D01*
X112664143Y-98443748D01*
X112650000Y-98429605D01*
X111864040Y-99215565D01*
X111931020Y-99455656D01*
X112180048Y-99572756D01*
X112447135Y-99639023D01*
X112722017Y-99651910D01*
X112994133Y-99610922D01*
X113253023Y-99517636D01*
X113368980Y-99455656D01*
X113435959Y-99215567D01*
X113552369Y-99331977D01*
X113634333Y-99250013D01*
X113607000Y-99387424D01*
X113607000Y-99612576D01*
X113650925Y-99833401D01*
X113737087Y-100041413D01*
X113862174Y-100228620D01*
X114021380Y-100387826D01*
X114120491Y-100454049D01*
X114115000Y-100453000D01*
X112777000Y-100453000D01*
X112777000Y-101723000D01*
X115219720Y-101723000D01*
X115342220Y-101506930D01*
X115327262Y-101432724D01*
X115220122Y-101179465D01*
X115065632Y-100951974D01*
X114869729Y-100758994D01*
X114693275Y-100643000D01*
X114862576Y-100643000D01*
X115083401Y-100599075D01*
X115291413Y-100512913D01*
X115478620Y-100387826D01*
X115637826Y-100228620D01*
X115762913Y-100041413D01*
X115849075Y-99833401D01*
X115893000Y-99612576D01*
X115893000Y-99387424D01*
X115849075Y-99166599D01*
X115834406Y-99131185D01*
X116845790Y-98119802D01*
X116875329Y-98217180D01*
X116933810Y-98326590D01*
X117012512Y-98422488D01*
X117108410Y-98501190D01*
X117217820Y-98559671D01*
X117336537Y-98595683D01*
X117459998Y-98607843D01*
X118760002Y-98607843D01*
X118883463Y-98595683D01*
X119002180Y-98559671D01*
X119111590Y-98501190D01*
X119207488Y-98422488D01*
X119286190Y-98326590D01*
X119344671Y-98217180D01*
X119380683Y-98098463D01*
X119392843Y-97975002D01*
X119392843Y-97149998D01*
X119386046Y-97080990D01*
X123477157Y-97080990D01*
X123477157Y-97740001D01*
X123489317Y-97863462D01*
X123525329Y-97982179D01*
X123583810Y-98091589D01*
X123662512Y-98187488D01*
X123758411Y-98266190D01*
X123867821Y-98324671D01*
X123986538Y-98360683D01*
X124109999Y-98372843D01*
X124810001Y-98372843D01*
X124933462Y-98360683D01*
X125052179Y-98324671D01*
X125161589Y-98266190D01*
X125257488Y-98187488D01*
X125336190Y-98091589D01*
X125394671Y-97982179D01*
X125430683Y-97863462D01*
X125442843Y-97740001D01*
X125442843Y-96839999D01*
X125430683Y-96716538D01*
X125394671Y-96597821D01*
X125336190Y-96488411D01*
X125257488Y-96392512D01*
X125161589Y-96313810D01*
X125052179Y-96255329D01*
X124933462Y-96219317D01*
X124810001Y-96207157D01*
X124109999Y-96207157D01*
X124096068Y-96208529D01*
X124027469Y-96152231D01*
X123939565Y-96105245D01*
X123844183Y-96076312D01*
X123769844Y-96068990D01*
X123769836Y-96068990D01*
X123744990Y-96066543D01*
X123720144Y-96068990D01*
X115413990Y-96068990D01*
X115310739Y-96000000D01*
X115413990Y-95931010D01*
X123760144Y-95931010D01*
X123784990Y-95933457D01*
X123809836Y-95931010D01*
X123809844Y-95931010D01*
X123884183Y-95923688D01*
X123979565Y-95894755D01*
X124067469Y-95847769D01*
X124088265Y-95830702D01*
X124109999Y-95832843D01*
X124810001Y-95832843D01*
X124933462Y-95820683D01*
X125052179Y-95784671D01*
X125161589Y-95726190D01*
X125257488Y-95647488D01*
X125336190Y-95551589D01*
X125394671Y-95442179D01*
X125430683Y-95323462D01*
X125442843Y-95200001D01*
X125442843Y-94299999D01*
X125430683Y-94176538D01*
X125394671Y-94057821D01*
X125336190Y-93948411D01*
X125257488Y-93852512D01*
X125161589Y-93773810D01*
X125052179Y-93715329D01*
X124933462Y-93679317D01*
X124810001Y-93667157D01*
X124109999Y-93667157D01*
X123986538Y-93679317D01*
X123867821Y-93715329D01*
X123758411Y-93773810D01*
X123662512Y-93852512D01*
X123583810Y-93948411D01*
X123525329Y-94057821D01*
X123489317Y-94176538D01*
X123477157Y-94299999D01*
X123477157Y-94919010D01*
X119386046Y-94919010D01*
X119392843Y-94850002D01*
X119392843Y-94024998D01*
X119380683Y-93901537D01*
X119344671Y-93782820D01*
X119286190Y-93673410D01*
X119207488Y-93577512D01*
X119111590Y-93498810D01*
X119002180Y-93440329D01*
X118883463Y-93404317D01*
X118760002Y-93392157D01*
X117459998Y-93392157D01*
X117336537Y-93404317D01*
X117217820Y-93440329D01*
X117108410Y-93498810D01*
X117012512Y-93577512D01*
X116933810Y-93673410D01*
X116875329Y-93782820D01*
X116845790Y-93880198D01*
X115834406Y-92868815D01*
X115849075Y-92833401D01*
X115893000Y-92612576D01*
X115893000Y-92387424D01*
X115849075Y-92166599D01*
X115762913Y-91958587D01*
X115637826Y-91771380D01*
X115478620Y-91612174D01*
X115291413Y-91487087D01*
X115083401Y-91400925D01*
X114862576Y-91357000D01*
X114693275Y-91357000D01*
X114869729Y-91241006D01*
X115065632Y-91048026D01*
X115220122Y-90820535D01*
X115327262Y-90567276D01*
X115342220Y-90493070D01*
X115219720Y-90277000D01*
X112777000Y-90277000D01*
X112777000Y-91547000D01*
X114115000Y-91547000D01*
X114120491Y-91545951D01*
X114021380Y-91612174D01*
X113862174Y-91771380D01*
X113737087Y-91958587D01*
X113650925Y-92166599D01*
X113607000Y-92387424D01*
X113607000Y-92612576D01*
X113634333Y-92749987D01*
X113552369Y-92668023D01*
X113435959Y-92784433D01*
X113368980Y-92544344D01*
X113119952Y-92427244D01*
X112852865Y-92360977D01*
X112577983Y-92348090D01*
X112305867Y-92389078D01*
X112046977Y-92482364D01*
X111931020Y-92544344D01*
X111864040Y-92784435D01*
X110156000Y-92784435D01*
X110156000Y-90932627D01*
X110234368Y-91048026D01*
X110430271Y-91241006D01*
X110660058Y-91392059D01*
X110914899Y-91495381D01*
X111185000Y-91547000D01*
X112523000Y-91547000D01*
X112523000Y-90277000D01*
X112503000Y-90277000D01*
X112503000Y-90023000D01*
X112523000Y-90023000D01*
X112523000Y-90003000D01*
X112777000Y-90003000D01*
X112777000Y-90023000D01*
X115219720Y-90023000D01*
X115342220Y-89806930D01*
X115327262Y-89732724D01*
X115220122Y-89479465D01*
X115170232Y-89406000D01*
X118472327Y-89406000D01*
X118228928Y-89485085D01*
X118228928Y-89485085D01*
G37*
X118228928Y-89485085D02*
X117900806Y-89668467D01*
X117614552Y-89912088D01*
X117381069Y-90206670D01*
X117209250Y-90540992D01*
X117105641Y-90902320D01*
X117074188Y-91276891D01*
X117116088Y-91650438D01*
X117229745Y-92008732D01*
X117410831Y-92338126D01*
X117652448Y-92626074D01*
X117945393Y-92861608D01*
X118278508Y-93035756D01*
X118639104Y-93141885D01*
X119013446Y-93175953D01*
X119387276Y-93136662D01*
X119746355Y-93025508D01*
X120077006Y-92846726D01*
X120366633Y-92607125D01*
X120604206Y-92315832D01*
X120780676Y-91983942D01*
X120889320Y-91624095D01*
X120926000Y-91250000D01*
X120925249Y-91196223D01*
X120911750Y-91089360D01*
X147369000Y-91089360D01*
X147369000Y-91410640D01*
X147431678Y-91725745D01*
X147554626Y-92022568D01*
X147733119Y-92289702D01*
X147960298Y-92516881D01*
X148227432Y-92695374D01*
X148524255Y-92818322D01*
X148839360Y-92881000D01*
X149160640Y-92881000D01*
X149475745Y-92818322D01*
X149772568Y-92695374D01*
X150039702Y-92516881D01*
X150266881Y-92289702D01*
X150445374Y-92022568D01*
X150568322Y-91725745D01*
X150631000Y-91410640D01*
X150631000Y-91089360D01*
X150568322Y-90774255D01*
X150445374Y-90477432D01*
X150266881Y-90210298D01*
X150039702Y-89983119D01*
X149772568Y-89804626D01*
X149475745Y-89681678D01*
X149160640Y-89619000D01*
X148839360Y-89619000D01*
X148524255Y-89681678D01*
X148227432Y-89804626D01*
X147960298Y-89983119D01*
X147733119Y-90210298D01*
X147554626Y-90477432D01*
X147431678Y-90774255D01*
X147369000Y-91089360D01*
X120911750Y-91089360D01*
X120878138Y-90823298D01*
X120759489Y-90466625D01*
X120573821Y-90139791D01*
X120328207Y-89855245D01*
X120032002Y-89623824D01*
X119696489Y-89454344D01*
X119523340Y-89406000D01*
X159844001Y-89406000D01*
X159844000Y-102594000D01*
X137525094Y-102594000D01*
X137746355Y-102525508D01*
X138077006Y-102346726D01*
X138366633Y-102107125D01*
X138604206Y-101815832D01*
X138780676Y-101483942D01*
X138889320Y-101124095D01*
X138926000Y-100750000D01*
X138925249Y-100696223D01*
X138878138Y-100323298D01*
X138759489Y-99966625D01*
X138601883Y-99689189D01*
X139247261Y-99689189D01*
X139219000Y-99831268D01*
X139219000Y-99985112D01*
X139249013Y-100135999D01*
X139307887Y-100278132D01*
X139393358Y-100406049D01*
X139502141Y-100514832D01*
X139630058Y-100600303D01*
X139772191Y-100659177D01*
X139923078Y-100689190D01*
X140076922Y-100689190D01*
X140227809Y-100659177D01*
X140369942Y-100600303D01*
X140497859Y-100514832D01*
X140598501Y-100414190D01*
X147403843Y-100414190D01*
X147369000Y-100589360D01*
X147369000Y-100910640D01*
X147431678Y-101225745D01*
X147554626Y-101522568D01*
X147733119Y-101789702D01*
X147960298Y-102016881D01*
X148227432Y-102195374D01*
X148524255Y-102318322D01*
X148839360Y-102381000D01*
X149160640Y-102381000D01*
X149475745Y-102318322D01*
X149772568Y-102195374D01*
X150039702Y-102016881D01*
X150266881Y-101789702D01*
X150445374Y-101522568D01*
X150568322Y-101225745D01*
X150631000Y-100910640D01*
X150631000Y-100589360D01*
X150568322Y-100274255D01*
X150445374Y-99977432D01*
X150266881Y-99710298D01*
X150039702Y-99483119D01*
X149772568Y-99304626D01*
X149475745Y-99181678D01*
X149160640Y-99119000D01*
X148839360Y-99119000D01*
X148524255Y-99181678D01*
X148227432Y-99304626D01*
X148081417Y-99402190D01*
X144679691Y-99402190D01*
X144747859Y-99356642D01*
X144856642Y-99247859D01*
X144942113Y-99119942D01*
X145000987Y-98977809D01*
X145031000Y-98826922D01*
X145031000Y-98673078D01*
X145019019Y-98612843D01*
X146474500Y-98612843D01*
X146549189Y-98605487D01*
X146621008Y-98583701D01*
X146687196Y-98548322D01*
X146745211Y-98500711D01*
X146792822Y-98442696D01*
X146809764Y-98411000D01*
X147720154Y-98411000D01*
X147745000Y-98413447D01*
X147769846Y-98411000D01*
X147769854Y-98411000D01*
X147844193Y-98403678D01*
X147939575Y-98374745D01*
X147988244Y-98348730D01*
X148029999Y-98352843D01*
X148730001Y-98352843D01*
X148853462Y-98340683D01*
X148972179Y-98304671D01*
X149081589Y-98246190D01*
X149177488Y-98167488D01*
X149256190Y-98071589D01*
X149314671Y-97962179D01*
X149350683Y-97843462D01*
X149362843Y-97720001D01*
X149362843Y-96968434D01*
X149397157Y-97002748D01*
X149397157Y-97720001D01*
X149409317Y-97843462D01*
X149445329Y-97962179D01*
X149503810Y-98071589D01*
X149582512Y-98167488D01*
X149678411Y-98246190D01*
X149787821Y-98304671D01*
X149906538Y-98340683D01*
X150029999Y-98352843D01*
X150730001Y-98352843D01*
X150853462Y-98340683D01*
X150972179Y-98304671D01*
X151081589Y-98246190D01*
X151177488Y-98167488D01*
X151256190Y-98071589D01*
X151314671Y-97962179D01*
X151350683Y-97843462D01*
X151362843Y-97720001D01*
X151362843Y-96819999D01*
X151350683Y-96696538D01*
X151314671Y-96577821D01*
X151256190Y-96468411D01*
X151177488Y-96372512D01*
X151081589Y-96293810D01*
X150972179Y-96235329D01*
X150853462Y-96199317D01*
X150730001Y-96187157D01*
X150029999Y-96187157D01*
X150014295Y-96188704D01*
X149730366Y-95904775D01*
X149714517Y-95885463D01*
X149637469Y-95822231D01*
X149549565Y-95775245D01*
X149454183Y-95746312D01*
X149379844Y-95738990D01*
X149379836Y-95738990D01*
X149354990Y-95736543D01*
X149330144Y-95738990D01*
X149020225Y-95738990D01*
X149081589Y-95706190D01*
X149177488Y-95627488D01*
X149256190Y-95531589D01*
X149314671Y-95422179D01*
X149350683Y-95303462D01*
X149362843Y-95180001D01*
X149362843Y-94428434D01*
X149397157Y-94462748D01*
X149397157Y-95180001D01*
X149409317Y-95303462D01*
X149445329Y-95422179D01*
X149503810Y-95531589D01*
X149582512Y-95627488D01*
X149678411Y-95706190D01*
X149787821Y-95764671D01*
X149906538Y-95800683D01*
X150029999Y-95812843D01*
X150730001Y-95812843D01*
X150853462Y-95800683D01*
X150972179Y-95764671D01*
X151081589Y-95706190D01*
X151177488Y-95627488D01*
X151256190Y-95531589D01*
X151314671Y-95422179D01*
X151350683Y-95303462D01*
X151362843Y-95180001D01*
X151362843Y-94279999D01*
X151350683Y-94156538D01*
X151314671Y-94037821D01*
X151256190Y-93928411D01*
X151177488Y-93832512D01*
X151081589Y-93753810D01*
X150972179Y-93695329D01*
X150853462Y-93659317D01*
X150730001Y-93647157D01*
X150029999Y-93647157D01*
X150014295Y-93648704D01*
X149730366Y-93364775D01*
X149714517Y-93345463D01*
X149637469Y-93282231D01*
X149549565Y-93235245D01*
X149454183Y-93206312D01*
X149379844Y-93198990D01*
X149379836Y-93198990D01*
X149354990Y-93196543D01*
X149330144Y-93198990D01*
X146126855Y-93198990D01*
X146102009Y-93196543D01*
X146077163Y-93198990D01*
X146077156Y-93198990D01*
X146012704Y-93205338D01*
X146002816Y-93206312D01*
X145980617Y-93213046D01*
X145907435Y-93235245D01*
X145819531Y-93282231D01*
X145742483Y-93345463D01*
X145726638Y-93364770D01*
X145704251Y-93387157D01*
X144949500Y-93387157D01*
X144874811Y-93394513D01*
X144802992Y-93416299D01*
X144736804Y-93451678D01*
X144678789Y-93499289D01*
X144631178Y-93557304D01*
X144595799Y-93623492D01*
X144574013Y-93695311D01*
X144566657Y-93770000D01*
X144566657Y-94101065D01*
X143570375Y-93104784D01*
X143554526Y-93085472D01*
X143477478Y-93022240D01*
X143389574Y-92975254D01*
X143294192Y-92946321D01*
X143219853Y-92938999D01*
X143219845Y-92938999D01*
X143194999Y-92936552D01*
X143170153Y-92938999D01*
X127789846Y-92938999D01*
X127765000Y-92936552D01*
X127740154Y-92938999D01*
X127740147Y-92938999D01*
X127675695Y-92945347D01*
X127665807Y-92946321D01*
X127570426Y-92975254D01*
X127482522Y-93022240D01*
X127405474Y-93085472D01*
X127389629Y-93104779D01*
X126825705Y-93668704D01*
X126810001Y-93667157D01*
X126109999Y-93667157D01*
X125986538Y-93679317D01*
X125867821Y-93715329D01*
X125758411Y-93773810D01*
X125662512Y-93852512D01*
X125583810Y-93948411D01*
X125525329Y-94057821D01*
X125489317Y-94176538D01*
X125477157Y-94299999D01*
X125477157Y-95200001D01*
X125489317Y-95323462D01*
X125525329Y-95442179D01*
X125583810Y-95551589D01*
X125662512Y-95647488D01*
X125758411Y-95726190D01*
X125867821Y-95784671D01*
X125986538Y-95820683D01*
X126109999Y-95832843D01*
X126810001Y-95832843D01*
X126933462Y-95820683D01*
X127052179Y-95784671D01*
X127161589Y-95726190D01*
X127257488Y-95647488D01*
X127336190Y-95551589D01*
X127394671Y-95442179D01*
X127430683Y-95323462D01*
X127442843Y-95200001D01*
X127442843Y-94482748D01*
X127974593Y-93950999D01*
X137720909Y-93950999D01*
X137315409Y-94356500D01*
X137173078Y-94356500D01*
X137022191Y-94386513D01*
X136880058Y-94445387D01*
X136752141Y-94530858D01*
X136643358Y-94639641D01*
X136557887Y-94767558D01*
X136499013Y-94909691D01*
X136469000Y-95060578D01*
X136469000Y-95214422D01*
X136499013Y-95365309D01*
X136557887Y-95507442D01*
X136643358Y-95635359D01*
X136752141Y-95744142D01*
X136880058Y-95829613D01*
X137022191Y-95888487D01*
X137173078Y-95918500D01*
X137315409Y-95918500D01*
X137530068Y-96133160D01*
X137477809Y-96111513D01*
X137326922Y-96081500D01*
X137173078Y-96081500D01*
X137022191Y-96111513D01*
X136880058Y-96170387D01*
X136752141Y-96255858D01*
X136643358Y-96364641D01*
X136557887Y-96492558D01*
X136499013Y-96634691D01*
X136469000Y-96785578D01*
X136469000Y-96939422D01*
X136499013Y-97090309D01*
X136557887Y-97232442D01*
X136643358Y-97360359D01*
X136743473Y-97460474D01*
X136741553Y-97479968D01*
X136744000Y-97504814D01*
X136744000Y-97504821D01*
X136751322Y-97579160D01*
X136780255Y-97674542D01*
X136827241Y-97762447D01*
X136890473Y-97839495D01*
X136909785Y-97855344D01*
X137103442Y-98049001D01*
X127934593Y-98049001D01*
X127442843Y-97557252D01*
X127442843Y-96839999D01*
X127430683Y-96716538D01*
X127394671Y-96597821D01*
X127336190Y-96488411D01*
X127257488Y-96392512D01*
X127161589Y-96313810D01*
X127052179Y-96255329D01*
X126933462Y-96219317D01*
X126810001Y-96207157D01*
X126109999Y-96207157D01*
X125986538Y-96219317D01*
X125867821Y-96255329D01*
X125758411Y-96313810D01*
X125662512Y-96392512D01*
X125583810Y-96488411D01*
X125525329Y-96597821D01*
X125489317Y-96716538D01*
X125477157Y-96839999D01*
X125477157Y-97740001D01*
X125489317Y-97863462D01*
X125525329Y-97982179D01*
X125583810Y-98091589D01*
X125662512Y-98187488D01*
X125758411Y-98266190D01*
X125867821Y-98324671D01*
X125986538Y-98360683D01*
X126109999Y-98372843D01*
X126810001Y-98372843D01*
X126825705Y-98371296D01*
X127349629Y-98895221D01*
X127365474Y-98914528D01*
X127442522Y-98977760D01*
X127513422Y-99015657D01*
X127530426Y-99024746D01*
X127625808Y-99053679D01*
X127725001Y-99063449D01*
X127749855Y-99061001D01*
X136093093Y-99061001D01*
X135900806Y-99168467D01*
X135614552Y-99412088D01*
X135381069Y-99706670D01*
X135209250Y-100040992D01*
X135105641Y-100402320D01*
X135074188Y-100776891D01*
X135116088Y-101150438D01*
X135229745Y-101508732D01*
X135410831Y-101838126D01*
X135652448Y-102126074D01*
X135945393Y-102361608D01*
X136278508Y-102535756D01*
X136476404Y-102594000D01*
X119525094Y-102594000D01*
X119746355Y-102525508D01*
X120077006Y-102346726D01*
X120366633Y-102107125D01*
X120604206Y-101815832D01*
X120780676Y-101483942D01*
X120889320Y-101124095D01*
X120926000Y-100750000D01*
X120925249Y-100696223D01*
X120878138Y-100323298D01*
X120759489Y-99966625D01*
X120573821Y-99639791D01*
X120328207Y-99355245D01*
X120032002Y-99123824D01*
X119696489Y-98954344D01*
X119334446Y-98853260D01*
X118959665Y-98824422D01*
X118586420Y-98868929D01*
X118228928Y-98985085D01*
X117900806Y-99168467D01*
X117614552Y-99412088D01*
X117381069Y-99706670D01*
X117209250Y-100040992D01*
X117105641Y-100402320D01*
X117074188Y-100776891D01*
X117116088Y-101150438D01*
X117229745Y-101508732D01*
X117410831Y-101838126D01*
X117652448Y-102126074D01*
X117945393Y-102361608D01*
X118278508Y-102535756D01*
X118476404Y-102594000D01*
X115170232Y-102594000D01*
X115220122Y-102520535D01*
X115327262Y-102267276D01*
X115342220Y-102193070D01*
X115219720Y-101977000D01*
X112777000Y-101977000D01*
X112777000Y-101997000D01*
X112523000Y-101997000D01*
X112523000Y-101977000D01*
X112503000Y-101977000D01*
X112503000Y-101723000D01*
X112523000Y-101723000D01*
X112523000Y-100453000D01*
X111185000Y-100453000D01*
X110914899Y-100504619D01*
X110660058Y-100607941D01*
X110430271Y-100758994D01*
X110234368Y-100951974D01*
X110156000Y-101067373D01*
X110156000Y-98322017D01*
X111248090Y-98322017D01*
X111289078Y-98594133D01*
X111382364Y-98853023D01*
X111444344Y-98968980D01*
X111684435Y-99035960D01*
X112470395Y-98250000D01*
X111684435Y-97464040D01*
X111444344Y-97531020D01*
X111327244Y-97780048D01*
X111260977Y-98047135D01*
X111248090Y-98322017D01*
X110156000Y-98322017D01*
X110156000Y-93822017D01*
X111248090Y-93822017D01*
X111289078Y-94094133D01*
X111382364Y-94353023D01*
X111444344Y-94468980D01*
X111684435Y-94535960D01*
X112470395Y-93750000D01*
X111684435Y-92964040D01*
X111444344Y-93031020D01*
X111327244Y-93280048D01*
X111260977Y-93547135D01*
X111248090Y-93822017D01*
X110156000Y-93822017D01*
X110156000Y-92784435D01*
X111864040Y-92784435D01*
X112650000Y-93570395D01*
X112664143Y-93556253D01*
X112843748Y-93735858D01*
X112829605Y-93750000D01*
X112843748Y-93764143D01*
X112664143Y-93943748D01*
X112650000Y-93929605D01*
X111864040Y-94715565D01*
X111931020Y-94955656D01*
X112180048Y-95072756D01*
X112447135Y-95139023D01*
X112722017Y-95151910D01*
X112994133Y-95110922D01*
X113253023Y-95017636D01*
X113368980Y-94955656D01*
X113435959Y-94715567D01*
X113552369Y-94831977D01*
X113634333Y-94750013D01*
X113607000Y-94887424D01*
X113607000Y-95112576D01*
X113650925Y-95333401D01*
X113737087Y-95541413D01*
X113862174Y-95728620D01*
X114021380Y-95887826D01*
X114189261Y-96000000D01*
X114021380Y-96112174D01*
X113862174Y-96271380D01*
X113737087Y-96458587D01*
X113650925Y-96666599D01*
X113607000Y-96887424D01*
X113607000Y-97112576D01*
X113634333Y-97249987D01*
X113552369Y-97168023D01*
X113435959Y-97284433D01*
X113368980Y-97044344D01*
X113119952Y-96927244D01*
X112852865Y-96860977D01*
X112577983Y-96848090D01*
X112305867Y-96889078D01*
X112046977Y-96982364D01*
X111931020Y-97044344D01*
X111864040Y-97284435D01*
X112650000Y-98070395D01*
X112664143Y-98056253D01*
X112843748Y-98235858D01*
X112829605Y-98250000D01*
X112843748Y-98264143D01*
X112664143Y-98443748D01*
X112650000Y-98429605D01*
X111864040Y-99215565D01*
X111931020Y-99455656D01*
X112180048Y-99572756D01*
X112447135Y-99639023D01*
X112722017Y-99651910D01*
X112994133Y-99610922D01*
X113253023Y-99517636D01*
X113368980Y-99455656D01*
X113435959Y-99215567D01*
X113552369Y-99331977D01*
X113634333Y-99250013D01*
X113607000Y-99387424D01*
X113607000Y-99612576D01*
X113650925Y-99833401D01*
X113737087Y-100041413D01*
X113862174Y-100228620D01*
X114021380Y-100387826D01*
X114120491Y-100454049D01*
X114115000Y-100453000D01*
X112777000Y-100453000D01*
X112777000Y-101723000D01*
X115219720Y-101723000D01*
X115342220Y-101506930D01*
X115327262Y-101432724D01*
X115220122Y-101179465D01*
X115065632Y-100951974D01*
X114869729Y-100758994D01*
X114693275Y-100643000D01*
X114862576Y-100643000D01*
X115083401Y-100599075D01*
X115291413Y-100512913D01*
X115478620Y-100387826D01*
X115637826Y-100228620D01*
X115762913Y-100041413D01*
X115849075Y-99833401D01*
X115893000Y-99612576D01*
X115893000Y-99387424D01*
X115849075Y-99166599D01*
X115834406Y-99131185D01*
X116845790Y-98119802D01*
X116875329Y-98217180D01*
X116933810Y-98326590D01*
X117012512Y-98422488D01*
X117108410Y-98501190D01*
X117217820Y-98559671D01*
X117336537Y-98595683D01*
X117459998Y-98607843D01*
X118760002Y-98607843D01*
X118883463Y-98595683D01*
X119002180Y-98559671D01*
X119111590Y-98501190D01*
X119207488Y-98422488D01*
X119286190Y-98326590D01*
X119344671Y-98217180D01*
X119380683Y-98098463D01*
X119392843Y-97975002D01*
X119392843Y-97149998D01*
X119386046Y-97080990D01*
X123477157Y-97080990D01*
X123477157Y-97740001D01*
X123489317Y-97863462D01*
X123525329Y-97982179D01*
X123583810Y-98091589D01*
X123662512Y-98187488D01*
X123758411Y-98266190D01*
X123867821Y-98324671D01*
X123986538Y-98360683D01*
X124109999Y-98372843D01*
X124810001Y-98372843D01*
X124933462Y-98360683D01*
X125052179Y-98324671D01*
X125161589Y-98266190D01*
X125257488Y-98187488D01*
X125336190Y-98091589D01*
X125394671Y-97982179D01*
X125430683Y-97863462D01*
X125442843Y-97740001D01*
X125442843Y-96839999D01*
X125430683Y-96716538D01*
X125394671Y-96597821D01*
X125336190Y-96488411D01*
X125257488Y-96392512D01*
X125161589Y-96313810D01*
X125052179Y-96255329D01*
X124933462Y-96219317D01*
X124810001Y-96207157D01*
X124109999Y-96207157D01*
X124096068Y-96208529D01*
X124027469Y-96152231D01*
X123939565Y-96105245D01*
X123844183Y-96076312D01*
X123769844Y-96068990D01*
X123769836Y-96068990D01*
X123744990Y-96066543D01*
X123720144Y-96068990D01*
X115413990Y-96068990D01*
X115310739Y-96000000D01*
X115413990Y-95931010D01*
X123760144Y-95931010D01*
X123784990Y-95933457D01*
X123809836Y-95931010D01*
X123809844Y-95931010D01*
X123884183Y-95923688D01*
X123979565Y-95894755D01*
X124067469Y-95847769D01*
X124088265Y-95830702D01*
X124109999Y-95832843D01*
X124810001Y-95832843D01*
X124933462Y-95820683D01*
X125052179Y-95784671D01*
X125161589Y-95726190D01*
X125257488Y-95647488D01*
X125336190Y-95551589D01*
X125394671Y-95442179D01*
X125430683Y-95323462D01*
X125442843Y-95200001D01*
X125442843Y-94299999D01*
X125430683Y-94176538D01*
X125394671Y-94057821D01*
X125336190Y-93948411D01*
X125257488Y-93852512D01*
X125161589Y-93773810D01*
X125052179Y-93715329D01*
X124933462Y-93679317D01*
X124810001Y-93667157D01*
X124109999Y-93667157D01*
X123986538Y-93679317D01*
X123867821Y-93715329D01*
X123758411Y-93773810D01*
X123662512Y-93852512D01*
X123583810Y-93948411D01*
X123525329Y-94057821D01*
X123489317Y-94176538D01*
X123477157Y-94299999D01*
X123477157Y-94919010D01*
X119386046Y-94919010D01*
X119392843Y-94850002D01*
X119392843Y-94024998D01*
X119380683Y-93901537D01*
X119344671Y-93782820D01*
X119286190Y-93673410D01*
X119207488Y-93577512D01*
X119111590Y-93498810D01*
X119002180Y-93440329D01*
X118883463Y-93404317D01*
X118760002Y-93392157D01*
X117459998Y-93392157D01*
X117336537Y-93404317D01*
X117217820Y-93440329D01*
X117108410Y-93498810D01*
X117012512Y-93577512D01*
X116933810Y-93673410D01*
X116875329Y-93782820D01*
X116845790Y-93880198D01*
X115834406Y-92868815D01*
X115849075Y-92833401D01*
X115893000Y-92612576D01*
X115893000Y-92387424D01*
X115849075Y-92166599D01*
X115762913Y-91958587D01*
X115637826Y-91771380D01*
X115478620Y-91612174D01*
X115291413Y-91487087D01*
X115083401Y-91400925D01*
X114862576Y-91357000D01*
X114693275Y-91357000D01*
X114869729Y-91241006D01*
X115065632Y-91048026D01*
X115220122Y-90820535D01*
X115327262Y-90567276D01*
X115342220Y-90493070D01*
X115219720Y-90277000D01*
X112777000Y-90277000D01*
X112777000Y-91547000D01*
X114115000Y-91547000D01*
X114120491Y-91545951D01*
X114021380Y-91612174D01*
X113862174Y-91771380D01*
X113737087Y-91958587D01*
X113650925Y-92166599D01*
X113607000Y-92387424D01*
X113607000Y-92612576D01*
X113634333Y-92749987D01*
X113552369Y-92668023D01*
X113435959Y-92784433D01*
X113368980Y-92544344D01*
X113119952Y-92427244D01*
X112852865Y-92360977D01*
X112577983Y-92348090D01*
X112305867Y-92389078D01*
X112046977Y-92482364D01*
X111931020Y-92544344D01*
X111864040Y-92784435D01*
X110156000Y-92784435D01*
X110156000Y-90932627D01*
X110234368Y-91048026D01*
X110430271Y-91241006D01*
X110660058Y-91392059D01*
X110914899Y-91495381D01*
X111185000Y-91547000D01*
X112523000Y-91547000D01*
X112523000Y-90277000D01*
X112503000Y-90277000D01*
X112503000Y-90023000D01*
X112523000Y-90023000D01*
X112523000Y-90003000D01*
X112777000Y-90003000D01*
X112777000Y-90023000D01*
X115219720Y-90023000D01*
X115342220Y-89806930D01*
X115327262Y-89732724D01*
X115220122Y-89479465D01*
X115170232Y-89406000D01*
X118472327Y-89406000D01*
X118228928Y-89485085D01*
%TD*%
M02*
