%TF.GenerationSoftware,KiCad,Pcbnew,(5.1.0)-1*%
%TF.CreationDate,2024-04-08T09:54:17+02:00*%
%TF.ProjectId,USB-UART_RS422,5553422d-5541-4525-945f-52533432322e,rev?*%
%TF.SameCoordinates,Original*%
%TF.FileFunction,Legend,Bot*%
%TF.FilePolarity,Positive*%
%FSLAX46Y46*%
G04 Gerber Fmt 4.6, Leading zero omitted, Abs format (unit mm)*
G04 Created by KiCad (PCBNEW (5.1.0)-1) date 2024-04-08 09:54:17*
%MOMM*%
%LPD*%
G04 APERTURE LIST*
%ADD10C,0.150000*%
%ADD11C,0.120000*%
%ADD12C,0.010000*%
%ADD13C,0.200000*%
%ADD14C,0.254000*%
G04 APERTURE END LIST*
D10*
X129821428Y-101607142D02*
X129869047Y-101654761D01*
X130011904Y-101702380D01*
X130107142Y-101702380D01*
X130250000Y-101654761D01*
X130345238Y-101559523D01*
X130392857Y-101464285D01*
X130440476Y-101273809D01*
X130440476Y-101130952D01*
X130392857Y-100940476D01*
X130345238Y-100845238D01*
X130250000Y-100750000D01*
X130107142Y-100702380D01*
X130011904Y-100702380D01*
X129869047Y-100750000D01*
X129821428Y-100797619D01*
X129202380Y-100702380D02*
X129011904Y-100702380D01*
X128916666Y-100750000D01*
X128821428Y-100845238D01*
X128773809Y-101035714D01*
X128773809Y-101369047D01*
X128821428Y-101559523D01*
X128916666Y-101654761D01*
X129011904Y-101702380D01*
X129202380Y-101702380D01*
X129297619Y-101654761D01*
X129392857Y-101559523D01*
X129440476Y-101369047D01*
X129440476Y-101035714D01*
X129392857Y-100845238D01*
X129297619Y-100750000D01*
X129202380Y-100702380D01*
X128345238Y-100702380D02*
X128345238Y-101511904D01*
X128297619Y-101607142D01*
X128250000Y-101654761D01*
X128154761Y-101702380D01*
X127964285Y-101702380D01*
X127869047Y-101654761D01*
X127821428Y-101607142D01*
X127773809Y-101511904D01*
X127773809Y-100702380D01*
X127440476Y-100702380D02*
X126869047Y-100702380D01*
X127154761Y-101702380D02*
X127154761Y-100702380D01*
X126535714Y-101178571D02*
X126202380Y-101178571D01*
X126059523Y-101702380D02*
X126535714Y-101702380D01*
X126535714Y-100702380D01*
X126059523Y-100702380D01*
X125154761Y-101702380D02*
X125630952Y-101702380D01*
X125630952Y-100702380D01*
X124345238Y-101702380D02*
X124821428Y-101702380D01*
X124821428Y-100702380D01*
X124011904Y-101702380D02*
X124011904Y-100702380D01*
X123535714Y-101178571D02*
X123202380Y-101178571D01*
X123059523Y-101702380D02*
X123535714Y-101702380D01*
X123535714Y-100702380D01*
X123059523Y-100702380D01*
X122059523Y-101702380D02*
X122392857Y-101226190D01*
X122630952Y-101702380D02*
X122630952Y-100702380D01*
X122249999Y-100702380D01*
X122154761Y-100750000D01*
X122107142Y-100797619D01*
X122059523Y-100892857D01*
X122059523Y-101035714D01*
X122107142Y-101130952D01*
X122154761Y-101178571D01*
X122249999Y-101226190D01*
X122630952Y-101226190D01*
X129809523Y-100107142D02*
X129857142Y-100154761D01*
X130000000Y-100202380D01*
X130095238Y-100202380D01*
X130238095Y-100154761D01*
X130333333Y-100059523D01*
X130380952Y-99964285D01*
X130428571Y-99773809D01*
X130428571Y-99630952D01*
X130380952Y-99440476D01*
X130333333Y-99345238D01*
X130238095Y-99250000D01*
X130095238Y-99202380D01*
X130000000Y-99202380D01*
X129857142Y-99250000D01*
X129809523Y-99297619D01*
X129238095Y-100202380D02*
X129333333Y-100154761D01*
X129380952Y-100107142D01*
X129428571Y-100011904D01*
X129428571Y-99726190D01*
X129380952Y-99630952D01*
X129333333Y-99583333D01*
X129238095Y-99535714D01*
X129095238Y-99535714D01*
X129000000Y-99583333D01*
X128952380Y-99630952D01*
X128904761Y-99726190D01*
X128904761Y-100011904D01*
X128952380Y-100107142D01*
X129000000Y-100154761D01*
X129095238Y-100202380D01*
X129238095Y-100202380D01*
X128476190Y-100202380D02*
X128476190Y-99535714D01*
X128476190Y-99726190D02*
X128428571Y-99630952D01*
X128380952Y-99583333D01*
X128285714Y-99535714D01*
X128190476Y-99535714D01*
X127476190Y-100154761D02*
X127571428Y-100202380D01*
X127761904Y-100202380D01*
X127857142Y-100154761D01*
X127904761Y-100059523D01*
X127904761Y-99678571D01*
X127857142Y-99583333D01*
X127761904Y-99535714D01*
X127571428Y-99535714D01*
X127476190Y-99583333D01*
X127428571Y-99678571D01*
X127428571Y-99773809D01*
X127904761Y-99869047D01*
X127000000Y-99535714D02*
X127000000Y-100202380D01*
X127000000Y-99630952D02*
X126952380Y-99583333D01*
X126857142Y-99535714D01*
X126714285Y-99535714D01*
X126619047Y-99583333D01*
X126571428Y-99678571D01*
X126571428Y-100202380D01*
X126238095Y-99535714D02*
X125857142Y-99535714D01*
X126095238Y-99202380D02*
X126095238Y-100059523D01*
X126047619Y-100154761D01*
X125952380Y-100202380D01*
X125857142Y-100202380D01*
X125523809Y-100202380D02*
X125523809Y-99535714D01*
X125523809Y-99202380D02*
X125571428Y-99250000D01*
X125523809Y-99297619D01*
X125476190Y-99250000D01*
X125523809Y-99202380D01*
X125523809Y-99297619D01*
X125047619Y-99535714D02*
X125047619Y-100202380D01*
X125047619Y-99630952D02*
X125000000Y-99583333D01*
X124904761Y-99535714D01*
X124761904Y-99535714D01*
X124666666Y-99583333D01*
X124619047Y-99678571D01*
X124619047Y-100202380D01*
D11*
%TO.C,R3*%
X149152936Y-96535000D02*
X149607064Y-96535000D01*
X149152936Y-98005000D02*
X149607064Y-98005000D01*
D12*
%TO.C,G\002A\002A\002A*%
G36*
X132497186Y-99053407D02*
G01*
X132447568Y-99059671D01*
X132388216Y-99069016D01*
X132324125Y-99080544D01*
X132260291Y-99093358D01*
X132201711Y-99106563D01*
X132154871Y-99118826D01*
X132024210Y-99166077D01*
X131892364Y-99231912D01*
X131761573Y-99314889D01*
X131634073Y-99413561D01*
X131512106Y-99526486D01*
X131493480Y-99545546D01*
X131386238Y-99669098D01*
X131298188Y-99797673D01*
X131228549Y-99932561D01*
X131180468Y-100062040D01*
X131167378Y-100107576D01*
X131153401Y-100161353D01*
X131139282Y-100219866D01*
X131125763Y-100279610D01*
X131113588Y-100337078D01*
X131103501Y-100388765D01*
X131096246Y-100431167D01*
X131092564Y-100460776D01*
X131093103Y-100473944D01*
X131107696Y-100483216D01*
X131125799Y-100473882D01*
X131128506Y-100470980D01*
X131136428Y-100458742D01*
X131152585Y-100431377D01*
X131175441Y-100391575D01*
X131203458Y-100342026D01*
X131235100Y-100285419D01*
X131253367Y-100252476D01*
X131306116Y-100158444D01*
X131352639Y-100079195D01*
X131395533Y-100011207D01*
X131437394Y-99950962D01*
X131480820Y-99894936D01*
X131528409Y-99839609D01*
X131582758Y-99781460D01*
X131646463Y-99716969D01*
X131653634Y-99709851D01*
X131734131Y-99630885D01*
X131804324Y-99564397D01*
X131867665Y-99507909D01*
X131927607Y-99458944D01*
X131987600Y-99415023D01*
X132051096Y-99373667D01*
X132121547Y-99332399D01*
X132202405Y-99288740D01*
X132297120Y-99240212D01*
X132332360Y-99222529D01*
X132394987Y-99190951D01*
X132451996Y-99161699D01*
X132500282Y-99136411D01*
X132348974Y-99136411D01*
X132347353Y-99140811D01*
X132333698Y-99150184D01*
X132306374Y-99165725D01*
X132263748Y-99188630D01*
X132225680Y-99208764D01*
X132130653Y-99260341D01*
X132046489Y-99309605D01*
X131969814Y-99359133D01*
X131897258Y-99411500D01*
X131825447Y-99469283D01*
X131751009Y-99535057D01*
X131670572Y-99611399D01*
X131580763Y-99700884D01*
X131578823Y-99702850D01*
X131509331Y-99775137D01*
X131451510Y-99840034D01*
X131401250Y-99902951D01*
X131354438Y-99969294D01*
X131306963Y-100044473D01*
X131265664Y-100114749D01*
X131240008Y-100158919D01*
X131218097Y-100195732D01*
X131201801Y-100222112D01*
X131192992Y-100234984D01*
X131192019Y-100235724D01*
X131193528Y-100225511D01*
X131199614Y-100199762D01*
X131209279Y-100162484D01*
X131220274Y-100122168D01*
X131257561Y-100010651D01*
X131306137Y-99900053D01*
X131362693Y-99797237D01*
X131412239Y-99724161D01*
X131459296Y-99666998D01*
X131518664Y-99602939D01*
X131585757Y-99536375D01*
X131655991Y-99471696D01*
X131724779Y-99413295D01*
X131784466Y-99367730D01*
X131878896Y-99306834D01*
X131980859Y-99251983D01*
X132085589Y-99205213D01*
X132188313Y-99168565D01*
X132284264Y-99144075D01*
X132322644Y-99137738D01*
X132340193Y-99135785D01*
X132348974Y-99136411D01*
X132500282Y-99136411D01*
X132500714Y-99136185D01*
X132517150Y-99127320D01*
X132388240Y-99127320D01*
X132383160Y-99132400D01*
X132378080Y-99127320D01*
X132383160Y-99122240D01*
X132388240Y-99127320D01*
X132517150Y-99127320D01*
X132538467Y-99115823D01*
X132562580Y-99102027D01*
X132569970Y-99096975D01*
X132580696Y-99077738D01*
X132573406Y-99062026D01*
X132550389Y-99052611D01*
X132532073Y-99051120D01*
X132497186Y-99053407D01*
X132497186Y-99053407D01*
G37*
X132497186Y-99053407D02*
X132447568Y-99059671D01*
X132388216Y-99069016D01*
X132324125Y-99080544D01*
X132260291Y-99093358D01*
X132201711Y-99106563D01*
X132154871Y-99118826D01*
X132024210Y-99166077D01*
X131892364Y-99231912D01*
X131761573Y-99314889D01*
X131634073Y-99413561D01*
X131512106Y-99526486D01*
X131493480Y-99545546D01*
X131386238Y-99669098D01*
X131298188Y-99797673D01*
X131228549Y-99932561D01*
X131180468Y-100062040D01*
X131167378Y-100107576D01*
X131153401Y-100161353D01*
X131139282Y-100219866D01*
X131125763Y-100279610D01*
X131113588Y-100337078D01*
X131103501Y-100388765D01*
X131096246Y-100431167D01*
X131092564Y-100460776D01*
X131093103Y-100473944D01*
X131107696Y-100483216D01*
X131125799Y-100473882D01*
X131128506Y-100470980D01*
X131136428Y-100458742D01*
X131152585Y-100431377D01*
X131175441Y-100391575D01*
X131203458Y-100342026D01*
X131235100Y-100285419D01*
X131253367Y-100252476D01*
X131306116Y-100158444D01*
X131352639Y-100079195D01*
X131395533Y-100011207D01*
X131437394Y-99950962D01*
X131480820Y-99894936D01*
X131528409Y-99839609D01*
X131582758Y-99781460D01*
X131646463Y-99716969D01*
X131653634Y-99709851D01*
X131734131Y-99630885D01*
X131804324Y-99564397D01*
X131867665Y-99507909D01*
X131927607Y-99458944D01*
X131987600Y-99415023D01*
X132051096Y-99373667D01*
X132121547Y-99332399D01*
X132202405Y-99288740D01*
X132297120Y-99240212D01*
X132332360Y-99222529D01*
X132394987Y-99190951D01*
X132451996Y-99161699D01*
X132500282Y-99136411D01*
X132348974Y-99136411D01*
X132347353Y-99140811D01*
X132333698Y-99150184D01*
X132306374Y-99165725D01*
X132263748Y-99188630D01*
X132225680Y-99208764D01*
X132130653Y-99260341D01*
X132046489Y-99309605D01*
X131969814Y-99359133D01*
X131897258Y-99411500D01*
X131825447Y-99469283D01*
X131751009Y-99535057D01*
X131670572Y-99611399D01*
X131580763Y-99700884D01*
X131578823Y-99702850D01*
X131509331Y-99775137D01*
X131451510Y-99840034D01*
X131401250Y-99902951D01*
X131354438Y-99969294D01*
X131306963Y-100044473D01*
X131265664Y-100114749D01*
X131240008Y-100158919D01*
X131218097Y-100195732D01*
X131201801Y-100222112D01*
X131192992Y-100234984D01*
X131192019Y-100235724D01*
X131193528Y-100225511D01*
X131199614Y-100199762D01*
X131209279Y-100162484D01*
X131220274Y-100122168D01*
X131257561Y-100010651D01*
X131306137Y-99900053D01*
X131362693Y-99797237D01*
X131412239Y-99724161D01*
X131459296Y-99666998D01*
X131518664Y-99602939D01*
X131585757Y-99536375D01*
X131655991Y-99471696D01*
X131724779Y-99413295D01*
X131784466Y-99367730D01*
X131878896Y-99306834D01*
X131980859Y-99251983D01*
X132085589Y-99205213D01*
X132188313Y-99168565D01*
X132284264Y-99144075D01*
X132322644Y-99137738D01*
X132340193Y-99135785D01*
X132348974Y-99136411D01*
X132500282Y-99136411D01*
X132500714Y-99136185D01*
X132517150Y-99127320D01*
X132388240Y-99127320D01*
X132383160Y-99132400D01*
X132378080Y-99127320D01*
X132383160Y-99122240D01*
X132388240Y-99127320D01*
X132517150Y-99127320D01*
X132538467Y-99115823D01*
X132562580Y-99102027D01*
X132569970Y-99096975D01*
X132580696Y-99077738D01*
X132573406Y-99062026D01*
X132550389Y-99052611D01*
X132532073Y-99051120D01*
X132497186Y-99053407D01*
G36*
X131428011Y-100240343D02*
G01*
X131405918Y-100242503D01*
X131396446Y-100247290D01*
X131395752Y-100255677D01*
X131396256Y-100257620D01*
X131399707Y-100272619D01*
X131406434Y-100304290D01*
X131415765Y-100349374D01*
X131427026Y-100404609D01*
X131439544Y-100466736D01*
X131442935Y-100483680D01*
X131455700Y-100547468D01*
X131467370Y-100605598D01*
X131477269Y-100654711D01*
X131484718Y-100691447D01*
X131489040Y-100712444D01*
X131489548Y-100714820D01*
X131495160Y-100728608D01*
X131507879Y-100735420D01*
X131533375Y-100737587D01*
X131545154Y-100737680D01*
X131574033Y-100736304D01*
X131592270Y-100732790D01*
X131595584Y-100730060D01*
X131593558Y-100718038D01*
X131588062Y-100689570D01*
X131579781Y-100648101D01*
X131569401Y-100597073D01*
X131560722Y-100554948D01*
X131549409Y-100499533D01*
X131539927Y-100451569D01*
X131532904Y-100414363D01*
X131528969Y-100391217D01*
X131528431Y-100385063D01*
X131532811Y-100393220D01*
X131543558Y-100417350D01*
X131559445Y-100454577D01*
X131579247Y-100502028D01*
X131601735Y-100556827D01*
X131602064Y-100557634D01*
X131673304Y-100732600D01*
X131725972Y-100735670D01*
X131778640Y-100738741D01*
X131779691Y-100552790D01*
X131780742Y-100366840D01*
X131855546Y-100732600D01*
X131908533Y-100735670D01*
X131938198Y-100736753D01*
X131957427Y-100736234D01*
X131961520Y-100735054D01*
X131959577Y-100724527D01*
X131954209Y-100697476D01*
X131946106Y-100657274D01*
X131935959Y-100607294D01*
X131924460Y-100550911D01*
X131912300Y-100491499D01*
X131900169Y-100432431D01*
X131888758Y-100377080D01*
X131878759Y-100328822D01*
X131870863Y-100291030D01*
X131865760Y-100267076D01*
X131864687Y-100262261D01*
X131860542Y-100250256D01*
X131851937Y-100243567D01*
X131834194Y-100240986D01*
X131802633Y-100241306D01*
X131785957Y-100241941D01*
X131712600Y-100244920D01*
X131707520Y-100409188D01*
X131705510Y-100464845D01*
X131703218Y-100513062D01*
X131700858Y-100550317D01*
X131698639Y-100573091D01*
X131697360Y-100578473D01*
X131691910Y-100571256D01*
X131679811Y-100548161D01*
X131662411Y-100511993D01*
X131641060Y-100465553D01*
X131617114Y-100411665D01*
X131541947Y-100239840D01*
X131466569Y-100239840D01*
X131428011Y-100240343D01*
X131428011Y-100240343D01*
G37*
X131428011Y-100240343D02*
X131405918Y-100242503D01*
X131396446Y-100247290D01*
X131395752Y-100255677D01*
X131396256Y-100257620D01*
X131399707Y-100272619D01*
X131406434Y-100304290D01*
X131415765Y-100349374D01*
X131427026Y-100404609D01*
X131439544Y-100466736D01*
X131442935Y-100483680D01*
X131455700Y-100547468D01*
X131467370Y-100605598D01*
X131477269Y-100654711D01*
X131484718Y-100691447D01*
X131489040Y-100712444D01*
X131489548Y-100714820D01*
X131495160Y-100728608D01*
X131507879Y-100735420D01*
X131533375Y-100737587D01*
X131545154Y-100737680D01*
X131574033Y-100736304D01*
X131592270Y-100732790D01*
X131595584Y-100730060D01*
X131593558Y-100718038D01*
X131588062Y-100689570D01*
X131579781Y-100648101D01*
X131569401Y-100597073D01*
X131560722Y-100554948D01*
X131549409Y-100499533D01*
X131539927Y-100451569D01*
X131532904Y-100414363D01*
X131528969Y-100391217D01*
X131528431Y-100385063D01*
X131532811Y-100393220D01*
X131543558Y-100417350D01*
X131559445Y-100454577D01*
X131579247Y-100502028D01*
X131601735Y-100556827D01*
X131602064Y-100557634D01*
X131673304Y-100732600D01*
X131725972Y-100735670D01*
X131778640Y-100738741D01*
X131779691Y-100552790D01*
X131780742Y-100366840D01*
X131855546Y-100732600D01*
X131908533Y-100735670D01*
X131938198Y-100736753D01*
X131957427Y-100736234D01*
X131961520Y-100735054D01*
X131959577Y-100724527D01*
X131954209Y-100697476D01*
X131946106Y-100657274D01*
X131935959Y-100607294D01*
X131924460Y-100550911D01*
X131912300Y-100491499D01*
X131900169Y-100432431D01*
X131888758Y-100377080D01*
X131878759Y-100328822D01*
X131870863Y-100291030D01*
X131865760Y-100267076D01*
X131864687Y-100262261D01*
X131860542Y-100250256D01*
X131851937Y-100243567D01*
X131834194Y-100240986D01*
X131802633Y-100241306D01*
X131785957Y-100241941D01*
X131712600Y-100244920D01*
X131707520Y-100409188D01*
X131705510Y-100464845D01*
X131703218Y-100513062D01*
X131700858Y-100550317D01*
X131698639Y-100573091D01*
X131697360Y-100578473D01*
X131691910Y-100571256D01*
X131679811Y-100548161D01*
X131662411Y-100511993D01*
X131641060Y-100465553D01*
X131617114Y-100411665D01*
X131541947Y-100239840D01*
X131466569Y-100239840D01*
X131428011Y-100240343D01*
G36*
X132053654Y-100242959D02*
G01*
X132018241Y-100247594D01*
X131994161Y-100256284D01*
X131978431Y-100269970D01*
X131968068Y-100289590D01*
X131962339Y-100307612D01*
X131957995Y-100358881D01*
X131970449Y-100411110D01*
X131997766Y-100457384D01*
X132007078Y-100467600D01*
X132026527Y-100488584D01*
X132032989Y-100502561D01*
X132028629Y-100516065D01*
X132025031Y-100521763D01*
X132017696Y-100537426D01*
X132015440Y-100558250D01*
X132018065Y-100589910D01*
X132021742Y-100615452D01*
X132026504Y-100655190D01*
X132028241Y-100690100D01*
X132026590Y-100712529D01*
X132024099Y-100726849D01*
X132028827Y-100734341D01*
X132045171Y-100737215D01*
X132076659Y-100737680D01*
X132108810Y-100735970D01*
X132132009Y-100731566D01*
X132139370Y-100727439D01*
X132140815Y-100713091D01*
X132138859Y-100684498D01*
X132133933Y-100647370D01*
X132132799Y-100640431D01*
X132126375Y-100596356D01*
X132127123Y-100568474D01*
X132138150Y-100553070D01*
X132162566Y-100546428D01*
X132203476Y-100544833D01*
X132212787Y-100544795D01*
X132240952Y-100544573D01*
X132260088Y-100546278D01*
X132272658Y-100553222D01*
X132281128Y-100568715D01*
X132287961Y-100596069D01*
X132295620Y-100638595D01*
X132299624Y-100661480D01*
X132312212Y-100732600D01*
X132366030Y-100735690D01*
X132419848Y-100738781D01*
X132413350Y-100704142D01*
X132409415Y-100683924D01*
X132402154Y-100647340D01*
X132392279Y-100597941D01*
X132380499Y-100539275D01*
X132367524Y-100474892D01*
X132363953Y-100457211D01*
X132363143Y-100453200D01*
X132257947Y-100453200D01*
X132181591Y-100453200D01*
X132141842Y-100452621D01*
X132116775Y-100449836D01*
X132100762Y-100443270D01*
X132088176Y-100431346D01*
X132083683Y-100425801D01*
X132066542Y-100390002D01*
X132065166Y-100367381D01*
X132068200Y-100336360D01*
X132151210Y-100333422D01*
X132193371Y-100332094D01*
X132219712Y-100334057D01*
X132234730Y-100342756D01*
X132242924Y-100361636D01*
X132248794Y-100394142D01*
X132251231Y-100410020D01*
X132257947Y-100453200D01*
X132363143Y-100453200D01*
X132321056Y-100244920D01*
X132170411Y-100242100D01*
X132103383Y-100241441D01*
X132053654Y-100242959D01*
X132053654Y-100242959D01*
G37*
X132053654Y-100242959D02*
X132018241Y-100247594D01*
X131994161Y-100256284D01*
X131978431Y-100269970D01*
X131968068Y-100289590D01*
X131962339Y-100307612D01*
X131957995Y-100358881D01*
X131970449Y-100411110D01*
X131997766Y-100457384D01*
X132007078Y-100467600D01*
X132026527Y-100488584D01*
X132032989Y-100502561D01*
X132028629Y-100516065D01*
X132025031Y-100521763D01*
X132017696Y-100537426D01*
X132015440Y-100558250D01*
X132018065Y-100589910D01*
X132021742Y-100615452D01*
X132026504Y-100655190D01*
X132028241Y-100690100D01*
X132026590Y-100712529D01*
X132024099Y-100726849D01*
X132028827Y-100734341D01*
X132045171Y-100737215D01*
X132076659Y-100737680D01*
X132108810Y-100735970D01*
X132132009Y-100731566D01*
X132139370Y-100727439D01*
X132140815Y-100713091D01*
X132138859Y-100684498D01*
X132133933Y-100647370D01*
X132132799Y-100640431D01*
X132126375Y-100596356D01*
X132127123Y-100568474D01*
X132138150Y-100553070D01*
X132162566Y-100546428D01*
X132203476Y-100544833D01*
X132212787Y-100544795D01*
X132240952Y-100544573D01*
X132260088Y-100546278D01*
X132272658Y-100553222D01*
X132281128Y-100568715D01*
X132287961Y-100596069D01*
X132295620Y-100638595D01*
X132299624Y-100661480D01*
X132312212Y-100732600D01*
X132366030Y-100735690D01*
X132419848Y-100738781D01*
X132413350Y-100704142D01*
X132409415Y-100683924D01*
X132402154Y-100647340D01*
X132392279Y-100597941D01*
X132380499Y-100539275D01*
X132367524Y-100474892D01*
X132363953Y-100457211D01*
X132363143Y-100453200D01*
X132257947Y-100453200D01*
X132181591Y-100453200D01*
X132141842Y-100452621D01*
X132116775Y-100449836D01*
X132100762Y-100443270D01*
X132088176Y-100431346D01*
X132083683Y-100425801D01*
X132066542Y-100390002D01*
X132065166Y-100367381D01*
X132068200Y-100336360D01*
X132151210Y-100333422D01*
X132193371Y-100332094D01*
X132219712Y-100334057D01*
X132234730Y-100342756D01*
X132242924Y-100361636D01*
X132248794Y-100394142D01*
X132251231Y-100410020D01*
X132257947Y-100453200D01*
X132363143Y-100453200D01*
X132321056Y-100244920D01*
X132170411Y-100242100D01*
X132103383Y-100241441D01*
X132053654Y-100242959D01*
G36*
X132480710Y-100281013D02*
G01*
X132448849Y-100326925D01*
X132433443Y-100383874D01*
X132434566Y-100450876D01*
X132452292Y-100526946D01*
X132460562Y-100550599D01*
X132484174Y-100600311D01*
X132515567Y-100647923D01*
X132550554Y-100688087D01*
X132584949Y-100715454D01*
X132592894Y-100719637D01*
X132616409Y-100726650D01*
X132652555Y-100732975D01*
X132696775Y-100738313D01*
X132744509Y-100742362D01*
X132791199Y-100744821D01*
X132832285Y-100745391D01*
X132863209Y-100743769D01*
X132879412Y-100739657D01*
X132880429Y-100738604D01*
X132880397Y-100725967D01*
X132876696Y-100696322D01*
X132869799Y-100652554D01*
X132869127Y-100648710D01*
X132764160Y-100648710D01*
X132754705Y-100653836D01*
X132728655Y-100655472D01*
X132701728Y-100654326D01*
X132665060Y-100650437D01*
X132640808Y-100643101D01*
X132621067Y-100628937D01*
X132605856Y-100613321D01*
X132577797Y-100573396D01*
X132557428Y-100525891D01*
X132545254Y-100475327D01*
X132541781Y-100426225D01*
X132547514Y-100383105D01*
X132562960Y-100350488D01*
X132575181Y-100339055D01*
X132588423Y-100335874D01*
X132613642Y-100333279D01*
X132644281Y-100331536D01*
X132673786Y-100330913D01*
X132695599Y-100331680D01*
X132703239Y-100333820D01*
X132705151Y-100344122D01*
X132710395Y-100370843D01*
X132718276Y-100410481D01*
X132728100Y-100459536D01*
X132733719Y-100487469D01*
X132744328Y-100540770D01*
X132753328Y-100587202D01*
X132760013Y-100623032D01*
X132763679Y-100644529D01*
X132764160Y-100648710D01*
X132869127Y-100648710D01*
X132860182Y-100597548D01*
X132848317Y-100534188D01*
X132839418Y-100488858D01*
X132791678Y-100250000D01*
X132511724Y-100250000D01*
X132480710Y-100281013D01*
X132480710Y-100281013D01*
G37*
X132480710Y-100281013D02*
X132448849Y-100326925D01*
X132433443Y-100383874D01*
X132434566Y-100450876D01*
X132452292Y-100526946D01*
X132460562Y-100550599D01*
X132484174Y-100600311D01*
X132515567Y-100647923D01*
X132550554Y-100688087D01*
X132584949Y-100715454D01*
X132592894Y-100719637D01*
X132616409Y-100726650D01*
X132652555Y-100732975D01*
X132696775Y-100738313D01*
X132744509Y-100742362D01*
X132791199Y-100744821D01*
X132832285Y-100745391D01*
X132863209Y-100743769D01*
X132879412Y-100739657D01*
X132880429Y-100738604D01*
X132880397Y-100725967D01*
X132876696Y-100696322D01*
X132869799Y-100652554D01*
X132869127Y-100648710D01*
X132764160Y-100648710D01*
X132754705Y-100653836D01*
X132728655Y-100655472D01*
X132701728Y-100654326D01*
X132665060Y-100650437D01*
X132640808Y-100643101D01*
X132621067Y-100628937D01*
X132605856Y-100613321D01*
X132577797Y-100573396D01*
X132557428Y-100525891D01*
X132545254Y-100475327D01*
X132541781Y-100426225D01*
X132547514Y-100383105D01*
X132562960Y-100350488D01*
X132575181Y-100339055D01*
X132588423Y-100335874D01*
X132613642Y-100333279D01*
X132644281Y-100331536D01*
X132673786Y-100330913D01*
X132695599Y-100331680D01*
X132703239Y-100333820D01*
X132705151Y-100344122D01*
X132710395Y-100370843D01*
X132718276Y-100410481D01*
X132728100Y-100459536D01*
X132733719Y-100487469D01*
X132744328Y-100540770D01*
X132753328Y-100587202D01*
X132760013Y-100623032D01*
X132763679Y-100644529D01*
X132764160Y-100648710D01*
X132869127Y-100648710D01*
X132860182Y-100597548D01*
X132848317Y-100534188D01*
X132839418Y-100488858D01*
X132791678Y-100250000D01*
X132511724Y-100250000D01*
X132480710Y-100281013D01*
G36*
X132995205Y-100256428D02*
G01*
X132947053Y-100275332D01*
X132914425Y-100306144D01*
X132898081Y-100348292D01*
X132896240Y-100371415D01*
X132897353Y-100389902D01*
X132904222Y-100399025D01*
X132922149Y-100402090D01*
X132945939Y-100402400D01*
X132976307Y-100401239D01*
X132992353Y-100395988D01*
X133000025Y-100383998D01*
X133001898Y-100377455D01*
X133016749Y-100355304D01*
X133044189Y-100342328D01*
X133078694Y-100338498D01*
X133114739Y-100343783D01*
X133146799Y-100358154D01*
X133167372Y-100378359D01*
X133174429Y-100400056D01*
X133163599Y-100417777D01*
X133134073Y-100432212D01*
X133091814Y-100442778D01*
X133034524Y-100456099D01*
X132986445Y-100471580D01*
X132951547Y-100487766D01*
X132936078Y-100499886D01*
X132927576Y-100521869D01*
X132924584Y-100555117D01*
X132927030Y-100591357D01*
X132934845Y-100622317D01*
X132937165Y-100627382D01*
X132971678Y-100675031D01*
X133018564Y-100712811D01*
X133062907Y-100732878D01*
X133125194Y-100744681D01*
X133189023Y-100745352D01*
X133237160Y-100736986D01*
X133278638Y-100715134D01*
X133307038Y-100678648D01*
X133320379Y-100631632D01*
X133325603Y-100585280D01*
X133274583Y-100585280D01*
X133243820Y-100586335D01*
X133227440Y-100591265D01*
X133219543Y-100602713D01*
X133217098Y-100611039D01*
X133202030Y-100634722D01*
X133174571Y-100648930D01*
X133139796Y-100654229D01*
X133102779Y-100651187D01*
X133068595Y-100640374D01*
X133042319Y-100622357D01*
X133029026Y-100597703D01*
X133028320Y-100589907D01*
X133030474Y-100574993D01*
X133039047Y-100563401D01*
X133057211Y-100553589D01*
X133088135Y-100544011D01*
X133134989Y-100533123D01*
X133152547Y-100529386D01*
X133206009Y-100514838D01*
X133241885Y-100496138D01*
X133262836Y-100470873D01*
X133271522Y-100436628D01*
X133272160Y-100420845D01*
X133262928Y-100366655D01*
X133236577Y-100320904D01*
X133195132Y-100285206D01*
X133140613Y-100261175D01*
X133075044Y-100250424D01*
X133058122Y-100250000D01*
X132995205Y-100256428D01*
X132995205Y-100256428D01*
G37*
X132995205Y-100256428D02*
X132947053Y-100275332D01*
X132914425Y-100306144D01*
X132898081Y-100348292D01*
X132896240Y-100371415D01*
X132897353Y-100389902D01*
X132904222Y-100399025D01*
X132922149Y-100402090D01*
X132945939Y-100402400D01*
X132976307Y-100401239D01*
X132992353Y-100395988D01*
X133000025Y-100383998D01*
X133001898Y-100377455D01*
X133016749Y-100355304D01*
X133044189Y-100342328D01*
X133078694Y-100338498D01*
X133114739Y-100343783D01*
X133146799Y-100358154D01*
X133167372Y-100378359D01*
X133174429Y-100400056D01*
X133163599Y-100417777D01*
X133134073Y-100432212D01*
X133091814Y-100442778D01*
X133034524Y-100456099D01*
X132986445Y-100471580D01*
X132951547Y-100487766D01*
X132936078Y-100499886D01*
X132927576Y-100521869D01*
X132924584Y-100555117D01*
X132927030Y-100591357D01*
X132934845Y-100622317D01*
X132937165Y-100627382D01*
X132971678Y-100675031D01*
X133018564Y-100712811D01*
X133062907Y-100732878D01*
X133125194Y-100744681D01*
X133189023Y-100745352D01*
X133237160Y-100736986D01*
X133278638Y-100715134D01*
X133307038Y-100678648D01*
X133320379Y-100631632D01*
X133325603Y-100585280D01*
X133274583Y-100585280D01*
X133243820Y-100586335D01*
X133227440Y-100591265D01*
X133219543Y-100602713D01*
X133217098Y-100611039D01*
X133202030Y-100634722D01*
X133174571Y-100648930D01*
X133139796Y-100654229D01*
X133102779Y-100651187D01*
X133068595Y-100640374D01*
X133042319Y-100622357D01*
X133029026Y-100597703D01*
X133028320Y-100589907D01*
X133030474Y-100574993D01*
X133039047Y-100563401D01*
X133057211Y-100553589D01*
X133088135Y-100544011D01*
X133134989Y-100533123D01*
X133152547Y-100529386D01*
X133206009Y-100514838D01*
X133241885Y-100496138D01*
X133262836Y-100470873D01*
X133271522Y-100436628D01*
X133272160Y-100420845D01*
X133262928Y-100366655D01*
X133236577Y-100320904D01*
X133195132Y-100285206D01*
X133140613Y-100261175D01*
X133075044Y-100250424D01*
X133058122Y-100250000D01*
X132995205Y-100256428D01*
G36*
X133521700Y-100277414D02*
G01*
X133525351Y-100296564D01*
X133532075Y-100331757D01*
X133541123Y-100379076D01*
X133551747Y-100434605D01*
X133560655Y-100481140D01*
X133594207Y-100656400D01*
X133483984Y-100656400D01*
X133435573Y-100656576D01*
X133403928Y-100657596D01*
X133385495Y-100660199D01*
X133376721Y-100665123D01*
X133374052Y-100673104D01*
X133373899Y-100679260D01*
X133376783Y-100708684D01*
X133380164Y-100724980D01*
X133383066Y-100733436D01*
X133388531Y-100739498D01*
X133399566Y-100743565D01*
X133419177Y-100746034D01*
X133450371Y-100747304D01*
X133496155Y-100747773D01*
X133552745Y-100747840D01*
X133608281Y-100747400D01*
X133655897Y-100746185D01*
X133692247Y-100744348D01*
X133713984Y-100742042D01*
X133718711Y-100740220D01*
X133716643Y-100728518D01*
X133711095Y-100699741D01*
X133702630Y-100656729D01*
X133691809Y-100602320D01*
X133679192Y-100539355D01*
X133670023Y-100493840D01*
X133621824Y-100255080D01*
X133516298Y-100248948D01*
X133521700Y-100277414D01*
X133521700Y-100277414D01*
G37*
X133521700Y-100277414D02*
X133525351Y-100296564D01*
X133532075Y-100331757D01*
X133541123Y-100379076D01*
X133551747Y-100434605D01*
X133560655Y-100481140D01*
X133594207Y-100656400D01*
X133483984Y-100656400D01*
X133435573Y-100656576D01*
X133403928Y-100657596D01*
X133385495Y-100660199D01*
X133376721Y-100665123D01*
X133374052Y-100673104D01*
X133373899Y-100679260D01*
X133376783Y-100708684D01*
X133380164Y-100724980D01*
X133383066Y-100733436D01*
X133388531Y-100739498D01*
X133399566Y-100743565D01*
X133419177Y-100746034D01*
X133450371Y-100747304D01*
X133496155Y-100747773D01*
X133552745Y-100747840D01*
X133608281Y-100747400D01*
X133655897Y-100746185D01*
X133692247Y-100744348D01*
X133713984Y-100742042D01*
X133718711Y-100740220D01*
X133716643Y-100728518D01*
X133711095Y-100699741D01*
X133702630Y-100656729D01*
X133691809Y-100602320D01*
X133679192Y-100539355D01*
X133670023Y-100493840D01*
X133621824Y-100255080D01*
X133516298Y-100248948D01*
X133521700Y-100277414D01*
G36*
X133763582Y-97814904D02*
G01*
X133754480Y-97825505D01*
X133738713Y-97845390D01*
X133717177Y-97870688D01*
X133712131Y-97876394D01*
X133691832Y-97899551D01*
X133662681Y-97933302D01*
X133628917Y-97972697D01*
X133594776Y-98012786D01*
X133564496Y-98048618D01*
X133554716Y-98060288D01*
X133535207Y-98083350D01*
X133515554Y-98106240D01*
X133496926Y-98127902D01*
X133471523Y-98157629D01*
X133451439Y-98181227D01*
X133427785Y-98208962D01*
X133408514Y-98231353D01*
X133399015Y-98242187D01*
X133376244Y-98267971D01*
X133348344Y-98300517D01*
X133318189Y-98336349D01*
X133288651Y-98371990D01*
X133262604Y-98403962D01*
X133242920Y-98428790D01*
X133232472Y-98442997D01*
X133231521Y-98444897D01*
X133239764Y-98452786D01*
X133260711Y-98465642D01*
X133274701Y-98473042D01*
X133300682Y-98486371D01*
X133317771Y-98495567D01*
X133321082Y-98497616D01*
X133317618Y-98506886D01*
X133306853Y-98531676D01*
X133290114Y-98569111D01*
X133268727Y-98616315D01*
X133244022Y-98670411D01*
X133217324Y-98728523D01*
X133189961Y-98787775D01*
X133163261Y-98845292D01*
X133138550Y-98898197D01*
X133117157Y-98943613D01*
X133100409Y-98978665D01*
X133089633Y-99000477D01*
X133086261Y-99006423D01*
X133076400Y-99004185D01*
X133051345Y-98996758D01*
X133015174Y-98985388D01*
X132982499Y-98974788D01*
X132815690Y-98930487D01*
X132646035Y-98905522D01*
X132475303Y-98899474D01*
X132305263Y-98911919D01*
X132137687Y-98942438D01*
X131974342Y-98990610D01*
X131817000Y-99056013D01*
X131667430Y-99138226D01*
X131527401Y-99236829D01*
X131398685Y-99351400D01*
X131398443Y-99351642D01*
X131291587Y-99471551D01*
X131195845Y-99605323D01*
X131113340Y-99749143D01*
X131046194Y-99899191D01*
X130996531Y-100051650D01*
X130986469Y-100092411D01*
X130956918Y-100264336D01*
X130946348Y-100437987D01*
X130954536Y-100611042D01*
X130981259Y-100781178D01*
X131026296Y-100946072D01*
X131081531Y-101086383D01*
X131151910Y-101221479D01*
X131236576Y-101351050D01*
X131333017Y-101472293D01*
X131438721Y-101582404D01*
X131551175Y-101678579D01*
X131667870Y-101758016D01*
X131699496Y-101776076D01*
X131736838Y-101796815D01*
X131768247Y-101814794D01*
X131788751Y-101827144D01*
X131792803Y-101829880D01*
X131794632Y-101835915D01*
X131792129Y-101849320D01*
X131784677Y-101871529D01*
X131771660Y-101903981D01*
X131752462Y-101948111D01*
X131726464Y-102005357D01*
X131693052Y-102077156D01*
X131651608Y-102164945D01*
X131624940Y-102221040D01*
X131586020Y-102302895D01*
X131549957Y-102379015D01*
X131517663Y-102447455D01*
X131490048Y-102506268D01*
X131468026Y-102553511D01*
X131452507Y-102587239D01*
X131444405Y-102605506D01*
X131443418Y-102608208D01*
X131451943Y-102613992D01*
X131474429Y-102625669D01*
X131506183Y-102641071D01*
X131542511Y-102658032D01*
X131578722Y-102674386D01*
X131610122Y-102687968D01*
X131632018Y-102696609D01*
X131639148Y-102698560D01*
X131644341Y-102689689D01*
X131657277Y-102664352D01*
X131677028Y-102624456D01*
X131702665Y-102571910D01*
X131733258Y-102508623D01*
X131767879Y-102436504D01*
X131805599Y-102357463D01*
X131824830Y-102316997D01*
X131863876Y-102235019D01*
X131900430Y-102158832D01*
X131933542Y-102090380D01*
X131962256Y-102031608D01*
X131985621Y-101984461D01*
X132002684Y-101950883D01*
X132012493Y-101932819D01*
X132014334Y-101930235D01*
X132028008Y-101930014D01*
X132054413Y-101934913D01*
X132077565Y-101940971D01*
X132162323Y-101961550D01*
X132259457Y-101978415D01*
X132361199Y-101990526D01*
X132459782Y-101996843D01*
X132499737Y-101997520D01*
X132673422Y-101987624D01*
X132844577Y-101958471D01*
X133011254Y-101910861D01*
X133171507Y-101845594D01*
X133323388Y-101763471D01*
X133464950Y-101665293D01*
X133594246Y-101551858D01*
X133601558Y-101544597D01*
X133708414Y-101424688D01*
X133804156Y-101290916D01*
X133886661Y-101147096D01*
X133953807Y-100997048D01*
X134003470Y-100844589D01*
X134013532Y-100803828D01*
X134043083Y-100631903D01*
X134052232Y-100481595D01*
X133997044Y-100481595D01*
X133982910Y-100655270D01*
X133948823Y-100830058D01*
X133936893Y-100874840D01*
X133914732Y-100940825D01*
X133883142Y-101017498D01*
X133844902Y-101099303D01*
X133802794Y-101180685D01*
X133759595Y-101256088D01*
X133718087Y-101319957D01*
X133705565Y-101337120D01*
X133590879Y-101472501D01*
X133463979Y-101591887D01*
X133325831Y-101694740D01*
X133177405Y-101780525D01*
X133019669Y-101848704D01*
X132853590Y-101898743D01*
X132680136Y-101930103D01*
X132625034Y-101935947D01*
X132582956Y-101939678D01*
X132547621Y-101942807D01*
X132524679Y-101944833D01*
X132520320Y-101945216D01*
X132504524Y-101944914D01*
X132473200Y-101943087D01*
X132431058Y-101940044D01*
X132388240Y-101936559D01*
X132262647Y-101921320D01*
X131948951Y-101921320D01*
X131828598Y-102175320D01*
X131794085Y-102248126D01*
X131759720Y-102320563D01*
X131727269Y-102388912D01*
X131698497Y-102449456D01*
X131675170Y-102498478D01*
X131661064Y-102528057D01*
X131613882Y-102626794D01*
X131579517Y-102612435D01*
X131552545Y-102600560D01*
X131532433Y-102590678D01*
X131531049Y-102589898D01*
X131529062Y-102584000D01*
X131531736Y-102570113D01*
X131539686Y-102546790D01*
X131553526Y-102512583D01*
X131573871Y-102466044D01*
X131601335Y-102405727D01*
X131636532Y-102330184D01*
X131680076Y-102237968D01*
X131683287Y-102231200D01*
X131726334Y-102140423D01*
X131761616Y-102066400D01*
X131790230Y-102007597D01*
X131813271Y-101962481D01*
X131831838Y-101929519D01*
X131847026Y-101907179D01*
X131859933Y-101893928D01*
X131871655Y-101888232D01*
X131883290Y-101888560D01*
X131895933Y-101893378D01*
X131910683Y-101901154D01*
X131917024Y-101904542D01*
X131948951Y-101921320D01*
X132262647Y-101921320D01*
X132246023Y-101919303D01*
X132115986Y-101892065D01*
X131991716Y-101853056D01*
X131866799Y-101800490D01*
X131822570Y-101778976D01*
X131671120Y-101692368D01*
X131534411Y-101591826D01*
X131412174Y-101477079D01*
X131304143Y-101347857D01*
X131210051Y-101203889D01*
X131159289Y-101108520D01*
X131097745Y-100969615D01*
X131052717Y-100835307D01*
X131022962Y-100700315D01*
X131007238Y-100559360D01*
X131003905Y-100448120D01*
X131010346Y-100295983D01*
X131030492Y-100153925D01*
X131065575Y-100016697D01*
X131116827Y-99879051D01*
X131158976Y-99787720D01*
X131245533Y-99633789D01*
X131346012Y-99494652D01*
X131460382Y-99370340D01*
X131588613Y-99260881D01*
X131730674Y-99166307D01*
X131861138Y-99098172D01*
X132025889Y-99032385D01*
X132193237Y-98986748D01*
X132363121Y-98961264D01*
X132535479Y-98955937D01*
X132710250Y-98970771D01*
X132887372Y-99005770D01*
X132964550Y-99027113D01*
X133003095Y-99039485D01*
X133033661Y-99050805D01*
X133051361Y-99059204D01*
X133053670Y-99061198D01*
X133052002Y-99073844D01*
X133042706Y-99099675D01*
X133027596Y-99133888D01*
X133021410Y-99146668D01*
X133004705Y-99181817D01*
X132992939Y-99209297D01*
X132987948Y-99224701D01*
X132988170Y-99226447D01*
X133002178Y-99234133D01*
X133029040Y-99247119D01*
X133063845Y-99263212D01*
X133101686Y-99280215D01*
X133137651Y-99295933D01*
X133166831Y-99308170D01*
X133184317Y-99314730D01*
X133186810Y-99315280D01*
X133195838Y-99306707D01*
X133210399Y-99283885D01*
X133227825Y-99251154D01*
X133233765Y-99238885D01*
X133269876Y-99162490D01*
X133344678Y-99213010D01*
X133481236Y-99317303D01*
X133603542Y-99436048D01*
X133711438Y-99569060D01*
X133804770Y-99716156D01*
X133855299Y-99814446D01*
X133920350Y-99975457D01*
X133965701Y-100140867D01*
X133991286Y-100309853D01*
X133997044Y-100481595D01*
X134052232Y-100481595D01*
X134053653Y-100458252D01*
X134045465Y-100285197D01*
X134018742Y-100115061D01*
X133973705Y-99950167D01*
X133918470Y-99809856D01*
X133841264Y-99662785D01*
X133747876Y-99523287D01*
X133640655Y-99394101D01*
X133521952Y-99277963D01*
X133394116Y-99177611D01*
X133351371Y-99149092D01*
X133293421Y-99112057D01*
X133333591Y-99025708D01*
X133358113Y-98973120D01*
X133385839Y-98913853D01*
X133411294Y-98859604D01*
X133414400Y-98853000D01*
X133439085Y-98800420D01*
X133466850Y-98741091D01*
X133492226Y-98686698D01*
X133495381Y-98679920D01*
X133535721Y-98593201D01*
X133576256Y-98613880D01*
X133604557Y-98627515D01*
X133624052Y-98632625D01*
X133637177Y-98626809D01*
X133646370Y-98607670D01*
X133654067Y-98572809D01*
X133661033Y-98530420D01*
X133668690Y-98483024D01*
X133679293Y-98418956D01*
X133692276Y-98341556D01*
X133707072Y-98254165D01*
X133723113Y-98160124D01*
X133739834Y-98062774D01*
X133749423Y-98007334D01*
X133684357Y-98007334D01*
X133683881Y-98018337D01*
X133680207Y-98046815D01*
X133673729Y-98090243D01*
X133664842Y-98146098D01*
X133653938Y-98211855D01*
X133641412Y-98284987D01*
X133638032Y-98304360D01*
X133628509Y-98358916D01*
X133619149Y-98412820D01*
X133611140Y-98459220D01*
X133606393Y-98486982D01*
X133600438Y-98519580D01*
X133595367Y-98542922D01*
X133592709Y-98551078D01*
X133582181Y-98549673D01*
X133559936Y-98542060D01*
X133550860Y-98538402D01*
X133525266Y-98530096D01*
X133507917Y-98528819D01*
X133505274Y-98530186D01*
X133499506Y-98540859D01*
X133486136Y-98567900D01*
X133466142Y-98609257D01*
X133440504Y-98662881D01*
X133410202Y-98726720D01*
X133376216Y-98798724D01*
X133339525Y-98876841D01*
X133332846Y-98891100D01*
X133295996Y-98969685D01*
X133261888Y-99042189D01*
X133231467Y-99106620D01*
X133205677Y-99160988D01*
X133185463Y-99203303D01*
X133171770Y-99231574D01*
X133165542Y-99243811D01*
X133165277Y-99244160D01*
X133155560Y-99240402D01*
X133132876Y-99230708D01*
X133111458Y-99221300D01*
X133059909Y-99198440D01*
X133226995Y-98843252D01*
X133264162Y-98763944D01*
X133298455Y-98690195D01*
X133328934Y-98624068D01*
X133354659Y-98567629D01*
X133374690Y-98522943D01*
X133388086Y-98492076D01*
X133393908Y-98477093D01*
X133394080Y-98476185D01*
X133385635Y-98464524D01*
X133365130Y-98452332D01*
X133363383Y-98451589D01*
X133336490Y-98438051D01*
X133327682Y-98424818D01*
X133335248Y-98407598D01*
X133342342Y-98398788D01*
X133364531Y-98372938D01*
X133381448Y-98353206D01*
X133434480Y-98291457D01*
X133486478Y-98231216D01*
X133535777Y-98174384D01*
X133580711Y-98122861D01*
X133619614Y-98078551D01*
X133650823Y-98043353D01*
X133672671Y-98019169D01*
X133683494Y-98007901D01*
X133684357Y-98007334D01*
X133749423Y-98007334D01*
X133756667Y-97965457D01*
X133765454Y-97914956D01*
X133773540Y-97862195D01*
X133775974Y-97828350D01*
X133772681Y-97812795D01*
X133763582Y-97814904D01*
X133763582Y-97814904D01*
G37*
X133763582Y-97814904D02*
X133754480Y-97825505D01*
X133738713Y-97845390D01*
X133717177Y-97870688D01*
X133712131Y-97876394D01*
X133691832Y-97899551D01*
X133662681Y-97933302D01*
X133628917Y-97972697D01*
X133594776Y-98012786D01*
X133564496Y-98048618D01*
X133554716Y-98060288D01*
X133535207Y-98083350D01*
X133515554Y-98106240D01*
X133496926Y-98127902D01*
X133471523Y-98157629D01*
X133451439Y-98181227D01*
X133427785Y-98208962D01*
X133408514Y-98231353D01*
X133399015Y-98242187D01*
X133376244Y-98267971D01*
X133348344Y-98300517D01*
X133318189Y-98336349D01*
X133288651Y-98371990D01*
X133262604Y-98403962D01*
X133242920Y-98428790D01*
X133232472Y-98442997D01*
X133231521Y-98444897D01*
X133239764Y-98452786D01*
X133260711Y-98465642D01*
X133274701Y-98473042D01*
X133300682Y-98486371D01*
X133317771Y-98495567D01*
X133321082Y-98497616D01*
X133317618Y-98506886D01*
X133306853Y-98531676D01*
X133290114Y-98569111D01*
X133268727Y-98616315D01*
X133244022Y-98670411D01*
X133217324Y-98728523D01*
X133189961Y-98787775D01*
X133163261Y-98845292D01*
X133138550Y-98898197D01*
X133117157Y-98943613D01*
X133100409Y-98978665D01*
X133089633Y-99000477D01*
X133086261Y-99006423D01*
X133076400Y-99004185D01*
X133051345Y-98996758D01*
X133015174Y-98985388D01*
X132982499Y-98974788D01*
X132815690Y-98930487D01*
X132646035Y-98905522D01*
X132475303Y-98899474D01*
X132305263Y-98911919D01*
X132137687Y-98942438D01*
X131974342Y-98990610D01*
X131817000Y-99056013D01*
X131667430Y-99138226D01*
X131527401Y-99236829D01*
X131398685Y-99351400D01*
X131398443Y-99351642D01*
X131291587Y-99471551D01*
X131195845Y-99605323D01*
X131113340Y-99749143D01*
X131046194Y-99899191D01*
X130996531Y-100051650D01*
X130986469Y-100092411D01*
X130956918Y-100264336D01*
X130946348Y-100437987D01*
X130954536Y-100611042D01*
X130981259Y-100781178D01*
X131026296Y-100946072D01*
X131081531Y-101086383D01*
X131151910Y-101221479D01*
X131236576Y-101351050D01*
X131333017Y-101472293D01*
X131438721Y-101582404D01*
X131551175Y-101678579D01*
X131667870Y-101758016D01*
X131699496Y-101776076D01*
X131736838Y-101796815D01*
X131768247Y-101814794D01*
X131788751Y-101827144D01*
X131792803Y-101829880D01*
X131794632Y-101835915D01*
X131792129Y-101849320D01*
X131784677Y-101871529D01*
X131771660Y-101903981D01*
X131752462Y-101948111D01*
X131726464Y-102005357D01*
X131693052Y-102077156D01*
X131651608Y-102164945D01*
X131624940Y-102221040D01*
X131586020Y-102302895D01*
X131549957Y-102379015D01*
X131517663Y-102447455D01*
X131490048Y-102506268D01*
X131468026Y-102553511D01*
X131452507Y-102587239D01*
X131444405Y-102605506D01*
X131443418Y-102608208D01*
X131451943Y-102613992D01*
X131474429Y-102625669D01*
X131506183Y-102641071D01*
X131542511Y-102658032D01*
X131578722Y-102674386D01*
X131610122Y-102687968D01*
X131632018Y-102696609D01*
X131639148Y-102698560D01*
X131644341Y-102689689D01*
X131657277Y-102664352D01*
X131677028Y-102624456D01*
X131702665Y-102571910D01*
X131733258Y-102508623D01*
X131767879Y-102436504D01*
X131805599Y-102357463D01*
X131824830Y-102316997D01*
X131863876Y-102235019D01*
X131900430Y-102158832D01*
X131933542Y-102090380D01*
X131962256Y-102031608D01*
X131985621Y-101984461D01*
X132002684Y-101950883D01*
X132012493Y-101932819D01*
X132014334Y-101930235D01*
X132028008Y-101930014D01*
X132054413Y-101934913D01*
X132077565Y-101940971D01*
X132162323Y-101961550D01*
X132259457Y-101978415D01*
X132361199Y-101990526D01*
X132459782Y-101996843D01*
X132499737Y-101997520D01*
X132673422Y-101987624D01*
X132844577Y-101958471D01*
X133011254Y-101910861D01*
X133171507Y-101845594D01*
X133323388Y-101763471D01*
X133464950Y-101665293D01*
X133594246Y-101551858D01*
X133601558Y-101544597D01*
X133708414Y-101424688D01*
X133804156Y-101290916D01*
X133886661Y-101147096D01*
X133953807Y-100997048D01*
X134003470Y-100844589D01*
X134013532Y-100803828D01*
X134043083Y-100631903D01*
X134052232Y-100481595D01*
X133997044Y-100481595D01*
X133982910Y-100655270D01*
X133948823Y-100830058D01*
X133936893Y-100874840D01*
X133914732Y-100940825D01*
X133883142Y-101017498D01*
X133844902Y-101099303D01*
X133802794Y-101180685D01*
X133759595Y-101256088D01*
X133718087Y-101319957D01*
X133705565Y-101337120D01*
X133590879Y-101472501D01*
X133463979Y-101591887D01*
X133325831Y-101694740D01*
X133177405Y-101780525D01*
X133019669Y-101848704D01*
X132853590Y-101898743D01*
X132680136Y-101930103D01*
X132625034Y-101935947D01*
X132582956Y-101939678D01*
X132547621Y-101942807D01*
X132524679Y-101944833D01*
X132520320Y-101945216D01*
X132504524Y-101944914D01*
X132473200Y-101943087D01*
X132431058Y-101940044D01*
X132388240Y-101936559D01*
X132262647Y-101921320D01*
X131948951Y-101921320D01*
X131828598Y-102175320D01*
X131794085Y-102248126D01*
X131759720Y-102320563D01*
X131727269Y-102388912D01*
X131698497Y-102449456D01*
X131675170Y-102498478D01*
X131661064Y-102528057D01*
X131613882Y-102626794D01*
X131579517Y-102612435D01*
X131552545Y-102600560D01*
X131532433Y-102590678D01*
X131531049Y-102589898D01*
X131529062Y-102584000D01*
X131531736Y-102570113D01*
X131539686Y-102546790D01*
X131553526Y-102512583D01*
X131573871Y-102466044D01*
X131601335Y-102405727D01*
X131636532Y-102330184D01*
X131680076Y-102237968D01*
X131683287Y-102231200D01*
X131726334Y-102140423D01*
X131761616Y-102066400D01*
X131790230Y-102007597D01*
X131813271Y-101962481D01*
X131831838Y-101929519D01*
X131847026Y-101907179D01*
X131859933Y-101893928D01*
X131871655Y-101888232D01*
X131883290Y-101888560D01*
X131895933Y-101893378D01*
X131910683Y-101901154D01*
X131917024Y-101904542D01*
X131948951Y-101921320D01*
X132262647Y-101921320D01*
X132246023Y-101919303D01*
X132115986Y-101892065D01*
X131991716Y-101853056D01*
X131866799Y-101800490D01*
X131822570Y-101778976D01*
X131671120Y-101692368D01*
X131534411Y-101591826D01*
X131412174Y-101477079D01*
X131304143Y-101347857D01*
X131210051Y-101203889D01*
X131159289Y-101108520D01*
X131097745Y-100969615D01*
X131052717Y-100835307D01*
X131022962Y-100700315D01*
X131007238Y-100559360D01*
X131003905Y-100448120D01*
X131010346Y-100295983D01*
X131030492Y-100153925D01*
X131065575Y-100016697D01*
X131116827Y-99879051D01*
X131158976Y-99787720D01*
X131245533Y-99633789D01*
X131346012Y-99494652D01*
X131460382Y-99370340D01*
X131588613Y-99260881D01*
X131730674Y-99166307D01*
X131861138Y-99098172D01*
X132025889Y-99032385D01*
X132193237Y-98986748D01*
X132363121Y-98961264D01*
X132535479Y-98955937D01*
X132710250Y-98970771D01*
X132887372Y-99005770D01*
X132964550Y-99027113D01*
X133003095Y-99039485D01*
X133033661Y-99050805D01*
X133051361Y-99059204D01*
X133053670Y-99061198D01*
X133052002Y-99073844D01*
X133042706Y-99099675D01*
X133027596Y-99133888D01*
X133021410Y-99146668D01*
X133004705Y-99181817D01*
X132992939Y-99209297D01*
X132987948Y-99224701D01*
X132988170Y-99226447D01*
X133002178Y-99234133D01*
X133029040Y-99247119D01*
X133063845Y-99263212D01*
X133101686Y-99280215D01*
X133137651Y-99295933D01*
X133166831Y-99308170D01*
X133184317Y-99314730D01*
X133186810Y-99315280D01*
X133195838Y-99306707D01*
X133210399Y-99283885D01*
X133227825Y-99251154D01*
X133233765Y-99238885D01*
X133269876Y-99162490D01*
X133344678Y-99213010D01*
X133481236Y-99317303D01*
X133603542Y-99436048D01*
X133711438Y-99569060D01*
X133804770Y-99716156D01*
X133855299Y-99814446D01*
X133920350Y-99975457D01*
X133965701Y-100140867D01*
X133991286Y-100309853D01*
X133997044Y-100481595D01*
X134052232Y-100481595D01*
X134053653Y-100458252D01*
X134045465Y-100285197D01*
X134018742Y-100115061D01*
X133973705Y-99950167D01*
X133918470Y-99809856D01*
X133841264Y-99662785D01*
X133747876Y-99523287D01*
X133640655Y-99394101D01*
X133521952Y-99277963D01*
X133394116Y-99177611D01*
X133351371Y-99149092D01*
X133293421Y-99112057D01*
X133333591Y-99025708D01*
X133358113Y-98973120D01*
X133385839Y-98913853D01*
X133411294Y-98859604D01*
X133414400Y-98853000D01*
X133439085Y-98800420D01*
X133466850Y-98741091D01*
X133492226Y-98686698D01*
X133495381Y-98679920D01*
X133535721Y-98593201D01*
X133576256Y-98613880D01*
X133604557Y-98627515D01*
X133624052Y-98632625D01*
X133637177Y-98626809D01*
X133646370Y-98607670D01*
X133654067Y-98572809D01*
X133661033Y-98530420D01*
X133668690Y-98483024D01*
X133679293Y-98418956D01*
X133692276Y-98341556D01*
X133707072Y-98254165D01*
X133723113Y-98160124D01*
X133739834Y-98062774D01*
X133749423Y-98007334D01*
X133684357Y-98007334D01*
X133683881Y-98018337D01*
X133680207Y-98046815D01*
X133673729Y-98090243D01*
X133664842Y-98146098D01*
X133653938Y-98211855D01*
X133641412Y-98284987D01*
X133638032Y-98304360D01*
X133628509Y-98358916D01*
X133619149Y-98412820D01*
X133611140Y-98459220D01*
X133606393Y-98486982D01*
X133600438Y-98519580D01*
X133595367Y-98542922D01*
X133592709Y-98551078D01*
X133582181Y-98549673D01*
X133559936Y-98542060D01*
X133550860Y-98538402D01*
X133525266Y-98530096D01*
X133507917Y-98528819D01*
X133505274Y-98530186D01*
X133499506Y-98540859D01*
X133486136Y-98567900D01*
X133466142Y-98609257D01*
X133440504Y-98662881D01*
X133410202Y-98726720D01*
X133376216Y-98798724D01*
X133339525Y-98876841D01*
X133332846Y-98891100D01*
X133295996Y-98969685D01*
X133261888Y-99042189D01*
X133231467Y-99106620D01*
X133205677Y-99160988D01*
X133185463Y-99203303D01*
X133171770Y-99231574D01*
X133165542Y-99243811D01*
X133165277Y-99244160D01*
X133155560Y-99240402D01*
X133132876Y-99230708D01*
X133111458Y-99221300D01*
X133059909Y-99198440D01*
X133226995Y-98843252D01*
X133264162Y-98763944D01*
X133298455Y-98690195D01*
X133328934Y-98624068D01*
X133354659Y-98567629D01*
X133374690Y-98522943D01*
X133388086Y-98492076D01*
X133393908Y-98477093D01*
X133394080Y-98476185D01*
X133385635Y-98464524D01*
X133365130Y-98452332D01*
X133363383Y-98451589D01*
X133336490Y-98438051D01*
X133327682Y-98424818D01*
X133335248Y-98407598D01*
X133342342Y-98398788D01*
X133364531Y-98372938D01*
X133381448Y-98353206D01*
X133434480Y-98291457D01*
X133486478Y-98231216D01*
X133535777Y-98174384D01*
X133580711Y-98122861D01*
X133619614Y-98078551D01*
X133650823Y-98043353D01*
X133672671Y-98019169D01*
X133683494Y-98007901D01*
X133684357Y-98007334D01*
X133749423Y-98007334D01*
X133756667Y-97965457D01*
X133765454Y-97914956D01*
X133773540Y-97862195D01*
X133775974Y-97828350D01*
X133772681Y-97812795D01*
X133763582Y-97814904D01*
D11*
%TO.C,C0*%
X119020000Y-96711252D02*
X119020000Y-95288748D01*
X117200000Y-96711252D02*
X117200000Y-95288748D01*
D13*
%TO.C,IC1*%
X141400000Y-98450000D02*
X144600000Y-98450000D01*
X144600000Y-98450000D02*
X144600000Y-93550000D01*
X144600000Y-93550000D02*
X141400000Y-93550000D01*
X141400000Y-93550000D02*
X141400000Y-98450000D01*
X139525000Y-98580000D02*
X141050000Y-98580000D01*
D11*
%TO.C,R1*%
X125687064Y-94015000D02*
X125232936Y-94015000D01*
X125687064Y-95485000D02*
X125232936Y-95485000D01*
%TO.C,R2*%
X125687064Y-96555000D02*
X125232936Y-96555000D01*
X125687064Y-98025000D02*
X125232936Y-98025000D01*
%TO.C,R4*%
X149152936Y-93995000D02*
X149607064Y-93995000D01*
X149152936Y-95465000D02*
X149607064Y-95465000D01*
%TO.C,R3*%
D10*
X152666666Y-97702380D02*
X153000000Y-97226190D01*
X153238095Y-97702380D02*
X153238095Y-96702380D01*
X152857142Y-96702380D01*
X152761904Y-96750000D01*
X152714285Y-96797619D01*
X152666666Y-96892857D01*
X152666666Y-97035714D01*
X152714285Y-97130952D01*
X152761904Y-97178571D01*
X152857142Y-97226190D01*
X153238095Y-97226190D01*
X152333333Y-96702380D02*
X151714285Y-96702380D01*
X152047619Y-97083333D01*
X151904761Y-97083333D01*
X151809523Y-97130952D01*
X151761904Y-97178571D01*
X151714285Y-97273809D01*
X151714285Y-97511904D01*
X151761904Y-97607142D01*
X151809523Y-97654761D01*
X151904761Y-97702380D01*
X152190476Y-97702380D01*
X152285714Y-97654761D01*
X152333333Y-97607142D01*
%TO.C,C0*%
X120317142Y-95833333D02*
X120364761Y-95785714D01*
X120412380Y-95642857D01*
X120412380Y-95547619D01*
X120364761Y-95404761D01*
X120269523Y-95309523D01*
X120174285Y-95261904D01*
X119983809Y-95214285D01*
X119840952Y-95214285D01*
X119650476Y-95261904D01*
X119555238Y-95309523D01*
X119460000Y-95404761D01*
X119412380Y-95547619D01*
X119412380Y-95642857D01*
X119460000Y-95785714D01*
X119507619Y-95833333D01*
X119412380Y-96452380D02*
X119412380Y-96547619D01*
X119460000Y-96642857D01*
X119507619Y-96690476D01*
X119602857Y-96738095D01*
X119793333Y-96785714D01*
X120031428Y-96785714D01*
X120221904Y-96738095D01*
X120317142Y-96690476D01*
X120364761Y-96642857D01*
X120412380Y-96547619D01*
X120412380Y-96452380D01*
X120364761Y-96357142D01*
X120317142Y-96309523D01*
X120221904Y-96261904D01*
X120031428Y-96214285D01*
X119793333Y-96214285D01*
X119602857Y-96261904D01*
X119507619Y-96309523D01*
X119460000Y-96357142D01*
X119412380Y-96452380D01*
%TO.C,IC1*%
D14*
X146489761Y-93074523D02*
X146489761Y-91804523D01*
X145159285Y-92953571D02*
X145219761Y-93014047D01*
X145401190Y-93074523D01*
X145522142Y-93074523D01*
X145703571Y-93014047D01*
X145824523Y-92893095D01*
X145885000Y-92772142D01*
X145945476Y-92530238D01*
X145945476Y-92348809D01*
X145885000Y-92106904D01*
X145824523Y-91985952D01*
X145703571Y-91865000D01*
X145522142Y-91804523D01*
X145401190Y-91804523D01*
X145219761Y-91865000D01*
X145159285Y-91925476D01*
X143949761Y-93074523D02*
X144675476Y-93074523D01*
X144312619Y-93074523D02*
X144312619Y-91804523D01*
X144433571Y-91985952D01*
X144554523Y-92106904D01*
X144675476Y-92167380D01*
%TO.C,R1*%
D10*
X128436666Y-95202380D02*
X128770000Y-94726190D01*
X129008095Y-95202380D02*
X129008095Y-94202380D01*
X128627142Y-94202380D01*
X128531904Y-94250000D01*
X128484285Y-94297619D01*
X128436666Y-94392857D01*
X128436666Y-94535714D01*
X128484285Y-94630952D01*
X128531904Y-94678571D01*
X128627142Y-94726190D01*
X129008095Y-94726190D01*
X127484285Y-95202380D02*
X128055714Y-95202380D01*
X127770000Y-95202380D02*
X127770000Y-94202380D01*
X127865238Y-94345238D01*
X127960476Y-94440476D01*
X128055714Y-94488095D01*
%TO.C,R2*%
X128436666Y-97742380D02*
X128770000Y-97266190D01*
X129008095Y-97742380D02*
X129008095Y-96742380D01*
X128627142Y-96742380D01*
X128531904Y-96790000D01*
X128484285Y-96837619D01*
X128436666Y-96932857D01*
X128436666Y-97075714D01*
X128484285Y-97170952D01*
X128531904Y-97218571D01*
X128627142Y-97266190D01*
X129008095Y-97266190D01*
X128055714Y-96837619D02*
X128008095Y-96790000D01*
X127912857Y-96742380D01*
X127674761Y-96742380D01*
X127579523Y-96790000D01*
X127531904Y-96837619D01*
X127484285Y-96932857D01*
X127484285Y-97028095D01*
X127531904Y-97170952D01*
X128103333Y-97742380D01*
X127484285Y-97742380D01*
%TO.C,R4*%
X152666666Y-95202380D02*
X153000000Y-94726190D01*
X153238095Y-95202380D02*
X153238095Y-94202380D01*
X152857142Y-94202380D01*
X152761904Y-94250000D01*
X152714285Y-94297619D01*
X152666666Y-94392857D01*
X152666666Y-94535714D01*
X152714285Y-94630952D01*
X152761904Y-94678571D01*
X152857142Y-94726190D01*
X153238095Y-94726190D01*
X151809523Y-94535714D02*
X151809523Y-95202380D01*
X152047619Y-94154761D02*
X152285714Y-94869047D01*
X151666666Y-94869047D01*
%TD*%
M02*
